<?xml version="1.0" standalone="no"?>
<!DOCTYPE svg PUBLIC "-//W3C//DTD SVG 1.1//EN" "http://www.w3.org/Graphics/SVG/1.1/DTD/svg11.dtd" >
<svg xmlns="http://www.w3.org/2000/svg">
<metadata>Generated by IcoMoon</metadata>
<defs>
<font id="icomoon" horiz-adv-x="1024">
<font-face units-per-em="1024" ascent="960" descent="-64" />
<missing-glyph horiz-adv-x="1024" />
<glyph unicode="&#x20;" horiz-adv-x="512" d="" />
<glyph unicode="&#xe900;" glyph-name="add-circle-outline" d="M96 448c0 229.674 186.326 416 416 416s416-186.326 416-416c0-229.674-186.326-416-416-416s-416 186.326-416 416zM512 800c-194.326 0-352-157.674-352-352s157.674-352 352-352c194.326 0 352 157.674 352 352s-157.674 352-352 352zM512 640c17.674 0 32-14.326 32-32v-320c0-17.674-14.326-32-32-32s-32 14.326-32 32v320c0 17.674 14.326 32 32 32zM320 448c0 17.674 14.326 32 32 32h320c17.674 0 32-14.326 32-32s-14.326-32-32-32h-320c-17.674 0-32 14.326-32 32z" />
<glyph unicode="&#xe901;" glyph-name="add-outline" d="M512 768c17.674 0 32-14.326 32-32v-576c0-17.674-14.326-32-32-32s-32 14.326-32 32v576c0 17.674 14.326 32 32 32zM192 448c0 17.674 14.326 32 32 32h576c17.674 0 32-14.326 32-32s-14.326-32-32-32h-576c-17.674 0-32 14.326-32 32z" />
<glyph unicode="&#xe902;" glyph-name="analytics-outline" d="M886.628 598.628c12.496-12.498 12.496-32.758 0-45.256l-176-176c-12.498-12.496-32.758-12.496-45.256 0-12.496 12.498-12.496 32.758 0 45.256l176 176c12.498 12.496 32.758 12.496 45.256 0zM441.372 550.628c12.498 12.496 32.758 12.496 45.256 0l128-128c12.496-12.498 12.496-32.758 0-45.256-12.498-12.496-32.758-12.496-45.256 0l-128 128c-12.496 12.498-12.496 32.758 0 45.256zM390.628 550.628c12.496-12.498 12.496-32.758 0-45.256l-208.001-208c-12.497-12.496-32.758-12.496-45.255 0-12.497 12.498-12.497 32.758 0 45.256l207.999 208c12.498 12.496 32.758 12.496 45.256 0zM912 640c-8.836 0-16-7.164-16-16s7.164-16 16-16c8.836 0 16 7.164 16 16s-7.164 16-16 16zM832 624c0 44.182 35.818 80 80 80s80-35.818 80-80c0-44.182-35.818-80-80-80s-80 35.818-80 80zM640 368c-8.836 0-16-7.164-16-16s7.164-16 16-16c8.836 0 16 7.164 16 16s-7.164 16-16 16zM560 352c0 44.182 35.818 80 80 80s80-35.818 80-80c0-44.182-35.818-80-80-80s-80 35.818-80 80zM416 592c-8.836 0-16-7.164-16-16s7.164-16 16-16c8.836 0 16 7.164 16 16s-7.164 16-16 16zM336 576c0 44.182 35.818 80 80 80s80-35.818 80-80c0-44.182-35.818-80-80-80s-80 35.818-80 80zM112 288c-8.837 0-16-7.164-16-16s7.163-16 16-16c8.837 0 16 7.164 16 16s-7.163 16-16 16zM32 272c0 44.182 35.817 80 80 80s80-35.818 80-80c0-44.182-35.817-80-80-80s-80 35.818-80 80z" />
<glyph unicode="&#xe903;" glyph-name="apps-outline" d="M208 800c-26.51 0-48-21.49-48-48s21.49-48 48-48c26.51 0 48 21.49 48 48s-21.49 48-48 48zM96 752c0 61.856 50.144 112 112 112s112-50.144 112-112c0-61.856-50.144-112-112-112s-112 50.144-112 112zM512 800c-26.51 0-48-21.49-48-48s21.49-48 48-48c26.51 0 48 21.49 48 48s-21.49 48-48 48zM400 752c0 61.856 50.144 112 112 112s112-50.144 112-112c0-61.856-50.144-112-112-112s-112 50.144-112 112zM816 800c-26.51 0-48-21.49-48-48s21.49-48 48-48c26.51 0 48 21.49 48 48s-21.49 48-48 48zM704 752c0 61.856 50.144 112 112 112s112-50.144 112-112c0-61.856-50.144-112-112-112s-112 50.144-112 112zM208 496c-26.51 0-48-21.49-48-48s21.49-48 48-48c26.51 0 48 21.49 48 48s-21.49 48-48 48zM96 448c0 61.856 50.144 112 112 112s112-50.144 112-112c0-61.856-50.144-112-112-112s-112 50.144-112 112zM512 496c-26.51 0-48-21.49-48-48s21.49-48 48-48c26.51 0 48 21.49 48 48s-21.49 48-48 48zM400 448c0 61.856 50.144 112 112 112s112-50.144 112-112c0-61.856-50.144-112-112-112s-112 50.144-112 112zM816 496c-26.51 0-48-21.49-48-48s21.49-48 48-48c26.51 0 48 21.49 48 48s-21.49 48-48 48zM704 448c0 61.856 50.144 112 112 112s112-50.144 112-112c0-61.856-50.144-112-112-112s-112 50.144-112 112zM208 192c-26.51 0-48-21.49-48-48s21.49-48 48-48c26.51 0 48 21.49 48 48s-21.49 48-48 48zM96 144c0 61.856 50.144 112 112 112s112-50.144 112-112c0-61.856-50.144-112-112-112s-112 50.144-112 112zM512 192c-26.51 0-48-21.49-48-48s21.49-48 48-48c26.51 0 48 21.49 48 48s-21.49 48-48 48zM400 144c0 61.856 50.144 112 112 112s112-50.144 112-112c0-61.856-50.144-112-112-112s-112 50.144-112 112zM816 192c-26.51 0-48-21.49-48-48s21.49-48 48-48c26.51 0 48 21.49 48 48s-21.49 48-48 48zM704 144c0 61.856 50.144 112 112 112s112-50.144 112-112c0-61.856-50.144-112-112-112s-112 50.144-112 112z" />
<glyph unicode="&#xe904;" glyph-name="back-outline" d="M614.628 662.628c12.496-12.498 12.496-32.758 0-45.256l-169.374-169.372 169.374-169.372c12.496-12.498 12.496-32.758 0-45.256-12.498-12.496-32.758-12.496-45.256 0l-192 192c-12.496 12.498-12.496 32.758 0 45.256l192 192c12.498 12.496 32.758 12.496 45.256 0z" />
<glyph unicode="&#xe905;" glyph-name="basketball-outline" d="M512 800c-194.404 0-352-157.596-352-352s157.596-352 352-352c194.404 0 352 157.596 352 352s-157.596 352-352 352zM96 448c0 229.75 186.25 416 416 416s416-186.25 416-416c0-229.75-186.25-416-416-416s-416 186.25-416 416zM511.48 843.25c17.646 0.983 32.748-12.524 33.73-30.17 4.734-84.962 40.086-165.332 99.512-226.238s138.904-98.224 223.724-105.046c17.616-1.416 30.748-16.846 29.332-34.462-1.418-17.616-16.848-30.748-34.464-29.332-100.242 8.064-194.168 52.166-264.4 124.144-70.23 71.98-112.010 166.964-117.604 267.374-0.984 17.646 12.524 32.747 30.17 33.731zM116.63 448.406c0.987 17.646 16.091 31.152 33.737 30.164 100.623-5.626 195.781-47.59 267.795-118.094 72.014-70.502 115.984-164.752 123.742-265.232 1.362-17.622-11.82-33.008-29.44-34.368-17.622-1.362-33.008 11.82-34.37 29.44-6.564 85.024-43.77 164.772-104.704 224.428-60.934 59.658-141.454 95.164-226.597 99.926-17.645 0.986-31.15 16.092-30.163 33.736zM217.852 742.146c12.498 12.498 32.758 12.498 45.256 0l543.040-543.040c12.496-12.496 12.496-32.758 0-45.254-12.498-12.496-32.758-12.496-45.256 0l-543.040 543.040c-12.496 12.496-12.496 32.758 0 45.254zM806.148 742.146c12.496-12.496 12.496-32.758 0-45.254l-543.040-543.040c-12.498-12.496-32.758-12.496-45.256 0-12.496 12.496-12.496 32.758 0 45.254l543.040 543.040c12.498 12.498 32.758 12.498 45.256 0z" />
<glyph unicode="&#xe906;" glyph-name="book-outline" d="M96 799.999v-572.139c0-1.91 0.326-3.154 0.599-3.86 230.469-0.072 344.059-41.728 415.399-112.176 71.588 70.772 185.026 112.176 416.002 112.176v576c-129.686-0.593-220.082-16.897-280.882-45.946-58.97-28.174-90.55-68.432-104.098-121.912-3.596-14.198-16.374-24.142-31.020-24.142s-27.424 9.944-31.020 24.142c-13.548 53.48-45.128 93.738-104.098 121.912-60.8 29.049-151.196 45.352-280.882 45.945zM71.546 859.183c7.794 3.211 16.146 4.848 24.575 4.816h0.023c133.378-0.598 234.938-17.133 308.328-52.198 47.736-22.807 83.238-53.341 107.528-91.217 24.29 37.876 59.792 68.41 107.528 91.217 73.392 35.065 174.952 51.6 308.328 52.198h0.024c8.428 0.032 16.782-1.605 24.574-4.816 7.794-3.211 14.876-7.933 20.836-13.893s10.682-13.042 13.894-20.836c3.202-7.77 4.838-16.095 4.816-24.498v-575.956c0-16.974-6.742-33.252-18.744-45.256-12.004-12.002-28.282-18.744-45.256-18.744-252.21 0-338.912-50.862-391.012-115.99-6.074-7.594-15.272-12.012-24.994-12.010-9.724 0.002-18.92 4.426-24.992 12.022-51.744 64.744-138.81 115.978-391.002 115.978-19.302 0-36.193 8.172-47.775 21.774-11.178 13.13-16.225 29.792-16.225 46.086v572.090c-0.022 8.405 1.614 16.733 4.816 24.505 3.211 7.794 7.933 14.875 13.893 20.836s13.042 10.682 20.836 13.893zM512 672c17.674 0 32-14.326 32-32v-576c0-17.674-14.326-32-32-32s-32 14.326-32 32v576c0 17.674 14.326 32 32 32z" />
<glyph unicode="&#xe907;" glyph-name="build-outline" d="M629 603c0 0-5.666 5.314-9 9-6 6-11 14-11 14s-6 9-10 20c-0.298 0.988-0.602 1.966-0.91 2.952-2.798 8.984-5.768 18.518-4.090 41.048 6 35 20 48 20 48l84 84.826c0 0 0.802 0.344 1.892 0.909 0 0 0.002 0 0 0 2.756 1.428 7.352 4.271 5.508 6.563-1.824 2.267-7.4 0.84-7.4 0.84s-1.308 0.199-3.74 0.416c0 0 0 0 0 0-1.436 0.129-3.264 0.264-5.448 0.369-9.724 0.468-26.484 0.337-46.984-3.652-5.678-1.105-11.646-2.506-17.828-4.273-8.422-2.473-16.53-5.652-23.642-8.821-14.846-6.613-25.358-13.18-25.358-13.18s-48-28-65-77.999c-4.312-10.65-8.392-30.096-10-43-2-16-1-39-1-39s1.746-20.822 4-34c1.998-11.68 3.43-16.936 5.164-23.31 1.088-3.994 2.294-8.426 3.836-15.154 2-9.536 2.72-22.53 0-36.536-4.662-24-18-40-18-40s-2.572-3.342-5-6c-8.51-9.314-16.228-15.234-16.228-15.234l-233.772-213.766-21-19-24-22-22-20c0 0-15.458-14.326-25-23-11-10-16-25-16-25s-2.357-7.83-3-13c-1.405-11.3 0.173-21.146 3-29 3-8 6-14 13-22 7-9 21.999-16 21.999-16s10.43-4.748 20-5c4-1 16-0.846 26 3 13 5 16 7 22.56 12.856 7.44 7.144 15.44 16.144 15.44 16.144l46 50 24 26 13 14 20 22 166 180c0 0 21 24 39 41 1.19 0.854 2.284 1.65 3.316 2.4 7.224 5.254 11.308 8.224 22.684 12.6 9.366 3.614 15.010 4.996 25 6 13.65 1.37 21 0 35-3 27-8 62-10 62-10 31.464-1.12 47 0 80 10 21.628 8.134 33.736 14.64 51 30 14.944 13.298 21.99 22.68 32 40 3.802 6.58 6.362 11.686 8.7 17.192 0.882 2.076 1.734 4.212 2.606 6.502 0 0 0 0 0 0 0.858 2.252 1.74 4.656 2.694 7.306 3.852 10.7 8 28 8 28l4 26 0.632 12.636 0.368 7.364c0 0 3.642 18.296 0 20-4.598 2.152-17-16-17-16l-57-57c0 0-16.57-18.258-30-26-8-5-22.428-11.14-38-13-23-3-41 4-41 4s-10 3-20 9c-5.192 3.1-12.6 9-12.6 9l-9.4 9-42 42zM659.582 666.768c0.512-1.208 1.2-2.61 1.956-3.978 0.444-0.804 0.796-1.394 0.968-1.672 0.006-0.010 0.012-0.018 0.016-0.026l0.25-0.374 0.308-0.494c0.014-0.018 0.028-0.040 0.044-0.066 0.168-0.252 0.482-0.712 0.884-1.264 0.848-1.166 1.356-1.734 1.35-1.74-0.002-0.002-0.028 0.024-0.080 0.076l1.104-1.104 1.064-1.176c-0.008 0.010 0.070-0.076 0.252-0.268 0.188-0.196 0.434-0.45 0.736-0.758 0.616-0.626 1.316-1.32 2.022-2.010 0.696-0.678 1.32-1.276 1.762-1.7 0.22-0.208 0.388-0.368 0.488-0.462l0.084-0.080 0.008-0.008 0.008-0.006 0.728-0.684 42.228-42.228 6.464-6.19c0.238-0.18 0.488-0.368 0.748-0.56 1.452-1.082 2.382-1.722 2.744-1.972 0.182-0.126 0.22-0.152 0.11-0.086l0.048-0.028 0.048-0.030c1.202-0.72 2.902-1.532 4.596-2.208 0.674-0.27 1.184-0.454 1.442-0.544l1.864-0.558 0.978-0.382c0.374-0.098 0.992-0.246 1.8-0.398 2.608-0.486 5.9-0.748 9.118-0.328l0.342 0.044 0.342 0.042c2.060 0.246 4.718 0.882 7.486 1.894 2.414 0.88 3.868 1.662 4.156 1.816 0.056 0.030 0.068 0.036 0.032 0.014l0.966 0.604 0.988 0.568c-0.038-0.022 0.016 0.020 0.158 0.128 0.688 0.524 3.45 2.63 7.756 6.724 2.066 1.962 3.868 3.788 5.134 5.104 0.622 0.646 1.086 1.14 1.358 1.432 0.12 0.13 0.202 0.218 0.238 0.258 0.004 0.004 0.008 0.008 0.012 0.010 0.014 0.016 0.016 0.018 0.002 0.004l0.956 1.054 54.5 54.5c1.762 2.356 4.24 5.554 7.126 8.904 2.712 3.152 8.022 9.094 14.978 14.474 3.318 2.566 10.010 7.386 19.348 10.866 8.934 3.328 29.116 8.556 51.534-1.94 22.602-10.58 31.144-29.662 33.832-36.83 3.148-8.39 4.006-15.732 4.328-19.41 0.678-7.782 0.128-14.796-0.216-18.42-0.394-4.146-0.94-7.874-1.356-10.438l-0.966-19.344-4.904-31.868-0.616-2.574-39.24 9.408c39.24-9.408 39.24-9.41 39.238-9.412v-0.004l-0.004-0.012-0.006-0.026-0.070-0.292c-0.044-0.18-0.102-0.422-0.176-0.724-0.148-0.602-0.354-1.44-0.612-2.466-0.512-2.042-1.238-4.88-2.106-8.114-1.604-5.982-4.168-15.124-7.044-23.116-5.238-14.546-9.58-25.382-18.806-41.344-12.758-22.076-23.904-37.136-44.866-55.788-24.306-21.626-43.652-31.802-71.016-42.092l-1.962-0.738-2.006-0.608c-40.818-12.37-63.536-14.036-100.836-12.71l-0.688 0.026-0.686 0.038 3.65 63.896c-3.65-63.896-3.656-63.896-3.662-63.896l-0.014 0.002-0.092 0.006-0.17 0.010c-0.132 0.008-0.296 0.018-0.494 0.030-0.394 0.024-0.922 0.060-1.57 0.104-1.294 0.090-3.080 0.224-5.27 0.408-4.36 0.368-10.422 0.95-17.46 1.82-12.84 1.588-31.16 4.402-48.822 9.392-5.628 1.188-7.438 1.476-8.648 1.602l-0.056 0.004c-0.396 0.044-1.318 0.142-4.348-0.162-3.236-0.324-4.064-0.542-4.138-0.56l-0.008-0.002c-0.144-0.034-1.068-0.256-4.212-1.468l-0.030-0.012-0.028-0.010c-2.054-0.79-3.066-1.254-3.464-1.444-0.1-0.048-0.164-0.080-0.2-0.1l-0.038-0.020 0.004 0.004c0.008 0.004 0.008 0.004-0.004-0.004-0.002 0-0.004-0.002-0.004-0.002-0.068-0.040-0.466-0.288-1.794-1.238-0.658-0.47-1.378-0.994-2.384-1.724-6.71-6.522-14.068-14.256-20.318-21.026-3.48-3.77-6.438-7.048-8.512-9.366-1.034-1.156-1.84-2.064-2.374-2.668-0.266-0.302-0.464-0.526-0.588-0.666l-0.138-0.16-0.004-0.002-0.002-0.002-0.002-0.004-0.542-0.62-166.412-180.446-20.074-22.082-13.23-14.248-69.484-75.44c-0.042-0.046-0.086-0.096-0.132-0.148-0.304-0.338-0.72-0.802-1.236-1.37-1.026-1.132-2.462-2.702-4.162-4.526-3.282-3.52-8.052-8.526-12.996-13.274l-0.84-0.806-0.868-0.774c-4.202-3.752-10.442-9.174-19.326-14.338-7.89-4.586-15.94-7.84-22.88-10.508-12.158-4.676-23.948-6.618-32.93-7.364-5.614-0.466-14.118-0.814-23.239 0.424-11.147 0.932-20.514 3.588-25.918 5.32-3.564 1.14-6.573 2.268-8.79 3.15-1.123 0.448-2.083 0.848-2.853 1.178-0.386 0.166-0.727 0.316-1.020 0.444-0.147 0.066-0.282 0.126-0.405 0.182l-0.176 0.078-0.081 0.038-0.039 0.016-0.019 0.010c-0.009 0.004-0.019 0.008 26.495 58.258-27.065-57.996-27.073-57.992-27.082-57.988l-0.019 0.008-0.118 0.056-0.179 0.084c-0.127 0.062-0.271 0.13-0.43 0.206-0.317 0.152-0.698 0.336-1.134 0.55-0.87 0.43-1.98 0.99-3.275 1.67-2.548 1.34-6.025 3.26-9.926 5.684-6.030 3.748-18.578 12.004-28.981 24.716-12.483 14.54-18.835 27.352-23.781 40.542l-0.15 0.398-0.144 0.402c-6.038 16.778-9.006 36.74-6.292 58.568 0.852 6.856 2.475 13.396 3.268 16.482 0.494 1.918 0.951 3.578 1.29 4.774 0.172 0.606 0.319 1.112 0.432 1.5 0.057 0.194 0.106 0.358 0.145 0.492l0.052 0.176 0.034 0.114 0.002 0.006c0.001 0.004 0.002 0.006 61.286-18.44-60.715 20.24-60.711 20.254-60.706 20.266l0.009 0.028 0.059 0.176 0.087 0.256c0.061 0.18 0.129 0.376 0.203 0.588 0.148 0.424 0.324 0.914 0.526 1.464 0.404 1.096 0.922 2.446 1.559 4.002 1.262 3.076 3.064 7.132 5.472 11.72 4.483 8.54 12.615 21.924 25.738 33.854 4.588 4.172 10.694 9.788 15.734 14.44 2.503 2.308 4.712 4.35 6.294 5.814 0.791 0.732 1.424 1.318 1.859 1.72l0.664 0.616 0.224 0.206 22.226 20.206 23.958 21.962 21 19 23.943 21.948 33.098 30.090 178.666 163.498 1.886 1.446c0.024 0.020 0.054 0.046 0.090 0.074 0.294 0.24 0.902 0.746 1.73 1.478 1.712 1.512 4.056 3.718 6.432 6.318-0.012-0.014 0.338 0.382 0.938 1.124 0.24 0.296 0.438 0.546 0.56 0.7 0.040 0.050 0.068 0.086 0.084 0.108 0.002 0.004 0.002 0.004 0.004 0.006 0.006 0.006 0.012 0.014 0.014 0.016l0.64 0.832c0.274 0.402 0.792 1.192 1.41 2.296 1.57 2.808 3.072 6.348 3.772 9.952 0.458 2.362 0.634 4.692 0.602 6.81-0.026 1.856-0.206 3.256-0.348 4.048-1.128 4.87-1.912 7.754-2.872 11.278-0.362 1.334-0.75 2.76-1.192 4.42-1.83 6.89-3.492 14.022-5.448 25.446-1.494 8.742-2.668 18.956-3.414 26.064-0.392 3.75-0.706 7.036-0.924 9.396-0.11 1.184-0.196 2.146-0.254 2.828-0.030 0.34-0.054 0.612-0.070 0.808l-0.030 0.342v0.004c0 0.002 0 0.004 63.776 5.352-63.94-2.78-63.94-2.776-63.94-2.772v0.008l-0.008 0.17-0.012 0.32c-0.012 0.258-0.024 0.6-0.040 1.024-0.030 0.844-0.066 2.008-0.104 3.432-0.074 2.834-0.146 6.776-0.146 11.318 0 8.452 0.24 21.38 1.74 33.408zM934.582 593.388c0 0.006-0.084-0.084-0.258-0.284 0.17 0.178 0.256 0.278 0.258 0.284zM436.492 688.914c0 0.008 0.002 0.016 0.002 0.024 1.846 14.806 6.538 39.294 13.454 57.234 13.206 37.691 36.928 65.17 55.14 82.255 9.506 8.917 18.318 15.757 24.93 20.484 3.328 2.379 6.162 4.267 8.328 5.656 1.086 0.696 2.008 1.27 2.748 1.722 0.268 0.164 0.512 0.312 0.732 0.444 0.002 0.001 0.004 0.002 0.004 0.003 0.34 0.207 0.768 0.468 1.284 0.777 1.030 0.618 2.412 1.433 4.102 2.4 3.366 1.927 8.040 4.501 13.678 7.35 10.966 5.539 27.016 12.842 45.076 18.145l0.224 0.066 0.224 0.064c27.256 7.788 51.346 10.139 68.956 10.517 8.846 0.19 16.19-0.115 21.652-0.515 0.242-0.018 0.482-0.036 0.718-0.054 0.126 0.006 0.254 0.013 0.382 0.018 4.006 0.181 11.394 0.226 20.132-1.848 8.374-1.988 24.328-7.472 37.016-23.25 9.67-12.026 15.506-27.971 14.422-45.333-0.968-15.524-7.124-26.869-11.29-33.053-7.652-11.356-17.088-17.78-19.898-19.679-0.424-0.286-0.844-0.564-1.258-0.834l-75.434-76.176c-0.86-1.706-2.69-5.886-4.19-13.23-0.308-6.238 0.098-8.722 0.174-9.172 0.050-0.3 0.082-0.494 0.124-0.684 0.134-0.624 0.368-1.226 1.658-5.478zM499 642l-63.776-5.348-0.108 1.282-0.056 1.286 63.94 2.78zM131 149l-61.284 18.446 0.271 0.902 0.297 0.892 60.715-20.24zM165.999 69l-26.513-58.25-0.276 0.126-0.275 0.128 27.065 57.996zM833.652 637.42c0-0.008 0-0.014-0.002-0.022 0.024 0.43 0.044 0.466 0.002 0.022zM224 128c0-17.674-14.326-32-32-32s-32 14.326-32 32c0 17.674 14.327 32 32 32s32-14.326 32-32z" />
<glyph unicode="&#xe908;" glyph-name="cart-outline" d="M288 128c0 35.346 28.654 64 64 64s64-28.654 64-64c0-35.346-28.654-64-64-64s-64 28.654-64 64zM736 128c0 35.346 28.654 64 64 64s64-28.654 64-64c0-35.346-28.654-64-64-64s-64 28.654-64 64zM64 800c0 17.673 14.327 32 32 32h128c15.528 0 28.814-11.147 31.514-26.439l91.334-517.561h485.152c17.674 0 32-14.326 32-32s-14.326-32-32-32h-512c-15.528 0-28.814 11.148-31.514 26.438l-91.333 517.562h-101.153c-17.673 0-32 14.327-32 32zM876.48 736c7.098 0.002 14.106-1.57 20.524-4.604 6.424-3.036 12.094-7.46 16.6-12.954s7.736-11.918 9.456-18.812c1.722-6.892 1.892-14.080 0.498-21.046 0-0.002 0-0.002 0-0.004l-57.6-288c-2.178-10.886-8.064-20.678-16.65-27.714-8.588-7.034-19.35-10.874-30.45-10.866l0.022 32v-32h-498.88c-17.674 0-32 14.326-32 32s14.326 32 32 32h485.774l-2.572-12.86v-0.004l15.678-3.134-15.678 3.138c0.726 3.628 2.688 6.894 5.55 9.238 2.858 2.34 6.436 3.62 10.128 3.622h-13.106l51.2 256h19.506c-2.36 0.002-4.692 0.526-6.826 1.534-2.142 1.012-4.032 2.488-5.534 4.318-1.502 1.832-2.578 3.974-3.152 6.272-0.572 2.292-0.63 4.684-0.168 7.002l-3.826-19.126h-600.974c-17.674 0-32 14.326-32 32s14.326 32 32 32h620.472c-0.006 0-0.010 0-0.014 0l0.022-32v32z" />
<glyph unicode="&#xe909;" glyph-name="chatbubble-add-outline" d="M511.66 832c-213.244 0-384.303-168.54-383.66-374.58v-0.102c-0.002-71.672 20.946-141.776 60.26-201.692 2.246-3.066 4.346-6.238 6.295-9.502l0.155-0.258 0.15-0.262c3.155-5.52 6.896-12.954 9.474-21.162 2.36-7.514 5.078-19.76 1.526-32.832l-0.018-0.068-33.052-119.556 114.296 41.25c11.364 4.674 23.542 7.062 35.834 7.024 0.020 0 0.042 0 0.062 0l-0.122-32 0.036 32c0.008 0 0.016 0 0.024 0 11.51-0.016 22.918-2.142 33.662-6.27l0.022-0.010 0.024-0.008c6.486-2.506 32.326-12.104 57.876-19.256 25.118-7.030 71.502-15.556 104.316-15.556 212.18 0 377.174 170.362 377.18 377.848l32 0.012h-32c-0.010 25.74-2.734 51.406-8.13 76.574l-0.006 0.032-0.008 0.034c-35.986 169.66-190.37 298.34-376.196 298.34zM64 457.27c-0.73 242.936 200.522 438.73 447.66 438.73 215.676 0 396.442-149.456 438.794-349.014 6.336-29.566 9.536-59.718 9.546-89.954v-0.012c0-242.148-192.964-441.86-441.18-441.86-40.386 0-92.802 9.874-121.564 17.924-28.294 7.92-56.22 18.304-63.656 21.174-3.44 1.32-7.092 1.998-10.776 2.002h-0.086c-3.978 0.016-7.918-0.776-11.582-2.328l-0.798-0.338-135.719-48.982c-5.635-2.31-11.572-3.806-17.633-4.438l-1.707-0.18-1.716 0.006c-6.774 0.020-13.476 1.384-19.718 4.014s-11.901 6.47-16.649 11.302c-4.747 4.832-8.489 10.558-11.007 16.846-2.519 6.286-3.765 13.012-3.666 19.784l0.014 0.962 0.072 0.96c0.328 4.378 1.107 8.71 2.325 12.928l38.299 138.536c-0.698 2.196-2.031 5.11-3.802 8.238-0.963 1.594-2.003 3.142-3.116 4.636l-0.547 0.734-0.504 0.764c-46.493 70.51-71.278 153.11-71.285 237.566zM512 640c17.674 0 32-14.326 32-32v-320c0-17.674-14.326-32-32-32s-32 14.326-32 32v320c0 17.674 14.326 32 32 32zM320 448c0 17.674 14.326 32 32 32h320c17.674 0 32-14.326 32-32s-14.326-32-32-32h-320c-17.674 0-32 14.326-32 32z" />
<glyph unicode="&#xe90a;" glyph-name="chatbubble-outline" d="M511.66 832c-213.244 0-384.303-168.54-383.66-374.58v-0.102c-0.002-71.672 20.946-141.776 60.26-201.692 2.246-3.066 4.346-6.238 6.295-9.502l0.155-0.258 0.15-0.262c3.155-5.52 6.896-12.954 9.474-21.162 2.36-7.514 5.078-19.76 1.526-32.832l-0.018-0.068-33.052-119.556 114.296 41.25c11.364 4.674 23.542 7.062 35.834 7.024 0.020 0 0.042 0 0.062 0l-0.122-32 0.036 32c0.008 0 0.016 0 0.024 0 11.51-0.016 22.918-2.142 33.662-6.27l0.022-0.010 0.024-0.008c6.486-2.506 32.326-12.104 57.876-19.256 25.118-7.030 71.502-15.556 104.316-15.556 212.18 0 377.174 170.362 377.18 377.848l32 0.012h-32c-0.010 25.74-2.734 51.406-8.13 76.574l-0.006 0.032-0.008 0.034c-35.986 169.66-190.37 298.34-376.196 298.34zM64 457.27c-0.73 242.936 200.522 438.73 447.66 438.73 215.676 0 396.442-149.456 438.794-349.014 6.336-29.566 9.536-59.718 9.546-89.954v-0.012c0-242.148-192.964-441.86-441.18-441.86-40.386 0-92.802 9.874-121.564 17.924-28.294 7.92-56.22 18.304-63.656 21.174-3.44 1.32-7.092 1.998-10.776 2.002h-0.086c-3.978 0.016-7.918-0.776-11.582-2.328l-0.798-0.338-135.719-48.982c-5.635-2.31-11.572-3.806-17.633-4.438l-1.707-0.18-1.716 0.006c-6.774 0.020-13.476 1.384-19.718 4.014s-11.901 6.47-16.649 11.302c-4.747 4.832-8.489 10.558-11.007 16.846-2.519 6.286-3.765 13.012-3.666 19.784l0.014 0.962 0.072 0.96c0.328 4.378 1.107 8.71 2.325 12.928l38.299 138.536c-0.698 2.196-2.031 5.11-3.802 8.238-0.963 1.594-2.003 3.142-3.116 4.636l-0.547 0.734-0.504 0.764c-46.493 70.51-71.278 153.11-71.285 237.566z" />
<glyph unicode="&#xe90b;" glyph-name="chatbubbles-outline" d="M933.426 394.012c-10.9-25.578-24.698-49.71-40.998-72.012l37.512-110.596c12.918-38.086-23.92-74.218-61.748-60.568l-131.192 47.338c-47.618-20.674-100.428-32.174-156.020-32.174-210.41 0-380.98 164.76-380.98 368s170.57 368 380.98 368c210.41 0 380.98-164.76 380.98-368 3.95-21.908 1.35-73.904-28.534-139.988zM897.96 528.278v5.722c0 165.822-139.808 304-316.98 304s-316.98-138.178-316.98-304c0-165.822 139.808-304 316.98-304 46.704 0 90.848 9.652 130.534 26.88l23.308 10.12 123.836-44.686-37.518 110.612 19.618 26.84c13.476 18.438 24.838 38.326 33.792 59.338l0.274 0.642 0.288 0.636c12.644 27.96 19.114 52.062 22.094 70.434 1.492 9.198 2.074 16.758 2.174 22.468 0.048 2.844-0.024 5.102-0.138 6.772-0.056 0.826-0.12 1.464-0.174 1.92-0.054 0.458-0.094 0.676-0.092 0.67l-1.016 5.632zM107 515c0 0 17 21 40 10 21-13.364 18-33 18-33-17-47-39-62-36-156 2.918-33.916 6-47 15-71 6-24 28-57 36.277-70 0 0 4.723-10 3.723-21s-3.723-19.944-3.723-19.944l-51.276 5.944c0 0-3.573 4.128-9.037 12-16.551 23.846-50.453 82.054-54.963 164-6 109 42 179 42 179zM180.277 154.056l-51.276 5.944c0 0-3.573 4.128-9.037 12l-22.963-115c0 0-6-22 13-43s47-12 47-12l117 45c0 0 85-36 171-24 47 4 108 24 140 46 21 14.438 16 36 10 43-10 17-29 19-39 13-41-23-89.010-37.316-124-39s-72-3-128 19c-30 10-44 4-44 4l-95-35 15.277 80.056z" />
<glyph unicode="&#xe90c;" glyph-name="checkbox-outline" d="M724.582 632.502c13.532-11.366 15.288-31.552 3.92-45.084l-268.8-320c-5.956-7.092-14.694-11.254-23.956-11.414-9.26-0.158-18.136 3.704-24.332 10.59l-115.2 128c-11.822 13.136-10.756 33.368 2.38 45.192 13.136 11.822 33.368 10.758 45.192-2.378l90.582-100.648 245.13 291.822c11.366 13.532 31.552 15.288 45.084 3.92zM224 800c-35.346 0-64-28.654-64-64v-576c0-35.346 28.654-64 64-64h576c35.346 0 64 28.654 64 64v576c0 35.346-28.654 64-64 64h-576zM96 736c0 70.692 57.308 128 128 128h576c70.692 0 128-57.308 128-128v-576c0-70.692-57.308-128-128-128h-576c-70.692 0-128 57.308-128 128v576z" />
<glyph unicode="&#xe90d;" glyph-name="checkmark-circle-outline" d="M96 448c0 229.674 186.326 416 416 416s416-186.326 416-416c0-229.674-186.326-416-416-416s-416 186.326-416 416zM512 800c-194.326 0-352-157.674-352-352s157.674-352 352-352c194.326 0 352 157.674 352 352s-157.674 352-352 352zM724.582 632.502c13.532-11.366 15.288-31.552 3.92-45.084l-268.8-320c-5.956-7.092-14.694-11.256-23.956-11.414-9.26-0.158-18.136 3.704-24.332 10.59l-115.2 128c-11.822 13.136-10.756 33.368 2.38 45.192 13.136 11.822 33.368 10.758 45.192-2.38l90.582-100.646 245.13 291.822c11.366 13.532 31.552 15.288 45.084 3.92z" />
<glyph unicode="&#xe90e;" glyph-name="chevron-back-circle-outline" d="M96 448c0 229.674 186.326 416 416 416s416-186.326 416-416c0-229.674-186.326-416-416-416s-416 186.326-416 416zM512 800c-194.326 0-352-157.674-352-352s157.674-352 352-352c194.326 0 352 157.674 352 352s-157.674 352-352 352zM614.628 662.628c12.496-12.498 12.496-32.758 0-45.256l-169.374-169.372 169.374-169.372c12.496-12.498 12.496-32.758 0-45.256-12.498-12.496-32.758-12.496-45.256 0l-192 192c-12.496 12.498-12.496 32.758 0 45.256l192 192c12.498 12.496 32.758 12.496 45.256 0z" />
<glyph unicode="&#xe90f;" glyph-name="chevron-down-circle-outline" d="M96 448c0 229.674 186.326 416 416 416s416-186.326 416-416c0-229.674-186.326-416-416-416s-416 186.326-416 416zM512 800c-194.326 0-352-157.674-352-352s157.674-352 352-352c194.326 0 352 157.674 352 352s-157.674 352-352 352zM297.372 550.628c12.498 12.496 32.758 12.496 45.256 0l169.372-169.374 169.372 169.374c12.498 12.496 32.758 12.496 45.256 0 12.496-12.498 12.496-32.758 0-45.256l-192-192c-12.498-12.496-32.758-12.496-45.256 0l-192 192c-12.496 12.498-12.496 32.758 0 45.256z" />
<glyph unicode="&#xe910;" glyph-name="chevron-forward-circle-outline" d="M96 448c0 229.674 186.326 416 416 416s416-186.326 416-416c0-229.674-186.326-416-416-416s-416 186.326-416 416zM512 800c-194.326 0-352-157.674-352-352s157.674-352 352-352c194.326 0 352 157.674 352 352s-157.674 352-352 352zM409.372 662.628c12.498 12.496 32.758 12.496 45.256 0l192-192c12.496-12.498 12.496-32.758 0-45.256l-192-192c-12.498-12.496-32.758-12.496-45.256 0-12.496 12.498-12.496 32.758 0 45.256l169.374 169.372-169.374 169.372c-12.496 12.498-12.496 32.758 0 45.256z" />
<glyph unicode="&#xe911;" glyph-name="chevron-up-circle-outline" d="M489.372 582.628c12.498 12.496 32.758 12.496 45.256 0l192-192c12.496-12.498 12.496-32.758 0-45.256-12.498-12.496-32.758-12.496-45.256 0l-169.372 169.374-169.372-169.374c-12.498-12.496-32.758-12.496-45.256 0-12.496 12.498-12.496 32.758 0 45.256l192 192zM96 448c0 229.674 186.326 416 416 416s416-186.326 416-416c0-229.674-186.326-416-416-416s-416 186.326-416 416zM512 800c-194.326 0-352-157.674-352-352s157.674-352 352-352c194.326 0 352 157.674 352 352s-157.674 352-352 352z" />
<glyph unicode="&#xe912;" glyph-name="clipboard-outline" d="M288 800c-16.974 0-33.252-6.743-45.254-18.745-12.004-12.002-18.746-28.281-18.746-45.255v-640c0-16.974 6.742-33.252 18.746-45.254 12.002-12.004 28.28-18.746 45.254-18.746h448c16.974 0 33.252 6.742 45.254 18.746 12.004 12.002 18.746 28.28 18.746 45.254v640c0 16.974-6.742 33.253-18.746 45.255-12.002 12.002-28.28 18.745-45.254 18.745h-64v64h64c33.948 0 66.506-13.486 90.51-37.49s37.49-56.562 37.49-90.51v-640c0-33.948-13.486-66.506-37.49-90.51s-56.562-37.49-90.51-37.49h-448c-33.948 0-66.506 13.486-90.51 37.49-24.005 24.004-37.49 56.562-37.49 90.51v640c0 33.948 13.486 66.505 37.49 90.51s56.562 37.49 90.51 37.49h64v-64h-64zM404.26 864c-11.19 0-20.26-9.071-20.26-20.26v-23.48c0-11.189 9.070-20.26 20.26-20.26h215.48c11.19 0 20.26 9.071 20.26 20.26v23.48c0 11.189-9.070 20.26-20.26 20.26h-215.48zM320 843.74c0 46.536 37.724 84.26 84.26 84.26h215.48c46.536 0 84.26-37.724 84.26-84.26v-23.48c0-46.536-37.724-84.26-84.26-84.26h-215.48c-46.536 0-84.26 37.724-84.26 84.26v23.48z" />
<glyph unicode="&#xe913;" glyph-name="close-circle-outline" d="M96 448c0 229.674 186.326 416 416 416s416-186.326 416-416c0-229.674-186.326-416-416-416s-416 186.326-416 416zM512 800c-194.326 0-352-157.674-352-352s157.674-352 352-352c194.326 0 352 157.674 352 352s-157.674 352-352 352zM361.372 598.628c12.498 12.496 32.758 12.496 45.256 0l256-256c12.496-12.498 12.496-32.758 0-45.256-12.498-12.496-32.758-12.496-45.256 0l-256 256c-12.496 12.498-12.496 32.758 0 45.256zM662.628 598.628c12.496-12.498 12.496-32.758 0-45.256l-256-256c-12.498-12.496-32.758-12.496-45.256 0-12.496 12.498-12.496 32.758 0 45.256l256 256c12.498 12.496 32.758 12.496 45.256 0z" />
<glyph unicode="&#xe914;" glyph-name="close-outline" d="M265.372 694.628c12.498 12.496 32.758 12.496 45.256 0l448-448c12.496-12.498 12.496-32.758 0-45.256-12.498-12.496-32.758-12.496-45.256 0l-448 448c-12.496 12.498-12.496 32.758 0 45.256zM758.628 694.628c12.496-12.498 12.496-32.758 0-45.256l-448-448c-12.498-12.496-32.758-12.496-45.256 0-12.496 12.498-12.496 32.758 0 45.256l448 448c12.498 12.496 32.758 12.496 45.256 0z" />
<glyph unicode="&#xe915;" glyph-name="discount" d="M544.619 312.616c-12.205 7.627-15.915 23.701-8.291 35.905l138.076 220.968c7.627 12.204 23.701 15.915 35.905 8.289s15.915-23.701 8.288-35.904l-138.076-220.967c-7.624-12.205-23.701-15.915-35.903-8.291zM717.368 349.839c-11.512 0-20.845 9.331-20.845 20.845 0 11.512 9.333 20.845 20.845 20.845s20.845-9.333 20.845-20.845c0-11.514-9.333-20.845-20.845-20.845zM717.368 318.572c28.781 0 52.112 23.331 52.112 52.112 0 28.779-23.331 52.112-52.112 52.112s-52.112-23.333-52.112-52.112c0-28.781 23.331-52.112 52.112-52.112zM542.793 508.78c-11.512 0-20.845 9.332-20.845 20.845s9.333 20.845 20.845 20.845c11.512 0 20.845-9.332 20.845-20.845s-9.333-20.845-20.845-20.845zM542.793 477.513c28.781 0 52.112 23.331 52.112 52.112s-23.331 52.112-52.112 52.112c-28.781 0-52.112-23.331-52.112-52.112s23.331-52.112 52.112-52.112zM924.599 189.191h-676.794c-18.448 0.063-36.121 7.423-49.161 20.47-0.007 0.008-0.015 0.016-0.022 0.023l-169.143 169.142c-0.005 0.005-0.010 0.010-0.015 0.016-9.095 9.073-16.307 19.855-21.222 31.726-4.917 11.876-7.437 24.607-7.415 37.463s2.587 25.578 7.545 37.437c4.945 11.827 12.173 22.562 21.271 31.591 0.025 0.025 0.051 0.050 0.076 0.075l169.178 169.178c0.007 0.007 0.014 0.014 0.021 0.022 13.040 13.048 30.713 20.407 49.161 20.471h676.518c25.874-0.063 50.666-10.369 68.96-28.663s28.599-43.088 28.664-68.959v-322.371c-0.063-25.871-10.37-50.666-28.664-68.96s-43.086-28.599-68.96-28.662zM924.43 272.57c3.817 0.018 7.473 1.543 10.172 4.242s4.224 6.355 4.242 10.17v322.031c-0.018 3.816-1.543 7.472-4.242 10.172s-6.355 4.224-10.172 4.242c-0.010 0-0.023 0-0.034 0h-670.468l-165.538-165.537c-1.322-1.309-2.372-2.867-3.090-4.584s-1.089-3.559-1.092-5.42c-0.003-1.86 0.361-3.705 1.073-5.422 0.712-1.72 1.757-3.283 3.074-4.596l165.298-165.297h670.777zM257.624 268.599v0zM236.405 504.927c11.641 0 23.020-3.452 32.698-9.919 9.68-6.467 17.223-15.659 21.676-26.414 4.456-10.754 5.62-22.588 3.351-34.006-2.272-11.415-7.877-21.903-16.108-30.134s-18.718-13.838-30.135-16.108c-11.417-2.272-23.251-1.105-34.005 3.348-10.755 4.456-19.947 11.999-26.414 21.679-6.467 9.677-9.919 21.056-9.919 32.698 0 15.609 6.201 30.58 17.238 41.617s26.008 17.238 41.617 17.238z" />
<glyph unicode="&#xe916;" glyph-name="discount-circle" d="M375.781 224.714c-18.447 11.527-24.054 35.825-12.529 54.272l234.796 375.749c11.525 18.447 35.823 24.057 54.27 12.532 18.447-11.527 24.057-35.825 12.529-54.272l-234.794-375.751c-11.527-18.444-35.825-24.054-54.272-12.529zM632.615 270.767c-13.595 0-24.615 11.020-24.615 24.615s11.020 24.615 24.615 24.615c13.595 0 24.615-11.020 24.615-24.615s-11.020-24.615-24.615-24.615zM632.615 221.536c40.785 0 73.846 33.063 73.846 73.846 0 40.785-33.061 73.846-73.846 73.846s-73.846-33.061-73.846-73.846c0-40.783 33.061-73.846 73.846-73.846zM396.308 573.536c-13.595 0-24.615 11.020-24.615 24.615s11.020 24.615 24.615 24.615c13.595 0 24.615-11.020 24.615-24.615s-11.020-24.615-24.615-24.615zM396.308 524.305c40.785 0 73.846 33.063 73.846 73.846 0 40.785-33.061 73.846-73.846 73.846s-73.846-33.061-73.846-73.846c0-40.783 33.061-73.846 73.846-73.846zM0 447.998c0 282.675 229.325 512.001 512 512.001s512-229.325 512-512.001c0-282.673-229.324-512-512-512s-512 229.327-512 512zM512 881.229c-239.17 0-433.231-194.059-433.231-433.232 0-239.17 194.060-433.231 433.231-433.231s433.231 194.060 433.231 433.231c0 239.173-194.060 433.232-433.231 433.232z" />
<glyph unicode="&#xe917;" glyph-name="down-outline" d="M297.372 550.628c12.498 12.496 32.758 12.496 45.256 0l169.372-169.374 169.372 169.374c12.498 12.496 32.758 12.496 45.256 0 12.496-12.498 12.496-32.758 0-45.256l-192-192c-12.498-12.496-32.758-12.496-45.256 0l-192 192c-12.496 12.498-12.496 32.758 0 45.256z" />
<glyph unicode="&#xe918;" glyph-name="fast-food-outline" d="M156 160c17.673 0 32-14.326 32-32 0-29.388 8.595-53.738 22.144-70.114 13.040-15.764 31.976-25.886 57.856-25.886h264c25.88 0 44.816 10.122 57.856 25.886 13.548 16.376 22.144 40.726 22.144 70.114 0 17.674 14.326 32 32 32s32-14.326 32-32c0-41.312-12.054-80.962-36.832-110.91-25.284-30.562-62.348-49.090-107.168-49.090h-264c-44.82 0-81.885 18.528-107.168 49.090-24.777 29.948-36.832 69.598-36.832 110.91 0 17.674 14.327 32 32 32zM128 256c-11.374 0-32-14.462-32-48s20.626-48 32-48h544c11.374 0 32 14.462 32 48s-20.626 48-32 48c-17.674 0-32 14.326-32 32s14.326 32 32 32c59.306 0 96-57.178 96-112s-36.694-112-96-112h-544c-59.306 0-96 57.178-96 112s36.694 112 96 112c17.673 0 32-14.326 32-32s-14.327-32-32-32zM112 352c-4.243 0-8.313-1.686-11.314-4.686s-4.686-7.070-4.686-11.314c0-4.244 1.686-8.314 4.686-11.314s7.070-4.686 11.314-4.686h105.394c12.714-0.006 24.906-5.056 33.9-14.040l36.706-36.706 36.706 36.706c8.994 8.984 21.186 14.034 33.9 14.040h329.394c4.244 0 8.314 1.686 11.314 4.686s4.686 7.070 4.686 11.314c0 4.244-1.686 8.314-4.686 11.314s-7.070 4.686-11.314 4.686h-576zM55.431 392.568c15.003 15.004 35.351 23.432 56.569 23.432h576c21.218 0 41.566-8.428 56.568-23.432 15.004-15.002 23.432-35.35 23.432-56.568s-8.428-41.566-23.432-56.568c-15.002-15.004-35.35-23.432-56.568-23.432h-322.746l-48.954-48.954c-0.004-0.006-0.008-0.010-0.012-0.014-3.714-3.712-8.12-6.658-12.97-8.67-4.856-2.012-10.062-3.048-15.318-3.048s-10.462 1.036-15.318 3.048c-4.85 2.012-9.256 4.958-12.97 8.67-0.004 0.004-0.008 0.008-0.012 0.014l-48.954 48.954h-98.746c-21.217 0-41.566 8.428-56.569 23.432-15.003 15.002-23.431 35.35-23.431 56.568s8.429 41.566 23.431 56.568zM206.372 508.192c-28.353-22.010-46.372-54.526-46.372-99.752v-0.44c0-17.674-14.327-32-32-32s-32 14.326-32 32v0.44c0 64.774 26.981 116.038 71.128 150.308 43.228 33.558 100.714 49.252 160.872 49.252h144c60.21 0 117.704-15.83 160.92-49.51 43.952-34.252 70.884-85.358 71.078-149.786 0.002-0.088 0.002-0.176 0.002-0.264 0-0.146 0-0.294 0-0.44h-64c0 45.24-18.032 77.886-46.42 100.010-29.284 22.82-71.79 35.99-121.58 35.99h-144c-49.842 0-92.356-13.086-121.628-35.808zM478.304 767.786c17.554 2.042 33.44-10.534 35.482-28.090l14.88-127.94c2.042-17.554-10.534-33.44-28.090-35.482-17.554-2.042-33.44 10.534-35.482 28.090l-14.88 127.94c-2.042 17.554 10.534 33.44 28.090 35.482zM929.364 767.823c17.576-1.858 30.316-17.613 28.458-35.187l-71.514-676.344c-1.928-23.948-12.768-46.312-30.39-62.662-17.754-16.474-41.078-25.63-65.298-25.63h-278.62c-17.674 0-32 14.328-32 32 0 17.674 14.326 32 32 32h278.62c8.072 0 15.848 3.052 21.764 8.544 5.918 5.49 9.542 13.016 10.146 21.066l0.036 0.488 71.612 677.268c1.858 17.574 17.612 30.315 35.186 28.457zM892.292 906.313c5.696-16.73-3.25-34.91-19.98-40.605l-77.496-26.382-27.772-111.088c-4.286-17.144-21.66-27.568-38.806-23.282-17.144 4.286-27.57 21.66-23.282 38.806l32 127.999c2.636 10.544 10.442 19.029 20.732 22.532l94 32c16.73 5.695 34.91-3.25 40.604-19.98zM416 736c0 17.674 14.326 32 32 32h512c17.674 0 32-14.326 32-32s-14.326-32-32-32h-512c-17.674 0-32 14.326-32 32z" />
<glyph unicode="&#xe919;" glyph-name="features-delivery" d="M570.416 198.301l-127.668 46.2c-4.545 1.63-9.554 1.394-13.924-0.66-4.37-2.056-7.748-5.761-9.392-10.301s-1.418-9.548 0.625-13.924c2.043-4.378 5.74-7.764 10.275-9.418l127.652-46.202c2.253-0.817 4.644-1.181 7.035-1.072 2.394 0.106 4.742 0.686 6.913 1.7 2.17 1.016 4.12 2.45 5.734 4.218 1.617 1.769 2.867 3.838 3.684 6.091s1.181 4.644 1.075 7.038c-0.109 2.391-0.686 4.74-1.702 6.91s-2.447 4.12-4.216 5.734c-1.769 1.617-3.838 2.87-6.091 3.686zM570.397 253.746l-127.649 46.181c-4.535 1.591-9.517 1.325-13.857-0.737s-7.695-5.756-9.328-10.275c-1.633-4.522-1.418-9.503 0.604-13.865s5.681-7.748 10.184-9.426l127.652-46.184c1.984-0.723 4.083-1.090 6.197-1.085 4.29 0 8.445 1.513 11.729 4.274s5.492 6.591 6.232 10.817c0.739 4.226-0.035 8.578-2.184 12.291-2.152 3.713-5.546 6.548-9.58 8.006v0.003zM1005.579 728.555l-0.383 0.167-380.33 83.621c-2.567 0.54-5.216 0.546-7.782 0.018l-383.006-83.158c-2.324-0.549-4.516-1.555-6.447-2.959-0.196-0.136-0.45-0.14-0.641-0.283-0.345-0.258-0.481-0.684-0.802-0.964-1.491-1.286-2.761-2.808-3.757-4.506-0.35-0.527-0.671-1.072-0.962-1.634-1.031-2.148-1.624-4.479-1.746-6.858l0.047-0.349-0.063-0.276v-471.291c0.001-3.748 1.157-7.407 3.312-10.477s5.202-5.399 8.728-6.673l383.002-138.604c1.987-0.718 4.085-1.088 6.2-1.085 2.112-0.005 4.21 0.362 6.197 1.085l383.003 138.604c3.527 1.274 6.575 3.604 8.729 6.673s3.309 6.729 3.311 10.477v470.562c-0.024 4.523-1.745 8.872-4.819 12.189s-7.282 5.358-11.791 5.722zM336.279 663.866v-24.859l-80.096 28.548v19.543l80.096-23.232zM256.183 628.813l80.096-28.548v-16.702l-80.096 28.548v16.702zM372.755 664.646l368.526 84.759 60.445-13.289-302.335-86.1c-0.372-0.107-0.628-0.383-0.987-0.511-1.186-0.457-2.319-1.041-3.378-1.743-2.053-1.018-3.779-2.588-4.99-4.533-1.516-1.686-2.532-3.76-2.934-5.991-0.38-1.198-0.63-2.433-0.745-3.684-0.024-0.378-0.218-0.699-0.218-1.084v-201.708l-42.229 54.91c-2.463 3.197-5.915 5.487-9.817 6.516-3.902 1.027-8.035 0.734-11.753-0.832l-49.586-20.964v194.253zM927.467 708.467l-306.503-88.991-47.421 13.73 303.338 86.385 50.586-11.123zM639.186 586.792l346.524 100.613v-22.713l-346.524-124.91v47.010zM602.708 586.77v-42.767l-70.653 25.187c-3.045 1.007-6.309 1.172-9.439 0.476v40.295l80.093-23.192zM522.615 533.811l80.093-28.555v-16.698l-70.653 25.188c-3.048 0.995-6.309 1.152-9.439 0.46v19.605zM639.186 501.019l346.524 124.912v-16.891l-346.524-124.698v16.677zM620.93 775.867l37.138-8.166-306.123-70.405-39.766 11.532 308.751 67.040zM256.183 252.871v320.497l80.096-28.548v-101.924c0-3.011 0.747-5.974 2.173-8.626 1.423-2.652 3.482-4.91 5.992-6.572 2.508-1.665 5.391-2.681 8.389-2.958 2.998-0.279 6.016 0.189 8.79 1.359l61.945 26.182 66.345-86.258c2.322-3.019 5.532-5.234 9.176-6.338 3.647-1.101 7.546-1.035 11.152 0.189 3.607 1.226 6.737 3.551 8.958 6.647 2.218 3.096 3.412 6.806 3.415 10.615v101.232l80.093-28.558v-322.326l-346.525 125.385zM639.186 127.475v318.081l346.524 124.697v-317.382l-346.524-125.396zM916.374 404.779c-1.133 0.67-2.343 1.21-3.599 1.606-0.418 0.178-0.614 0.63-1.048 0.779-0.247 0.085-0.492-0.056-0.739 0.016-3.112 0.942-6.421 1.011-9.57 0.202-0.66-0.202-1.306-0.447-1.936-0.731-2.825-1.035-5.343-2.766-7.32-5.035-0.207-0.245-0.559-0.269-0.758-0.524l-42.566-54.854c-2.875-3.721-4.189-8.413-3.668-13.086-0.535 0.665-1.12 1.287-1.747 1.864l-41.409 29.422c-1.144 0.681-2.359 1.226-3.628 1.625-0.404 0.173-0.601 0.617-1.021 0.761-0.237 0.080-0.471-0.056-0.705 0.013-3.165 0.971-6.538 1.035-9.737 0.181-0.553-0.176-1.098-0.383-1.63-0.617-2.944-1.037-5.562-2.835-7.586-5.21-0.181-0.215-0.489-0.234-0.665-0.457l-42.551-54.876c-1.489-1.891-2.591-4.056-3.24-6.375-0.649-2.317-0.83-4.74-0.537-7.128s1.053-4.697 2.242-6.79c1.189-2.091 2.782-3.928 4.684-5.402s4.077-2.559 6.399-3.186c2.325-0.63 4.748-0.793 7.136-0.481 2.386 0.314 4.686 1.096 6.769 2.301 2.083 1.208 3.904 2.814 5.365 4.729l9.902 12.751v-58.762l-16.243-5.782c-4.559-1.622-8.288-4.987-10.365-9.354-2.077-4.37-2.333-9.386-0.713-13.942 1.62-4.559 4.984-8.288 9.354-10.365s9.384-2.335 13.942-0.713l112.587 40.066c0.628 0.074 1.25 0.184 1.864 0.33l56.746 20.533c0.854 0.428 1.673 0.928 2.444 1.489 1.322 0.606 2.567 1.367 3.713 2.263 0.644 0.737 1.223 1.524 1.739 2.357 0.915 1 1.718 2.099 2.388 3.274 0.362 1.027 0.633 2.083 0.811 3.154 0.428 1.168 0.734 2.38 0.912 3.612-0.061 1.083-0.213 2.157-0.46 3.21-0.037 1.319-0.223 2.628-0.559 3.904l-0.027 0.048-0.008 0.040c-0.561 1.221-1.261 2.375-2.088 3.436-0.473 0.95-1.027 1.856-1.652 2.713-0.899 0.814-1.875 1.535-2.918 2.152-0.854 0.75-1.771 1.418-2.745 2-0.463 0.215-1 0.202-1.479 0.378-1.697 0.713-3.492 1.165-5.325 1.335l-0.343-0.051c-2.277 0.106-4.556-0.223-6.711-0.973l-4.024-1.431v63.379l12.591-8.947c3.944-2.801 8.838-3.92 13.61-3.112 4.769 0.809 9.022 3.479 11.823 7.423s3.92 8.838 3.112 13.61c-0.806 4.769-3.476 9.022-7.421 11.823l-41.396 29.406zM809.689 250.493v63.738l12.61-8.961c2.846-2.067 6.232-3.258 9.745-3.426 3.514-0.17 7 0.694 10.030 2.479 3.029 1.787 5.471 4.42 7.024 7.578 1.551 3.157 2.149 6.697 1.716 10.187 0.388-0.505 0.803-0.987 1.247-1.447 1.888-1.476 4.051-2.567 6.362-3.205s4.726-0.814 7.104-0.513c2.38 0.301 4.676 1.067 6.758 2.258 2.080 1.192 3.904 2.785 5.367 4.684l9.923 12.788v-58.44l-77.888-27.72zM164.99 703.342h-36.476c-4.837 0-9.476-1.922-12.897-5.342s-5.342-8.059-5.342-12.897c0-4.837 1.922-9.476 5.342-12.896s8.060-5.342 12.897-5.342h36.476c4.837 0 9.476 1.921 12.896 5.342s5.342 8.059 5.342 12.896c0 4.837-1.921 9.476-5.342 12.897s-8.059 5.342-12.896 5.342zM164.991 593.912h-72.953c-4.837 0-9.476-1.921-12.896-5.342s-5.342-8.059-5.342-12.896c0-4.837 1.921-9.476 5.342-12.897s8.059-5.342 12.896-5.342h72.953c4.837 0 9.476 1.922 12.896 5.342s5.342 8.059 5.342 12.897c0 4.837-1.921 9.476-5.342 12.896s-8.059 5.342-12.896 5.342zM164.99 484.484h-109.429c-4.837 0-9.476-1.923-12.897-5.343s-5.342-8.059-5.342-12.894c0-4.838 1.922-9.477 5.342-12.897s8.059-5.341 12.897-5.341h109.429c4.837 0 9.476 1.92 12.897 5.341s5.342 8.059 5.342 12.897c0 4.835-1.922 9.474-5.342 12.894s-8.059 5.343-12.897 5.343zM164.991 375.054h-145.906c-4.837 0-9.476-1.92-12.896-5.341s-5.342-8.062-5.342-12.897c0-4.838 1.922-9.477 5.342-12.897s8.059-5.341 12.896-5.341h145.906c4.837 0 9.476 1.92 12.897 5.341s5.342 8.059 5.342 12.897c0 4.835-1.922 9.477-5.342 12.897s-8.059 5.341-12.897 5.341zM164.991 265.624h-145.906c-4.837 0-9.476-1.92-12.896-5.341s-5.342-8.059-5.342-12.897c0-4.838 1.922-9.477 5.342-12.897s8.059-5.341 12.896-5.341h145.906c4.837 0 9.476 1.92 12.897 5.341s5.342 8.059 5.342 12.897c0 4.838-1.922 9.477-5.342 12.897s-8.059 5.341-12.897 5.341z" />
<glyph unicode="&#xe91a;" glyph-name="features-guarantee" d="M826.881 318.021c13.025 5.008 24.108 14.046 31.63 25.797 11.729 20.262 6.426 45.269 1.747 67.329-3.952 13.142-5.202 26.948-3.673 40.59 5.359 11.998 13.065 22.802 22.666 31.776 15.419 17.049 32.946 36.372 32.946 60.687s-17.477 43.622-32.946 60.687c-9.604 8.971-17.312 19.778-22.666 31.779-1.529 13.634-0.279 27.435 3.673 40.574 4.678 22.057 9.982 47.063-1.747 67.342-11.894 20.559-36.422 28.482-58.051 35.467-13.131 3.063-25.512 8.739-36.407 16.687-7.945 10.887-13.615 23.263-16.671 36.39-6.984 21.646-14.908 46.125-35.484 58.069-20.262 11.729-45.269 6.441-67.326 1.746-13.142-3.96-26.951-5.21-40.59-3.674-11.998 5.36-22.805 13.067-31.776 22.667-17.052 15.419-36.375 32.947-60.69 32.947-24.313 0-43.62-17.478-60.687-32.947-8.971-9.604-19.775-17.312-31.776-22.667-13.634-1.531-27.438-0.281-40.574 3.674-22.057 4.695-47.048 9.983-67.342-1.746-20.56-11.894-28.483-36.423-35.468-58.052-3.064-13.132-8.74-25.514-16.688-36.406-10.887-7.945-23.263-13.615-36.39-16.671-21.646-6.985-46.125-14.826-58.069-35.484-11.729-20.262-6.425-45.269-1.746-67.326 3.953-13.144 5.202-26.951 3.674-40.59-5.359-12.001-13.067-22.805-22.667-31.779-15.419-17.049-32.947-36.372-32.947-60.687s17.478-43.62 32.947-60.687c9.604-8.971 17.312-19.775 22.667-31.776 1.528-13.634 0.278-27.438-3.674-40.574-4.678-22.060-9.983-47.064 1.746-67.345 7.531-11.743 18.611-20.781 31.629-25.797l-190.481-190.48c-2.303-2.303-3.871-5.24-4.507-8.434-0.635-3.197-0.309-6.508 0.937-9.517 1.247-3.011 3.357-5.583 6.066-7.394 2.708-1.809 5.893-2.777 9.15-2.777h148.26v-131.787c0.001-3.256 0.967-6.439 2.777-9.15 1.81-2.708 4.383-4.819 7.392-6.064 3.010-1.247 6.321-1.575 9.517-0.939s6.13 2.205 8.434 4.508l237.101 237.049c7.035-5.093 13.743-10.628 20.081-16.57 17.049-15.421 36.372-32.949 60.687-32.949s43.622 17.48 60.687 32.949c6.306 5.939 12.98 11.474 19.983 16.57l237.052-237.049c2.301-2.322 5.24-3.904 8.442-4.551 3.205-0.644 6.527-0.322 9.548 0.926 3.019 1.25 5.599 3.367 7.413 6.088 1.811 2.718 2.774 5.915 2.766 9.181v131.787h148.259c3.258 0 6.442 0.968 9.15 2.777 2.71 1.811 4.819 4.383 6.067 7.394 1.247 3.008 1.572 6.32 0.936 9.517-0.633 3.194-2.202 6.131-4.506 8.434l-190.483 190.48zM182.050 132.366h-124.967l173.382 173.383c10.373-2.684 20.081-7.479 28.515-14.086 7.946-10.886 13.616-23.262 16.672-36.388 6.984-21.648 14.908-46.125 35.484-58.070 20.262-11.711 45.25-6.423 67.326-1.745 3.394 0.707 6.82 1.418 10.197 2.075l-190.137-190.134v108.493c0 4.367-1.735 8.559-4.825 11.647-3.090 3.091-7.279 4.825-11.649 4.825zM550.098 200.897c-13.179-11.977-26.951-24.382-38.582-24.382-11.628 0-25.334 12.405-38.595 24.382-12.597 13.421-28.145 23.72-45.418 30.079-5.756 1.479-11.682 2.2-17.626 2.141-12.913-0.495-25.744-2.317-38.284-5.437-14.142-5.035-29.467-5.718-44-1.96-9.62 5.569-15.222 22.916-20.642 39.686-4.269 18.214-12.73 35.18-24.709 49.551-14.373 11.985-31.347 20.445-49.569 24.712-16.77 5.434-34.116 11.035-39.668 20.64-3.769 14.533-3.086 29.861 1.96 44 5.419 18.129 6.547 37.271 3.295 55.91-6.366 17.259-16.665 32.797-30.080 45.386-11.976 13.176-24.381 26.948-24.381 38.58s12.404 25.337 24.381 38.598c13.435 12.594 23.746 28.151 30.113 45.431 3.252 18.642 2.125 37.782-3.295 55.912-5.037 14.141-5.72 29.468-1.96 44 5.568 9.621 22.914 15.221 39.684 20.641 18.215 4.27 35.18 12.731 49.551 24.71 11.985 14.373 20.445 31.347 24.712 49.568 5.437 16.77 11.035 34.116 20.64 39.668 14.533 3.769 29.861 3.086 44-1.96 18.131-5.418 37.271-6.546 55.91-3.295 17.262 6.355 32.808 16.642 45.402 30.047 13.179 11.976 26.951 24.381 38.58 24.381 11.631 0 25.337-12.404 38.598-24.381 12.594-13.421 28.145-23.72 45.418-30.080 18.639-3.243 37.779-2.115 55.91 3.295 14.139 5.046 29.467 5.729 44 1.96 9.62-5.568 15.222-22.914 20.64-39.684 4.272-18.214 12.732-35.181 24.712-49.552 14.373-11.984 31.345-20.446 49.567-24.71 16.77-5.436 34.116-11.037 39.667-20.641 3.769-14.532 3.088-29.861-1.96-44-5.418-18.129-6.546-37.271-3.293-55.911 6.365-17.259 16.663-32.797 30.079-45.383 11.977-13.179 24.382-26.951 24.382-38.582 0-11.628-12.405-25.334-24.382-38.595-13.434-12.597-23.746-28.153-30.114-45.434-3.253-18.639-2.122-37.782 3.295-55.91 5.038-14.142 5.721-29.467 1.96-44-5.567-9.62-22.914-15.222-39.683-20.642-18.217-4.269-35.183-12.73-49.554-24.709-11.982-14.373-20.445-31.348-24.709-49.57-5.437-16.77-11.038-34.116-20.642-39.667-14.533-3.758-29.858-3.077-44 1.96-18.129 5.418-37.268 6.546-55.91 3.295-17.262-6.354-32.805-16.642-45.399-30.047zM840.983 132.366c-4.367 0-8.559-1.734-11.647-4.825-3.091-3.088-4.825-7.28-4.825-11.647v-108.493l-190.137 190.134c3.295-0.657 6.788-1.367 10.181-2.075 22.057-4.694 47.064-9.982 67.342 1.745 20.56 11.894 28.483 36.422 35.468 58.054 3.064 13.131 8.74 25.512 16.687 36.404 8.437 6.612 18.153 11.402 28.531 14.070l173.367-173.367h-124.968zM808.037 544.2c0 58.647-17.392 115.975-49.974 164.738s-78.891 86.768-133.072 109.211c-54.184 22.443-113.802 28.315-171.322 16.874s-110.355-39.682-151.823-81.151c-41.471-41.469-69.712-94.303-81.153-151.822s-5.569-117.14 16.874-171.322c22.443-54.182 60.45-100.493 109.213-133.075 48.761-32.582 106.092-49.971 164.736-49.971 78.614 0.090 153.983 31.361 209.572 86.95s86.856 130.955 86.95 209.569zM511.516 280.628c-52.128 0-103.089 15.458-146.432 44.42-43.346 28.962-77.127 70.127-97.078 118.287-19.95 48.163-25.17 101.158-15 152.286s35.275 98.093 72.136 134.954c36.861 36.861 83.824 61.964 134.953 72.134s104.124 4.95 152.286-14.999c48.163-19.949 89.327-53.732 118.289-97.077s44.42-94.303 44.42-146.434c-0.085-69.879-27.879-136.87-77.292-186.283-49.41-49.413-116.404-77.207-186.283-77.289zM511.516 774.828c-45.612 0-90.202-13.526-128.128-38.868-37.928-25.341-67.488-61.361-84.944-103.502s-22.023-88.513-13.123-133.25c8.899-44.737 30.864-85.832 63.118-118.084 32.252-32.255 73.348-54.219 118.084-63.118s91.109-4.333 133.25 13.123c42.141 17.456 78.159 47.016 103.501 84.944 25.342 37.925 38.867 82.516 38.867 128.128-0.064 61.147-24.384 119.768-67.621 163.006-43.237 43.237-101.857 67.556-163.005 67.622zM511.516 346.52c-39.098 0-77.316 11.594-109.823 33.316-32.51 21.722-57.847 52.594-72.808 88.716-14.964 36.122-18.879 75.869-11.251 114.215s26.456 73.568 54.102 101.215c27.645 27.646 62.868 46.473 101.216 54.101 38.345 7.628 78.093 3.713 114.212-11.249 36.122-14.962 66.996-40.299 88.718-72.807 21.719-32.507 33.313-70.728 33.313-109.826-0.056-52.41-20.9-102.658-57.961-139.719-37.061-37.058-87.309-57.905-139.719-57.961zM631.656 629.977l-177.796-177.796-62.485 62.483-23.291-23.294 74.13-74.13c3.088-3.088 7.277-4.822 11.647-4.822 4.367 0 8.556 1.734 11.647 4.822l189.443 189.443-23.294 23.294z" />
<glyph unicode="&#xe91b;" glyph-name="features-payment" d="M580.157 959.998h-341.334c-22.623-0.027-44.313-9.026-60.31-25.023s-24.996-37.686-25.023-60.31v-614.401c0.027-22.624 9.026-44.312 25.023-60.309s37.686-24.997 60.31-25.024h153.6v-44.936c0.063-51.432 20.522-100.739 56.889-137.107s85.677-56.827 137.107-56.891h266.805c4.525 0 8.867 1.797 12.067 5 3.2 3.2 5 7.541 5 12.067v435.064c-0.056 42.621-14.555 83.963-41.131 117.283l-163.669 204.595v164.659c-0.029 22.623-9.027 44.313-25.024 60.31s-37.688 24.996-60.309 25.023zM580.157 925.865c13.579 0 26.6-5.394 36.203-14.996s14.997-22.625 14.997-36.204v-447.625l-68.267 72.533v426.291h17.067zM528.957 535.84l-29.203 31.027c-6.341 6.611-13.787 12.069-21.997 16.128v342.87h51.2v-390.025zM187.623 260.264v614.401c0 13.579 5.394 26.602 14.996 36.204s22.625 14.996 36.204 14.996h204.801v-334.201h-0.155c-10.589 0.352-21.133-1.525-30.953-5.504-9.819-3.981-18.693-9.979-26.049-17.603-13.898-14.051-22.055-32.781-22.876-52.525-0.821-19.747 5.754-39.088 18.439-54.245l61.595-72.789v-179.933h-204.801c-13.579 0-26.602 5.395-36.204 14.997-9.602 9.6-14.996 22.624-14.996 36.203zM530.664 209.064h-52.907v139.589l51.2-60.501v-52.736c0.051-8.811 0.621-17.608 1.707-26.352zM802.483 484.077c21.765-27.248 33.637-61.077 33.675-95.949v-417.997h-249.739c-42.381 0.051-83.016 16.909-112.984 46.877-29.971 29.971-46.829 70.603-46.877 112.987v44.936h110.848c9.608-34.552 27.208-66.363 51.379-92.856 24.173-26.496 54.237-46.936 87.765-59.669l11.947 31.984c-36.773 13.931-68.451 38.696-90.843 71.019-22.395 32.325-34.445 70.685-34.563 110.008v58.981c0.003 4.037-1.424 7.941-4.029 11.027l-150.971 178.413c-7.201 8.603-10.935 19.579-10.471 30.787s5.092 21.84 12.98 29.819c4.196 4.32 9.247 7.715 14.83 9.973 5.584 2.256 11.576 3.323 17.597 3.133 5.997-0.067 11.92-1.349 17.408-3.771 5.488-2.419 10.429-5.925 14.523-10.309l229.36-243.712 24.883 23.416-63.709 67.6v264.533l136.992-171.229zM272.956 874.665h-34.133v-221.867h34.133v221.867zM358.29 874.665h-34.133v-136.533h34.133v136.533zM358.29 396.797h-102.4c-4.526 0-8.867-1.797-12.068-4.997-3.201-3.203-4.999-7.541-4.999-12.069v-102.4c0-4.525 1.798-8.867 4.999-12.067 3.201-3.203 7.542-5 12.068-5h102.4c4.526 0 8.867 1.797 12.068 5 3.201 3.2 4.999 7.541 4.999 12.067v102.4c0 4.528-1.798 8.867-4.999 12.069-3.201 3.2-7.542 4.997-12.068 4.997zM341.223 294.397h-68.267v68.267h68.267v-68.267z" />
<glyph unicode="&#xe91c;" glyph-name="features-return" d="M511.516 149.258c2.114 0 4.213 0.375 6.197 1.104l310.027 112.201c3.529 1.266 6.58 3.591 8.735 6.657 2.154 3.069 3.309 6.726 3.306 10.474v380.909c-0.032 4.389-1.662 8.612-4.588 11.884-2.923 3.271-6.942 5.362-11.299 5.878-0.213 0.056-0.37 0.213-0.588 0.261l-307.873 67.677c-2.561 0.57-5.218 0.57-7.782 0l-310.029-67.32c-2.343-0.543-4.551-1.556-6.492-2.976-0.182-0.128-0.418-0.128-0.597-0.263-0.321-0.239-0.448-0.641-0.75-0.899-1.521-1.298-2.813-2.843-3.823-4.569-0.344-0.519-0.661-1.056-0.948-1.606-1.030-2.146-1.624-4.476-1.745-6.854l0.049-0.359-0.064-0.282v-381.479c-0.004-3.748 1.151-7.407 3.306-10.474s5.205-5.391 8.733-6.66l310.028-112.198c1.984-0.734 4.083-1.106 6.197-1.104zM287.183 617.319c1.633-1.356 3.492-2.418 5.49-3.138v-12.049l-72.947 26.020v8.735l67.457-19.568zM219.726 589.445l62.635-22.342c1.614-0.785 3.394-1.173 5.186-1.13 1.795 0.043 3.551 0.516 5.125 1.375v-42.721l-72.947 25.986v38.832zM329.148 619.684l289.398 66.611 25.158-5.53-229.036-65.219c-0.367-0.104-0.617-0.378-0.968-0.5-0.662-0.21-1.311-0.46-1.942-0.747-1.468-0.838-2.87-1.787-4.189-2.846-0.471-0.415-0.923-0.856-1.348-1.319-0.537-0.638-1.027-1.314-1.468-2.021-0.503-0.697-0.955-1.431-1.351-2.194-0.298-0.617-0.556-1.247-0.779-1.894-0.122-0.346-0.388-0.588-0.492-0.944-0.136-0.468-0.019-0.928-0.114-1.396-0.192-0.862-0.317-1.734-0.375-2.615-0.024-0.388-0.223-0.723-0.221-1.12l0.497-141.905-21.834 28.387c-2.468 3.192-5.918 5.479-9.817 6.508s-8.030 0.745-11.751-0.809l-29.369-12.429v141.982zM745.549 658.375l-234.049-67.964-25.797 7.474 233.092 66.374 26.754-5.883zM803.308 625.841l-273.554-98.591v30.457l273.554 79.438v-11.304zM529.754 488.457l273.554 98.591v-38.893l-273.554-98.426v38.728zM493.278 557.701v-27.073l-52.554 18.741c-0.878 0.207-1.769 0.346-2.665 0.41l-0.082 23.943 55.301-16.020zM438.19 511.562l55.089-19.64v-38.84l-52.554 18.741c-0.79 0.181-1.591 0.306-2.399 0.37l-0.136 39.369zM529.754 193.473v217.474l273.554 98.424v-216.889l-273.554-99.009zM511.497 709.829l23.962-5.267-234.334-53.892c-0.84 0.54-1.726 1.003-2.646 1.388l-22.743 6.593 235.762 51.178zM219.726 292.482v219.431l62.635-22.315c1.614-0.787 3.394-1.173 5.186-1.13 1.795 0.043 3.551 0.513 5.125 1.375v-39.641c0-3.011 0.745-5.976 2.168-8.631s3.482-4.913 5.99-6.578c2.511-1.665 5.394-2.684 8.391-2.963 3-0.279 6.022 0.189 8.796 1.359l41.726 17.669 46.125-59.982c1.702-2.218 3.891-4.016 6.399-5.25 2.508-1.237 5.266-1.878 8.062-1.875 2.008-0.003 4 0.335 5.897 0.997 3.612 1.226 6.748 3.559 8.963 6.665s3.396 6.83 3.381 10.647l-0.112 31.664 54.82-19.546v-220.881l-273.552 98.985zM1018.622 366.25l-53.41 72.946c-0.213 0.293-0.582 0.386-0.811 0.66-1.644 2.122-3.75 3.841-6.157 5.024-2.41 1.181-5.059 1.798-7.743 1.795-2.684 0-5.333-0.614-7.74-1.798-2.41-1.181-4.516-2.902-6.157-5.024-0.229-0.274-0.598-0.364-0.814-0.657l-53.41-72.946c-1.426-1.931-2.455-4.125-3.029-6.455-0.577-2.33-0.686-4.753-0.324-7.125 0.364-2.372 1.192-4.649 2.436-6.703 1.247-2.051 2.886-3.835 4.822-5.253 1.939-1.418 4.136-2.436 6.468-3.003 2.333-0.564 4.756-0.662 7.125-0.287 2.372 0.372 4.647 1.21 6.692 2.466s3.825 2.902 5.232 4.846l17.288 23.6c-31.68-331.616-323.962-386.761-453.834-394.538-4.721-0.298-9.142-2.418-12.328-5.913-3.186-3.498-4.889-8.094-4.75-12.823 0.138-4.726 2.109-9.216 5.495-12.519s7.921-5.16 12.652-5.181l1.104 0.035c288.444 17.302 467.904 179.737 489.177 438.184l22.597-30.845c1.407-1.944 3.184-3.591 5.232-4.846 2.045-1.255 4.319-2.093 6.689-2.466 2.372-0.375 4.793-0.277 7.125 0.29 2.335 0.564 4.532 1.583 6.471 3 1.936 1.418 3.575 3.202 4.819 5.256 1.247 2.051 2.075 4.327 2.436 6.703 0.364 2.372 0.255 4.793-0.322 7.123-0.575 2.33-1.606 4.524-3.032 6.455zM111.231 551.254l-17.289-23.6c31.681 331.615 323.964 386.759 453.834 394.536 2.407 0.121 4.764 0.718 6.939 1.755 2.173 1.038 4.12 2.496 5.726 4.29 1.609 1.794 2.843 3.889 3.636 6.164s1.128 4.684 0.984 7.088c-0.144 2.405-0.761 4.757-1.819 6.921s-2.535 4.097-4.343 5.688c-1.809 1.59-3.915 2.806-6.197 3.578s-4.694 1.083-7.099 0.917c-288.443-17.3-467.903-179.736-489.176-438.182l-22.596 30.845c-1.408 1.944-3.186 3.591-5.232 4.846-2.046 1.253-4.32 2.093-6.691 2.466-2.371 0.375-4.793 0.277-7.125-0.29-2.333-0.564-4.531-1.585-6.469-3-1.938-1.418-3.576-3.202-4.822-5.256-1.246-2.051-2.073-4.33-2.436-6.703s-0.253-4.793 0.322-7.123c0.576-2.33 1.606-4.524 3.031-6.455l53.411-72.949c0.229-0.314 0.617-0.439 0.864-0.737 1.238-1.452 2.703-2.7 4.337-3.689 0.569-0.436 1.164-0.838 1.783-1.202 2.394-1.218 5.042-1.851 7.727-1.851s5.333 0.633 7.727 1.851c0.619 0.364 1.214 0.766 1.783 1.202 1.634 0.989 3.098 2.237 4.336 3.692 0.247 0.295 0.635 0.423 0.864 0.737l53.411 72.946c1.426 1.931 2.456 4.125 3.031 6.455s0.685 4.75 0.322 7.123c-0.363 2.375-1.191 4.652-2.436 6.703-1.246 2.053-2.884 3.838-4.822 5.256s-4.136 2.436-6.469 3c-2.333 0.567-4.754 0.665-7.125 0.29-2.371-0.372-4.645-1.21-6.691-2.466s-3.824-2.902-5.232-4.846v0z" />
<glyph unicode="&#xe91d;" glyph-name="features-support" d="M961.371 509.269h-44.925c-1.16 0-2.213 0-3.269 0v143.213c-0.109 81.45-32.488 159.54-90.043 217.174s-135.6 90.118-217.051 90.341h-189.827c-81.451-0.223-159.495-32.707-217.050-90.341s-89.932-135.724-90.043-217.174v-143.531c-1.16 0-2.215 0-3.269 0h-44.925c-11.992-0.027-23.489-4.781-31.998-13.229-8.509-8.451-13.343-19.915-13.454-31.907v-168.733c0.028-12.045 4.826-23.589 13.343-32.109 8.518-8.517 20.063-13.315 32.109-13.341h44.82c1.16 0 2.215 0 3.269 0v-16.768c0.028-12.048 4.826-23.592 13.343-32.109 8.518-8.52 20.063-13.317 32.109-13.344h44.82c12.046 0.027 23.591 4.824 32.109 13.344 8.518 8.517 13.316 20.061 13.343 32.109v269.024c-0.028 12.045-4.825 23.589-13.343 32.109-8.518 8.517-20.063 13.315-32.109 13.341h-44.714c-1.16 0-2.215 0-3.269 0v105.459c0.167 70.218 28.127 137.513 77.769 187.174s116.925 77.649 187.141 77.843h189.827c70.272-0.195 137.603-28.226 187.253-77.955s77.573-117.106 77.656-187.377v-105.459c-1.16 0-2.213 0-3.267 0h-44.925c-12.048-0.029-23.592-4.827-32.109-13.344-8.52-8.517-13.317-20.064-13.344-32.109v-268.392c0.027-12.045 4.824-23.589 13.344-32.109 8.517-8.517 20.061-13.315 32.109-13.341h38.701c-14.659-49.355-63.275-133.301-222.517-162.933-1.792-0.371-3.528-0.973-5.165-1.795v3.269c-0.029 12.048-4.827 23.592-13.344 32.109s-20.064 13.317-32.109 13.344h-125.813c-12.045-0.027-23.589-4.827-32.107-13.344-8.52-8.517-13.317-20.061-13.344-32.109v-44.819c0.027-12.045 4.824-23.592 13.344-32.109 8.517-8.517 20.061-13.315 32.107-13.344h125.813c12.045 0.029 23.592 4.827 32.109 13.344s13.315 20.064 13.344 32.109v3.373c2.795-1.355 5.856-2.075 8.963-2.109 1.299-0.12 2.605-0.12 3.901 0 227.264 42.184 258.48 190.987 262.699 232.011 2.491 5.685 3.784 11.824 3.795 18.032v17.189c1.16 0 2.216 0 3.269 0h44.821c12.008 0 23.533 4.741 32.064 13.195 8.533 8.453 13.381 19.933 13.493 31.941v168.733c-0.029 12.048-4.827 23.592-13.344 32.109s-20.064 13.315-32.109 13.344zM105.893 291.813h-44.925c-0.859 0.027-1.675 0.381-2.282 0.987-0.607 0.608-0.961 1.424-0.987 2.283v168.733c0.026 0.859 0.379 1.675 0.987 2.283s1.424 0.96 2.282 0.987h44.82c0.859-0.027 1.675-0.379 2.282-0.987s0.96-1.424 0.987-2.283v-168.733c-0.025-0.84-0.363-1.643-0.948-2.248s-1.376-0.968-2.216-1.021zM154.615 505.157h44.82c0.859-0.027 1.675-0.381 2.282-0.987 0.607-0.608 0.96-1.424 0.987-2.283v-268.709c-0.026-0.859-0.379-1.675-0.987-2.283-0.607-0.605-1.424-0.96-2.282-0.987h-44.82c-0.859 0.027-1.675 0.381-2.282 0.987-0.607 0.608-0.961 1.424-0.987 2.283v268.709c0.026 0.859 0.379 1.675 0.987 2.283 0.607 0.605 1.424 0.96 2.282 0.987zM591.635-18.339c-0.027-0.859-0.379-1.675-0.987-2.283s-1.424-0.96-2.283-0.987h-125.813c-0.859 0.027-1.675 0.379-2.28 0.987-0.608 0.608-0.963 1.424-0.987 2.283v44.608c0.024 0.859 0.379 1.675 0.987 2.283 0.605 0.608 1.421 0.96 2.28 0.987h125.813c0.859-0.027 1.675-0.379 2.283-0.987s0.96-1.424 0.987-2.283v-44.608zM819.531 233.179v268.709c0.027 0.859 0.379 1.675 0.987 2.283 0.605 0.605 1.424 0.96 2.283 0.987h44.819c0.859-0.027 1.675-0.381 2.283-0.987 0.608-0.608 0.96-1.424 0.987-2.283v-265.755c-1.093-1.803-1.912-3.757-2.427-5.803 0 0-0.525 0-0.843 0h-44.819c-0.795 0.016-1.555 0.309-2.155 0.829-0.597 0.523-0.992 1.237-1.115 2.019zM964.64 295.083c-0.027-0.859-0.379-1.675-0.987-2.283-0.608-0.605-1.424-0.96-2.283-0.987h-44.925c-0.859 0.027-1.675 0.381-2.283 0.987-0.608 0.608-0.96 1.424-0.987 2.283v168.733c0.027 0.859 0.379 1.675 0.987 2.283s1.424 0.96 2.283 0.987h44.821c0.859-0.027 1.675-0.379 2.28-0.987 0.608-0.608 0.963-1.424 0.989-2.283l0.104-168.733z" />
<glyph unicode="&#xe91e;" glyph-name="filter-outline" d="M32 672c0 17.674 14.327 32 32 32h896c17.674 0 32-14.326 32-32s-14.326-32-32-32h-896c-17.673 0-32 14.326-32 32zM192 448c0 17.674 14.326 32 32 32h576c17.674 0 32-14.326 32-32s-14.326-32-32-32h-576c-17.674 0-32 14.326-32 32zM384 224c0 17.674 14.326 32 32 32h192c17.674 0 32-14.326 32-32s-14.326-32-32-32h-192c-17.674 0-32 14.326-32 32z" />
<glyph unicode="&#xe91f;" glyph-name="forward-outline" d="M409.372 662.628c12.498 12.496 32.758 12.496 45.256 0l192-192c12.496-12.498 12.496-32.758 0-45.256l-192-192c-12.498-12.496-32.758-12.496-45.256 0-12.496 12.498-12.496 32.758 0 45.256l169.374 169.372-169.374 169.372c-12.496 12.498-12.496 32.758 0 45.256z" />
<glyph unicode="&#xe920;" glyph-name="funnel-outline" d="M92.127 864h839.923c11.472-0.018 22.696-3.324 32.346-9.526s17.32-15.041 22.102-25.468c4.78-10.428 6.472-22.007 4.872-33.366-1.598-11.357-6.416-22.018-13.888-30.721 0-0.002-0.002-0.003-0.004-0.005l-337.196-392.876c-0.082-0.096-0.166-0.192-0.248-0.286-0.018-0.020-0.030-0.044-0.034-0.070v-291.614c0.026-7.57-1.742-15.040-5.162-21.796-3.442-6.796-8.454-12.674-14.622-17.144s-13.314-7.402-20.844-8.556c-7.518-1.152-15.202-0.498-22.416 1.912-0.010 0.004-0.022 0.006-0.032 0.010l-160.392 53.372c-9.558 3.23-17.852 9.4-23.694 17.628-5.804 8.172-8.894 17.96-8.838 27.982v238.314c-0.002 0.028-0.014 0.054-0.034 0.076-0.048 0.056-0.096 0.112-0.146 0.17l-337.299 392.878c0 0 0 0 0 0-7.484 8.717-12.309 19.4-13.9 30.779s0.119 22.975 4.926 33.41c4.807 10.435 12.509 19.271 22.191 25.457 9.671 6.179 20.912 9.455 32.388 9.439zM100.75 800l331.568-386.204c10.012-11.546 15.574-26.288 15.682-41.572 0-0.074 0-0.15 0-0.224v-227.156l128-42.592v269.748c0 0.048 0 0.098 0 0.146 0 0.064 0.002 0.13 0.002 0.194 0.162 15.278 5.772 29.994 15.818 41.5l331.432 386.16h-822.502z" />
<glyph unicode="&#xe921;" glyph-name="gift-outline" d="M568.894 885.039c26.312 10.899 55.266 13.751 83.198 8.194 27.934-5.556 53.592-19.271 73.732-39.41 20.138-20.139 33.852-45.797 39.41-73.73 5.556-27.933 2.704-56.887-8.196-83.199-10.898-26.314-29.356-48.802-53.036-64.626-23.68-15.822-51.522-24.268-80.002-24.268h-144v144c0 28.48 8.446 56.321 24.268 80.002 15.824 23.681 38.314 42.138 64.626 53.037zM639.608 830.463c-15.52 3.087-31.604 1.503-46.222-4.552s-27.114-16.309-35.904-29.465c-8.79-13.156-13.482-28.623-13.482-44.446v-80h80c15.822 0 31.29 4.692 44.446 13.482s23.41 21.286 29.464 35.904c6.056 14.618 7.64 30.702 4.552 46.221-3.086 15.518-10.706 29.773-21.894 40.961s-25.442 18.808-40.96 21.894zM430.614 825.91c14.618-6.055 27.114-16.309 35.904-29.465s13.482-28.623 13.482-44.446v-80h-80c-15.822 0-31.29 4.692-44.446 13.482s-23.41 21.286-29.464 35.904c-6.056 14.618-7.64 30.702-4.552 46.221 3.086 15.518 10.706 29.773 21.894 40.961s25.442 18.808 40.96 21.894c15.52 3.087 31.604 1.503 46.222-4.552zM512 640c32 0 32 0 32 0v112c0 28.48-8.446 56.321-24.268 80.002-15.824 23.681-38.312 42.138-64.626 53.037-26.312 10.899-55.266 13.751-83.198 8.194-27.934-5.556-53.592-19.271-73.732-39.41-20.138-20.139-33.852-45.797-39.41-73.73-5.556-27.933-2.704-56.887 8.196-83.199 10.898-26.314 29.356-48.802 53.036-64.626 23.68-15.822 51.522-24.268 80.002-24.268h144v32h-32zM192 608c-17.673 0-32-14.326-32-32v-96c0-17.674 14.327-32 32-32h640c17.674 0 32 14.326 32 32v96c0 17.674-14.326 32-32 32h-640zM96 576c0 53.020 42.981 96 96 96h640c53.020 0 96-42.98 96-96v-96c0-53.020-42.98-96-96-96h-640c-53.019 0-96 42.98-96 96v96zM192 448c17.674 0 32-14.326 32-32v-288c0-16.974 6.742-33.252 18.746-45.254 12.002-12.004 28.28-18.746 45.254-18.746h448c16.974 0 33.252 6.742 45.254 18.746 12.004 12.002 18.746 28.28 18.746 45.254v288c0 17.674 14.326 32 32 32s32-14.326 32-32v-288c0-33.948-13.486-66.506-37.49-90.51s-56.562-37.49-90.51-37.49h-448c-33.948 0-66.506 13.486-90.51 37.49-24.005 24.004-37.49 56.562-37.49 90.51v288c0 17.674 14.327 32 32 32zM512 672c17.674 0 32-14.326 32-32v-608c0-17.674-14.326-32-32-32s-32 14.326-32 32v608c0 17.674 14.326 32 32 32z" />
<glyph unicode="&#xe922;" glyph-name="grid-outline" d="M136 832c-4.418 0-8-3.582-8-8v-272c0-4.418 3.582-8 8-8h272c4.418 0 8 3.582 8 8v272c0 4.418-3.582 8-8 8h-272zM64 824c0 39.765 32.235 72 72 72h272c39.764 0 72-32.235 72-72v-272c0-39.764-32.236-72-72-72h-272c-39.765 0-72 32.236-72 72v272zM616 832c-4.418 0-8-3.582-8-8v-272c0-4.418 3.582-8 8-8h272c4.418 0 8 3.582 8 8v272c0 4.418-3.582 8-8 8h-272zM544 824c0 39.765 32.236 72 72 72h272c39.764 0 72-32.235 72-72v-272c0-39.764-32.236-72-72-72h-272c-39.764 0-72 32.236-72 72v272zM136 352c-4.418 0-8-3.582-8-8v-272c0-4.418 3.582-8 8-8h272c4.418 0 8 3.582 8 8v272c0 4.418-3.582 8-8 8h-272zM64 344c0 39.764 32.235 72 72 72h272c39.764 0 72-32.236 72-72v-272c0-39.764-32.236-72-72-72h-272c-39.765 0-72 32.236-72 72v272zM616 352c-4.418 0-8-3.582-8-8v-272c0-4.418 3.582-8 8-8h272c4.418 0 8 3.582 8 8v272c0 4.418-3.582 8-8 8h-272zM544 344c0 39.764 32.236 72 72 72h272c39.764 0 72-32.236 72-72v-272c0-39.764-32.236-72-72-72h-272c-39.764 0-72 32.236-72 72v272z" />
<glyph unicode="&#xe923;" glyph-name="heart-outline" d="M96.002 606.708v-0.006c-2.388-237.326 188.304-401.51 379.998-531.62 10.616-7.222 23.16-11.084 36-11.084s25.384 3.862 36 11.084c191.674 130.11 382.364 294.294 379.998 531.618v0.008c-1.248 121.68-97.914 225.292-222.158 225.292-76.262 0-132.358-37.749-168.156-73.292-9.968-9.896-18.522-19.768-25.684-28.87-7.162 9.102-15.716 18.974-25.684 28.87-35.798 35.543-91.894 73.292-168.156 73.292-124.245 0-220.911-103.612-222.158-225.292zM159.998 606.058c0.916 88.996 71.368 161.942 158.162 161.942 53.578 0 94.402-26.25 123.064-54.708 14.262-14.162 25.004-28.404 32.152-39.086 3.556-5.316 6.172-9.676 7.848-12.604 0.838-1.462 1.436-2.56 1.796-3.234 0.062-0.116 0.118-0.22 0.166-0.312 0.090-0.17 0.154-0.294 0.194-0.37 0.018-0.038 0.032-0.064 0.038-0.076 5.436-10.796 16.492-17.61 28.582-17.61 12.092 0 23.148 6.814 28.582 17.61zM540.582 657.61c0.008 0.014 0.020 0.040 0.038 0.076 0.060 0.116 0.18 0.346 0.36 0.682 0.36 0.674 0.958 1.772 1.796 3.234 1.676 2.928 4.292 7.288 7.848 12.604 7.148 10.682 17.89 24.924 32.152 39.086 28.662 28.458 69.486 54.708 123.064 54.708 86.792 0 157.244-72.944 158.162-161.94 1.994-199.984-158.618-346.796-351.974-478.044l-0.028-0.018-0.030 0.020c-193.374 131.246-353.98 278.054-351.972 478.034z" />
<glyph unicode="&#xe924;" glyph-name="help-circle-outline" d="M298.662 767.284c63.148 42.194 137.39 64.716 213.338 64.716 101.844 0 199.516-40.457 271.53-112.472 72.014-72.012 112.47-169.684 112.47-271.528 0-75.948-22.52-150.19-64.716-213.338-42.194-63.15-102.166-112.368-172.334-141.432-70.166-29.064-147.376-36.668-221.864-21.852-74.49 14.818-142.912 51.39-196.614 105.092-53.704 53.704-90.277 122.126-105.093 196.616-14.817 74.488-7.212 151.698 21.852 221.864 29.064 70.168 78.282 130.14 141.432 172.334zM512 768c-63.29 0-125.158-18.768-177.782-53.93s-93.64-85.138-117.86-143.612c-24.219-58.472-30.556-122.814-18.209-184.886 12.347-62.074 42.825-119.094 87.577-163.846s101.772-75.23 163.846-87.578c62.074-12.346 126.414-6.010 184.886 18.21 58.474 24.22 108.45 65.236 143.612 117.86s53.93 114.492 53.93 177.782c0 84.87-33.714 166.262-93.726 226.274s-141.404 93.726-226.274 93.726zM553.024 609.818c-6.402 3.048-21.188 6.43-40.634 6.184-20.62-0.312-40.182-4.758-55.684-17.246l-0.014-0.012c-14.586-11.736-21.704-23.95-25.242-32.626-1.794-4.4-2.696-7.974-3.136-10.196-0.218-1.108-0.32-1.864-0.36-2.2-0.006-0.054-0.010-0.098-0.014-0.13-0.99-15.21-13.998-26.874-29.282-26.14-15.448 0.742-27.368 13.864-26.626 29.31l27.968-1.342c-27.968 1.342-27.968 1.356-27.966 1.372v0.028l0.004 0.062 0.006 0.132c0.006 0.094 0.012 0.196 0.020 0.306 0.014 0.222 0.032 0.478 0.056 0.77 0.048 0.584 0.116 1.304 0.216 2.154 0.198 1.696 0.52 3.908 1.044 6.554 1.046 5.282 2.906 12.342 6.214 20.458 6.666 16.356 19.116 36.708 41.98 55.108 0.002 0.002 0.004 0.004 0.006 0.006s0.004 0.004 0.008 0.006c28.926 23.296 62.626 29.21 89.992 29.62l0.030 0.002h0.030c24.258 0.31 48.5-3.546 65.454-11.616zM596 552.92c0 31.688-24.314 48.016-42.974 56.898h-0.002zM577.094 660.382c21.34-10.158 74.906-40.31 74.906-107.462 0-67.776-46.626-99.032-83.86-123.994-0.43-0.288-0.858-0.574-1.286-0.86-16.414-11.008-25.198-21.354-30.074-30.45-4.828-9.006-6.78-18.57-6.78-29.616 0-15.464-12.536-28-28-28s-28 12.536-28 28c0 18.094 3.308 37.2 13.424 56.074 10.070 18.784 25.914 35.528 48.24 50.5 40.044 26.856 60.336 42.904 60.336 78.346zM500 224c22.092 0 40 17.908 40 40s-17.908 40-40 40c-22.092 0-40-17.908-40-40s17.908-40 40-40z" />
<glyph unicode="&#xe925;" glyph-name="help-outline" d="M585.402 740.42c-12.38 6.024-38.948 11.996-72.882 11.584-35.966-0.496-71.496-8.458-99.998-31.95zM585.402 740.42c31.986-15.672 78.598-46.484 78.598-108.42 0-68.112-39.43-98.684-107.366-145.4-36.848-25.34-62.756-52.346-79.088-82.708-16.476-30.63-21.546-61.592-21.546-91.892 0-22.092 17.908-40 40-40s40 17.908 40 40c0 20.98 3.41 38.028 11.998 53.994 8.734 16.234 24.476 34.406 53.966 54.688l1.538 1.056c64.424 44.294 140.498 96.6 140.498 210.262 0 111.64-86.992 162.429-123.446 180.283l-0.034 0.016-0.032 0.016c-27.668 13.489-68.034 20.185-108.98 19.682h-0.054c-46.064-0.629-102.084-10.868-149.816-50.21v-0.001c-38.41-31.66-58.84-67.614-69.586-96.016-5.35-14.146-8.314-26.438-9.956-35.488-0.824-4.534-1.32-8.284-1.62-11.088-0.15-1.402-0.252-2.57-0.318-3.484-0.034-0.458-0.060-0.852-0.080-1.18-0.010-0.164-0.018-0.312-0.024-0.444l-0.010-0.184-0.002-0.082-0.002-0.038c-0.002-0.020-0.002-0.038 39.96-1.782l-39.962 1.744c-0.964-22.070 16.148-40.742 38.218-41.706 21.93-0.956 40.504 15.93 41.686 37.796 0.008 0.114 0.032 0.402 0.080 0.85 0.108 1.014 0.338 2.832 0.788 5.312 0.904 4.98 2.674 12.496 6.066 21.466 6.746 17.826 19.854 41.332 45.646 62.592zM496 96.020c35.346 0 64 28.654 64 64s-28.654 64-64 64c-35.346 0-64-28.654-64-64s28.654-64 64-64z" />
<glyph unicode="&#xe926;" glyph-name="hourglass-outline" d="M192.572 790.568c-6.071 58.222 41.902 105.432 98.648 105.432h441.56c56.664 0 104.828-47.143 98.644-105.463-13.654-131.145-66.178-197.281-115.104-243.753-8.304-7.89-16.726-15.418-24.372-22.25-2.988-2.672-5.858-5.236-8.556-7.676-10.026-9.064-18.198-16.842-24.842-24.506-12.538-14.464-18.55-27.186-18.55-44.352 0-17.326 6.016-30.244 18.448-44.858 6.578-7.732 14.674-15.588 24.596-24.714 2.836-2.608 5.872-5.368 9.044-8.246 7.422-6.744 15.574-14.148 23.584-21.844 48.47-46.584 100.958-112.562 115.744-242.604v-0.006c6.662-58.702-42.198-105.728-98.636-105.728h-441.56c-56.43 0-105.301 47.020-98.615 105.732 0 0.004 0.001 0.008 0.001 0.012 14.782 130.084 67.304 195.578 115.792 241.908 9.206 8.796 17.374 16.168 24.74 22.816 12.806 11.558 23.182 20.924 32.364 31.77 12.348 14.59 18.498 27.778 18.498 45.762 0 17.828-6.15 30.818-18.602 45.256-6.618 7.674-14.764 15.436-24.764 24.458-2.84 2.562-5.88 5.27-9.054 8.096-7.5 6.678-15.746 14.022-23.832 21.658-48.948 46.222-101.518 111.882-115.175 243.090zM291.22 832c-22.45 0-36.756-17.905-34.992-34.798v-0.009c11.724-112.664 54.954-164.942 95.46-203.19 7.392-6.982 14.452-13.268 21.626-19.654 3.356-2.988 6.738-6 10.19-9.114 10.372-9.356 21-19.326 30.36-30.18 19.508-22.622 34.136-49.882 34.136-87.054 0-37.016-14.366-64.328-33.648-87.11-11.862-14.014-27.61-28.286-42.562-41.838-6.692-6.064-13.226-11.986-19.178-17.674-40.44-38.64-83.716-91.082-96.416-202.87l-0.002-0.012c-1.866-16.364 12.26-34.496 35.026-34.496h441.56c22.762 0 36.902 18.134 35.044 34.512-12.716 111.834-56.038 164.794-96.5 203.68-7.346 7.060-14.358 13.428-21.464 19.88-3.346 3.038-6.712 6.096-10.146 9.254-10.278 9.456-20.776 19.488-30.014 30.348-19.202 22.57-33.7 49.652-33.7 86.326 0 36.834 14.766 63.862 34.188 86.27 9.336 10.77 19.938 20.71 30.282 30.062 3.236 2.926 6.42 5.772 9.584 8.598 7.368 6.584 14.626 13.072 22.19 20.256 40.526 38.494 83.798 91.292 95.528 204.006l0.008 0.077c1.786 16.779-12.478 34.731-35 34.731h-441.56zM686.6 96h-348.34c-31.2 0-40 36-18.12 58.32 52.96 53.68 159.86 92.12 159.86 153.68v204c0 39.7-76 70-123.020 134.4-7.76 10.62-6.98 25.6 12.74 25.6h285.46c16.82 0 20.46-14.86 12.8-25.5-46.34-64.5-123.98-94.6-123.98-134.5v-204c0-61.060 111.42-94 160.8-153.74 19.9-24.080 12.94-58.26-18.2-58.26z" />
<glyph unicode="&#xe927;" glyph-name="information-circle-outline" d="M96 464c0 220.894 179.106 400 400 400s400-179.106 400-400c0-220.894-179.106-400-400-400s-400 179.106-400 400zM496 800c-185.546 0-336-150.454-336-336s150.454-336 336-336c185.546 0 336 150.454 336 336s-150.454 336-336 336zM408 520c0 17.674 14.326 32 32 32h64c17.674 0 32-14.326 32-32v-232c0-17.674-14.326-32-32-32s-32 14.326-32 32v200h-32c-17.674 0-32 14.326-32 32zM384 280c0 17.674 14.326 32 32 32h176c17.674 0 32-14.326 32-32s-14.326-32-32-32h-176c-17.674 0-32 14.326-32 32zM496 700c-10.284 0-20.338-3.050-28.89-8.764-8.55-5.714-15.216-13.834-19.152-23.336s-4.966-19.958-2.958-30.044c2.006-10.088 6.958-19.354 14.23-26.626s16.538-12.224 26.626-14.23c10.086-2.008 20.542-0.978 30.044 2.958s17.622 10.6 23.336 19.152c5.714 8.552 8.764 18.606 8.764 28.89 0 13.792-5.478 27.018-15.23 36.77s-22.978 15.23-36.77 15.23z" />
<glyph unicode="&#xe928;" glyph-name="laptop-outline" d="M160.28 736c-17.828 0-32.28-14.452-32.28-32.28v-479.44c0-17.828 14.452-32.28 32.28-32.28h703.44c17.828 0 32.28 14.452 32.28 32.28v479.44c0 17.828-14.452 32.28-32.28 32.28h-703.44zM64 703.72c0 53.174 43.106 96.28 96.28 96.28h703.44c53.174 0 96.28-43.106 96.28-96.28v-479.44c0-53.174-43.106-96.28-96.28-96.28h-703.44c-53.174 0-96.28 43.106-96.28 96.28v479.44zM0 128c0 17.674 14.327 32 32 32h960c17.674 0 32-14.326 32-32s-14.326-32-32-32h-960c-17.673 0-32 14.326-32 32z" />
<glyph unicode="&#xe929;" glyph-name="leaf-outline" d="M115.636 863.087c-11.474 2.635-22.127-0.695-29.757-6.54-6.489-4.971-10.075-11.1-11.977-14.967-2.078-4.227-3.491-8.56-4.507-12.403-3.848-14.562-5.325-35.349-5.37-58.468-0.092-47.578 5.976-115.852 19.965-191.052 27.632-148.548 88.065-334.468 202.628-439.124l0.010-0.010c84.244-76.89 191.48-111.192 289.174-107.42 97.204 3.752 189.276 45.738 236.796 126.698 91.232 155.434 37.996 361.88-151.454 484.238v0c-82.116 53.044-166.452 67.14-243.194 79.968-12.642 2.112-25.076 4.19-37.26 6.402-86.794 15.76-167.302 38.407-245.42 121.117-0.002 0.002-0.003 0.004-0.005 0.006-3.423 3.627-9.881 9.317-19.629 11.555zM329.772 187.796c-98.23 89.746-155.694 257.518-182.861 403.566-13.388 71.974-18.949 136.128-18.886 178.999 79.835-67.271 162.133-88.559 241.231-102.921 13.508-2.452 26.79-4.702 39.882-6.918 76.844-13.012 147.098-24.906 217.28-70.242h0.002c166.108-107.284 201.75-277.514 130.984-398.082-33.48-57.038-102.018-91.974-184.070-95.142-81.556-3.148-172.218 25.628-243.55 90.73-0.004 0.002-0.006 0.004-0.008 0.006zM322.706 475.94c12.116 12.866 32.37 13.472 45.234 1.354 167.92-158.156 340.142-250.776 566.926-285.666 17.468-2.688 29.45-19.026 26.762-36.494s-19.026-29.45-36.494-26.762c-241.216 37.11-424.994 136.49-601.074 302.334-12.866 12.116-13.472 32.368-1.354 45.234z" />
<glyph unicode="&#xe92a;" glyph-name="list-outline" d="M288 672c0 17.674 14.326 32 32 32h576c17.674 0 32-14.326 32-32s-14.326-32-32-32h-576c-17.674 0-32 14.326-32 32zM288 448c0 17.674 14.326 32 32 32h576c17.674 0 32-14.326 32-32s-14.326-32-32-32h-576c-17.674 0-32 14.326-32 32zM288 224c0 17.674 14.326 32 32 32h576c17.674 0 32-14.326 32-32s-14.326-32-32-32h-576c-17.674 0-32 14.326-32 32zM96 672c0 35.346 28.654 64 64 64s64-28.654 64-64c0-35.346-28.654-64-64-64s-64 28.654-64 64zM96 448c0 35.346 28.654 64 64 64s64-28.654 64-64c0-35.346-28.654-64-64-64s-64 28.654-64 64zM96 224c0 35.346 28.654 64 64 64s64-28.654 64-64c0-35.346-28.654-64-64-64s-64 28.654-64 64z" />
<glyph unicode="&#xe92b;" glyph-name="location-outline" d="M192 590c0 170.373 144.844 306 320 306s320-135.627 320-306c0-96.050-51.932-214.882-108.82-317.596-57.74-104.254-124.236-198.178-159.896-246.338-5.886-8.044-13.58-14.59-22.462-19.112-8.928-4.544-18.804-6.912-28.822-6.912s-19.894 2.368-28.822 6.912c-8.884 4.522-16.578 11.070-22.464 19.114-35.658 48.18-102.156 142.138-159.896 246.404-56.884 102.722-108.818 221.548-108.818 317.528zM512 832c-142.844 0-256-109.934-256-242 0-78.020 44.066-184.064 100.806-286.522 55.732-100.64 120.286-191.946 155.194-239.122 34.906 47.154 99.462 138.428 155.194 239.056 56.738 102.44 100.806 208.498 100.806 286.588 0 132.066-113.156 242-256 242zM512 640c-35.346 0-64-28.654-64-64s28.654-64 64-64c35.346 0 64 28.654 64 64s-28.654 64-64 64zM384 576c0 70.692 57.308 128 128 128s128-57.308 128-128c0-70.692-57.308-128-128-128s-128 57.308-128 128z" />
<glyph unicode="&#xe92c;" glyph-name="menu-outline" d="M128 640c0 17.674 14.327 32 32 32h704c17.674 0 32-14.326 32-32s-14.326-32-32-32h-704c-17.673 0-32 14.326-32 32zM128 448c0 17.674 14.327 32 32 32h704c17.674 0 32-14.326 32-32s-14.326-32-32-32h-704c-17.673 0-32 14.326-32 32zM128 256c0 17.674 14.327 32 32 32h704c17.674 0 32-14.326 32-32s-14.326-32-32-32h-704c-17.673 0-32 14.326-32 32z" />
<glyph unicode="&#xe92d;" glyph-name="note" d="M199.274 949.549c-36.662 0-66.874-30.211-66.874-66.874v-869.356c0-36.663 30.211-66.873 66.874-66.873h624.153c36.663 0 66.873 30.211 66.873 66.873v869.356c0 36.662-30.211 66.874-66.873 66.874h-624.153zM199.274 904.967h624.153c12.735 0 22.29-9.557 22.29-22.291v-869.356c0-12.732-9.556-22.29-22.29-22.29h-624.153c-12.735 0-22.291 9.558-22.291 22.29v869.356c0 12.734 9.556 22.291 22.291 22.291zM299.584 760.074c-24.621 0-44.582-19.96-44.582-44.582 0-24.621 19.962-44.581 44.582-44.581s44.582 19.96 44.582 44.581c0 24.622-19.962 44.582-44.582 44.582zM444.476 737.783c-12.312 0-22.29-9.98-22.29-22.291s9.979-22.291 22.29-22.291h300.931c12.312 0 22.293 9.98 22.293 22.291s-9.981 22.291-22.293 22.291h-300.931zM299.584 581.744c-24.621 0-44.582-19.96-44.582-44.581 0-24.623 19.962-44.583 44.582-44.583s44.582 19.96 44.582 44.583c0 24.62-19.962 44.581-44.582 44.581zM444.476 559.454c-12.312 0-22.29-9.979-22.29-22.29s9.979-22.293 22.29-22.293h300.931c12.312 0 22.293 9.981 22.293 22.293s-9.981 22.29-22.293 22.29h-300.931zM299.584 403.417c-24.621 0-44.582-19.963-44.582-44.583 0-24.623 19.962-44.583 44.582-44.583s44.582 19.96 44.582 44.583c0 24.62-19.962 44.583-44.582 44.583zM444.476 381.124c-12.312 0-22.29-9.979-22.29-22.29s9.979-22.29 22.29-22.29h300.931c12.312 0 22.293 9.979 22.293 22.29s-9.981 22.29-22.293 22.29h-300.931zM299.584 225.087c-24.621 0-44.582-19.96-44.582-44.583 0-24.62 19.962-44.581 44.582-44.581s44.582 19.96 44.582 44.581c0 24.623-19.962 44.583-44.582 44.583zM444.476 202.796c-12.312 0-22.29-9.981-22.29-22.293s9.979-22.29 22.29-22.29h300.931c12.312 0 22.293 9.979 22.293 22.29s-9.981 22.293-22.293 22.293h-300.931zM121.952 882.675c0 42.433 34.889 77.323 77.323 77.323h624.153c42.433 0 77.322-34.89 77.322-77.323v-869.356c0-42.433-34.889-77.322-77.322-77.322h-624.153c-42.433 0-77.323 34.889-77.323 77.322v869.356zM823.427 894.518h-624.153c-6.964 0-11.842-4.878-11.842-11.842v-869.356c0-6.962 4.879-11.841 11.842-11.841h624.153c6.964 0 11.841 4.88 11.841 11.841v869.356c0 6.964-4.877 11.842-11.841 11.842zM244.553 715.492c0-30.391 24.64-55.030 55.031-55.030s55.031 24.639 55.031 55.030c0 30.393-24.64 55.031-55.031 55.031s-55.031-24.638-55.031-55.031zM411.737 715.492c0-18.082 14.657-32.74 32.739-32.74h300.931c18.082 0 32.742 14.657 32.742 32.74s-14.66 32.74-32.742 32.74h-300.931c-18.082 0-32.739-14.658-32.739-32.74zM244.553 537.164c0-30.393 24.64-55.032 55.031-55.032s55.031 24.639 55.031 55.032c0 30.391-24.64 55.030-55.031 55.030s-55.031-24.639-55.031-55.030zM411.737 537.164c0-18.085 14.657-32.742 32.739-32.742h300.931c18.082 0 32.742 14.657 32.742 32.742 0 18.082-14.66 32.739-32.742 32.739h-300.931c-18.082 0-32.739-14.657-32.739-32.739zM244.553 358.834c0-30.393 24.64-55.032 55.031-55.032s55.031 24.639 55.031 55.032c0 30.393-24.64 55.032-55.031 55.032s-55.031-24.639-55.031-55.032zM411.737 358.834c0-18.082 14.657-32.739 32.739-32.739h300.931c18.082 0 32.742 14.657 32.742 32.739s-14.66 32.739-32.742 32.739h-300.931c-18.082 0-32.739-14.657-32.739-32.739zM244.553 180.504c0-30.393 24.64-55.030 55.031-55.030s55.031 24.636 55.031 55.030c0 30.393-24.64 55.032-55.031 55.032s-55.031-24.639-55.031-55.032zM411.737 180.504c0-18.082 14.657-32.739 32.739-32.739h300.931c18.082 0 32.742 14.657 32.742 32.739s-14.66 32.742-32.742 32.742h-300.931c-18.082 0-32.739-14.66-32.739-32.742zM132.401 882.675c0 36.662 30.211 66.874 66.874 66.874h624.153c36.663 0 66.873-30.211 66.873-66.874v-869.356c0-36.663-30.211-66.873-66.873-66.873h-624.153c-36.662 0-66.874 30.211-66.874 66.873v869.356zM823.427 904.967h-624.153c-12.735 0-22.291-9.557-22.291-22.291v-869.356c0-12.732 9.556-22.29 22.291-22.29h624.153c12.735 0 22.29 9.558 22.29 22.29v869.356c0 12.734-9.556 22.291-22.29 22.291zM255.002 715.492c0 24.622 19.962 44.582 44.582 44.582s44.582-19.96 44.582-44.582c0-24.621-19.962-44.581-44.582-44.581s-44.582 19.96-44.582 44.581zM422.186 715.492c0 12.312 9.979 22.291 22.29 22.291h300.931c12.312 0 22.293-9.98 22.293-22.291s-9.981-22.291-22.293-22.291h-300.931c-12.312 0-22.29 9.98-22.29 22.291zM255.002 537.164c0 24.62 19.962 44.581 44.582 44.581s44.582-19.96 44.582-44.581c0-24.623-19.962-44.583-44.582-44.583s-44.582 19.96-44.582 44.583zM422.186 537.164c0 12.312 9.979 22.29 22.29 22.29h300.931c12.312 0 22.293-9.979 22.293-22.29s-9.981-22.293-22.293-22.293h-300.931c-12.312 0-22.29 9.981-22.29 22.293zM255.002 358.834c0 24.62 19.962 44.583 44.582 44.583s44.582-19.963 44.582-44.583c0-24.623-19.962-44.583-44.582-44.583s-44.582 19.96-44.582 44.583zM422.186 358.834c0 12.312 9.979 22.29 22.29 22.29h300.931c12.312 0 22.293-9.979 22.293-22.29s-9.981-22.29-22.293-22.29h-300.931c-12.312 0-22.29 9.979-22.29 22.29zM255.002 180.504c0 24.623 19.962 44.583 44.582 44.583s44.582-19.96 44.582-44.583c0-24.62-19.962-44.581-44.582-44.581s-44.582 19.96-44.582 44.581zM422.186 180.504c0 12.312 9.979 22.293 22.29 22.293h300.931c12.312 0 22.293-9.981 22.293-22.293s-9.981-22.29-22.293-22.29h-300.931c-12.312 0-22.29 9.979-22.29 22.29z" />
<glyph unicode="&#xe92e;" glyph-name="notifications-outline" d="M393.536 798.89c14.312 48.068 56.288 97.11 118.464 97.11 62.19 0 104.126-49.044 118.546-97.021 0.072-0.090 0.17-0.202 0.294-0.332 0.296-0.308 0.63-0.592 0.948-0.812 0.24-0.167 0.386-0.239 0.402-0.248 36.194-14.902 78.794-38.705 112.114-82.287 33.586-43.93 55.436-104.916 55.436-190 0-84.832 8.95-131.352 22.13-163.288 11.556-28 26.752-46.406 48.376-72.596 3.158-3.826 6.454-7.818 9.894-12.030l0.008-0.010c39.852-48.816 2.222-117.376-59.168-117.376h-617.76c-61.277 0-99.543 68.212-59.361 117.386 3.444 4.216 6.741 8.21 9.902 12.038 21.62 26.186 36.818 44.594 48.385 72.598 13.192 31.938 22.164 78.456 22.214 163.278zM393.536 798.89c-0.056-0.065-0.124-0.143-0.21-0.23-0.272-0.282-0.594-0.555-0.914-0.776-0.298-0.205-0.478-0.285-0.478-0.286l-0.020-0.008c-36.208-14.911-78.824-38.669-112.146-82.239-33.584-43.914-55.406-104.892-55.408-190.032zM512 832c-24.638 0-48.166-20.545-57.272-51.872l-0.024-0.080c-5.87-20.005-22.126-34.937-38.42-41.639-0.002 0-0.004-0.002-0.006-0.002-30.57-12.59-61.82-30.75-85.672-61.938-23.588-30.842-42.246-77.46-42.246-151.17v-0.018c-0.052-88.468-9.26-144.594-27.062-187.694-15.486-37.494-37.106-63.55-58.556-89.402-3.118-3.758-6.231-7.51-9.322-11.292l-0.002-0.004c-1.274-1.558-1.63-2.836-1.717-3.8-0.099-1.088 0.106-2.392 0.792-3.734 1.189-2.33 4.15-5.356 10.727-5.356h617.76c6.338 0 9.252 2.926 10.464 5.318 1.3 2.564 1.138 5.114-0.864 7.576-3.090 3.78-6.202 7.53-9.318 11.286-21.452 25.854-43.074 51.914-58.552 89.418-17.79 43.104-26.97 99.234-26.97 187.702 0 73.616-18.672 120.25-42.28 151.13-23.872 31.224-55.138 49.422-85.642 61.98-16.476 6.776-32.56 21.916-38.396 41.588l-0.024 0.081c-9.224 31.392-32.76 51.921-57.398 51.921zM384 224c17.674 0 32-14.326 32-32v-32c0-25.46 10.114-49.878 28.118-67.882s42.422-28.118 67.882-28.118c25.46 0 49.878 10.114 67.882 28.118s28.118 42.422 28.118 67.882v32c0 17.674 14.326 32 32 32s32-14.326 32-32v-32c0-42.434-16.858-83.132-46.862-113.138-30.006-30.004-70.704-46.862-113.138-46.862s-83.132 16.858-113.138 46.862c-30.004 30.006-46.862 70.704-46.862 113.138v32c0 17.674 14.326 32 32 32z" />
<glyph unicode="&#xe92f;" glyph-name="paw-outline" d="M729.048 587.404c-16.802-23.722-51.556-57.404-101.532-50.47-49.976 6.932-74.246 48.802-83.956 76.202-10.912 30.794-13.344 67.092-8.418 102.59 4.924 35.498 17.144 69.763 36.026 96.423 16.802 23.723 51.554 57.404 101.53 50.471s74.248-48.803 83.958-76.204c10.912-30.792 13.344-67.090 8.418-102.588-4.924-35.498-17.144-69.764-36.026-96.424zM636.312 600.326c28.482-3.952 57.75 37.37 65.37 92.296s-9.294 102.654-37.778 106.605c-28.482 3.951-57.75-37.371-65.37-92.295-7.62-54.926 9.294-102.654 37.778-106.606zM481.722 613.99c-9.422-27.502-33.252-69.624-83.152-77.082-49.902-7.458-85.006 25.856-102.056 49.402-19.162 26.46-31.74 60.594-37.038 96.040-5.298 35.444-3.248 71.766 7.34 102.671 9.422 27.501 33.252 69.624 83.152 77.081s85.006-25.857 102.056-49.402c19.16-26.46 31.74-60.594 37.038-96.040 5.296-35.444 3.246-71.766-7.34-102.67zM389.11 600.204c28.44 4.252 44.85 52.156 36.654 106.998s-37.896 95.854-66.336 91.603c-28.44-4.25-44.852-52.155-36.654-106.997 8.196-54.842 37.894-95.854 66.336-91.604zM289.246 440.906c-2.246-30.404-15.312-76.522-61.066-96.892-45.754-20.372-88.768 0.778-112.865 19.452-26.478 20.52-48.436 50.56-63.353 84.064-14.917 33.502-22.548 69.922-20.080 103.33 2.246 30.404 15.311 76.52 61.066 96.892 45.755 20.37 88.768-0.778 112.867-19.454 26.476-20.518 48.436-50.56 63.352-84.062 14.916-33.504 22.548-69.924 20.080-103.33zM202.15 402.48c27.688 12.328 31.516 64.14 8.55 115.724-22.968 51.584-64.032 83.408-91.721 71.080s-31.517-64.138-8.55-115.724c22.967-51.584 64.032-83.408 91.721-71.080zM908.97 363.86c-24.098-18.674-67.112-39.824-112.866-19.452-45.754 20.37-58.82 66.488-61.066 96.892-2.468 33.406 5.164 69.826 20.080 103.33 14.916 33.502 36.876 63.544 63.354 84.062 24.096 18.676 67.11 39.824 112.866 19.454 45.754-20.372 58.818-66.49 61.064-96.892 2.47-33.408-5.162-69.828-20.080-103.33-14.916-33.504-36.874-63.544-63.352-84.064zM822.136 402.874c27.688-12.328 68.754 19.496 91.72 71.080 22.966 51.586 19.138 103.396-8.55 115.724-27.69 12.328-68.754-19.496-91.72-71.080-22.968-51.584-19.14-103.396 8.55-115.724zM825.286 69.662l-1.342-1.324c-10.654-10.512-23.306-20.084-39.274-26.758-15.64-6.538-30.786-8.74-44.122-9.482l-1.772-0.098h-1.776c-21.882 0-43.262 4.698-59.544 9.056-11.68 3.124-24.22 7.106-33.562 10.074-3.348 1.064-6.286 1.996-8.626 2.712l-0.928 0.284-0.918 0.312c-22.652 7.692-38.73 12.62-48.866 15.558-5.068 1.468-8.646 2.44-10.814 3.010-1.082 0.284-1.814 0.468-2.2 0.566-0.136 0.032-0.23 0.056-0.282 0.068-0.008 0.002-0.008 0.002-0.014 0.004-0.012 0.002-0.024 0.006-0.030 0.006l-1.202 0.282-1.244 0.35c0.002 0 0 0-0.002 0.002-0.002 0-0.030 0.008-0.034 0.010-0.010 0.002-0.014 0.004-0.038 0.010-0.008 0.002-0.004 0-0.012 0.002-0.126 0.034-0.386 0.106-0.772 0.208-0.774 0.204-2.040 0.532-3.722 0.94-3.382 0.824-8.332 1.956-14.236 3.088-12.338 2.364-26.56 4.282-38.726 4.238h-0.228c-11.344 0-25.608-2.022-38.56-4.62-6.142-1.232-11.36-2.464-14.972-3.368-1.794-0.45-3.162-0.81-4.014-1.040-0.426-0.116-0.72-0.196-0.874-0.24l-0.032-0.008-0.012-0.004-0.022-0.006-0.028-0.008h-0.004l-0.022-0.006-0.046-0.014-0.004-0.002-0.008-0.002-0.35-0.098c-0.262-0.076-0.664-0.19-1.196-0.342-1.062-0.304-2.636-0.758-4.634-1.338-4-1.162-9.678-2.828-16.322-4.824-13.414-4.028-30.268-9.256-45.136-14.338l-1.014-0.348-1.024-0.312c-3.092-0.942-6.044-1.85-8.882-2.722-26.838-8.254-43.73-13.448-76.476-16.722-15.356-1.536-28.736 0.674-36.752 2.456-4.34 0.964-8.004 2.010-10.742 2.87-1.384 0.436-2.572 0.836-3.536 1.174-0.188 0.066-0.366 0.13-0.536 0.19-0.258 0.090-0.526 0.184-0.804 0.282-1.186 0.424-2.568 0.944-4.118 1.578-3.088 1.262-6.91 2.992-11.206 5.304-8.516 4.586-19.438 11.75-30.197 22.542-13.117 13.156-21.127 27.014-25.881 37.382-2.417 5.272-4.128 9.934-5.312 13.602-0.458 1.418-0.842 2.706-1.163 3.846-0.471 1.486-0.983 3.23-1.5 5.212-1.158 4.436-2.367 10.164-3.175 16.96-1.614 13.568-1.685 31.918 3.86 52.692l0.453 1.696 0.545 1.67c4.407 13.488 9.891 26.856 19.23 39.678 7.461 10.244 16.426 18.422 21.484 23.036 0.578 0.526 1.104 1.008 1.572 1.438l1.986 1.834 2.132 1.66c16.456 12.798 28.27 19.886 35.632 24.304 2.002 1.2 3.674 2.204 5.020 3.072l0.776 0.498 2.094 1.264c33.048 19.948 47.996 28.97 66.118 47.764 8.040 8.34 14.178 17.038 21.178 28.4 1.644 2.668 3.604 5.96 5.802 9.65 5.838 9.802 13.36 22.432 21.126 33.748 1.856 2.702 3.692 5.498 5.604 8.408 8.75 13.32 19.086 29.058 40.082 49.37l2.564 2.478 2.822 2.18c0.018 0.014 0.082 0.070 0.192 0.162 1.702 1.44 14.172 11.984 28.552 18.884 17.66 8.474 37.264 12.298 59.73 12.298 20.396 0 39.474-2.816 57.498-10.49 17.866-7.606 30.088-18.164 37.356-24.6l2.434-2.156 2.206-2.394c18.808-20.418 24.152-26.34 44.336-57.806l0.256-0.398 0.248-0.4c8.55-13.772 14.16-23.016 18.37-29.952 4.146-6.83 6.932-11.42 9.824-15.886 3.84-5.928 6.642-9.706 16.498-21.142 7.794-9.048 22.54-20.602 38.846-31.366 7.522-4.966 14.342-9.096 19.248-11.962 2.436-1.422 4.36-2.51 5.61-3.208 0.626-0.35 1.080-0.6 1.344-0.744 0.13-0.070 0.212-0.116 0.248-0.134 0 0-0.002 0 0 0l0.012-0.008 0.934-0.5 0.98-0.572-32.248-55.282c0 0-55.888 30-83.46 62-16.372 19.002-19.144 23.56-33.162 46.61-4.426 7.276-9.97 16.394-17.418 28.39-17.436 27.184-20.772 30.804-36.124 47.464-0.462 0.5-0.932 1.012-1.416 1.536-12.42 11-23.42 19-52.42 19-26.902 0-36.918-8.042-46.17-15.472-1.066-0.854-2.12-1.702-3.19-2.528-15.568-15.062-21.938-24.706-30.274-37.332-2.182-3.302-4.496-6.808-7.146-10.668-6.546-9.536-12.082-18.84-17.526-27.99-10.542-17.72-20.742-34.864-37.274-52.010-24.016-24.908-45.538-37.886-76.318-56.446-1.35-0.814-2.716-1.638-4.102-2.474-3.040-1.958-5.776-3.602-8.522-5.254-7.188-4.326-14.454-8.696-27.478-18.826-0.516-0.476-1.018-0.938-1.508-1.392-11.892-10.952-16.764-15.44-23.352-35.608-6.14-23 0.32-40 0.32-40s3.38-15 16.34-28c10.968-11 22.2-14.5 22.2-14.5s12-4.6 24-3.4c26.266 2.626 37.766 6.156 64.266 14.288 2.758 0.846 5.678 1.742 8.794 2.692 31.94 10.92 70.9 21.96 70.9 21.96s41.040 11.74 76.040 11.74c36 0.128 75-10.86 75-10.86s21-4.92 68-20.88c3.452-1.056 7.128-2.224 10.976-3.446 21.792-6.926 49.076-15.594 72.024-15.594 18 1 29.306 5.378 42 17.9 10 11.1 13.502 18.1 16.64 29.1 7.414 26-2.64 46-2.64 46s-3 13.522-18.78 27c-15.22 13-39.22 27-39.22 27 32.248 55.282 32.252 55.28 32.256 55.278l0.008-0.006 0.166-0.098 0.322-0.188c0.26-0.152 0.608-0.358 1.038-0.614 0.858-0.512 2.046-1.224 3.496-2.106 2.886-1.76 6.884-4.24 11.44-7.194 8.59-5.572 21.206-14.136 32.060-23.408 14.54-12.42 24.044-25.622 30.114-36.918 3.010-5.602 5.15-10.676 6.658-14.902 0.214-0.6 0.416-1.184 0.606-1.75 0.468-1.158 0.96-2.432 1.462-3.818 1.8-4.972 3.804-11.546 5.322-19.438 3.030-15.752 4.282-37.69-2.762-62.39-5.894-20.668-14.304-36.256-30.638-54.386l-1.262-1.4z" />
<glyph unicode="&#xe930;" glyph-name="person-circle-outline" d="M517.8 864c-233.96 3.16-424.96-187.84-421.8-421.8 3.12-224.38 185.82-407.080 410.2-410.2 234-3.2 424.96 187.8 421.76 421.76-3.080 224.42-185.78 407.12-410.16 410.24zM770.64 209.5c-0.798-0.862-1.774-1.536-2.86-1.978-1.088-0.442-2.258-0.64-3.43-0.58-1.172 0.062-2.316 0.38-3.352 0.932-1.034 0.554-1.936 1.326-2.638 2.266-17.89 23.406-39.798 43.444-64.7 59.18-50.92 32.68-115.44 50.68-181.66 50.68s-130.74-18-181.66-50.68c-24.902-15.728-46.81-35.76-64.7-59.16-0.704-0.94-1.604-1.712-2.64-2.266-1.034-0.552-2.178-0.87-3.35-0.932-1.172-0.060-2.344 0.138-3.43 0.58-1.088 0.442-2.064 1.116-2.86 1.978-58.687 63.354-91.931 146.134-93.36 232.48-3.26 194.62 156.44 357.52 351.14 358s352.86-157.62 352.86-352c0.066-88.428-33.28-173.616-93.36-238.5zM512 672c-39.44 0-75.1-14.78-100.44-41.64s-38-64-35.14-103.86c5.8-78.5 66.62-142.5 135.58-142.5s129.66 64 135.58 142.48c2.96 39.48-9.6 76.28-35.36 103.64-25.44 27-61.040 41.88-100.22 41.88z" />
<glyph unicode="&#xe931;" glyph-name="person-outline" d="M97.228 80.48c36.425 201.964 231.686 303.52 414.772 303.52s378.344-101.556 414.792-303.516v-0.002c3.276-18.168 0.094-37.616-10.682-53.352-11.266-16.454-29.838-27.13-52.11-27.13h-704c-22.272 0-40.837 10.684-52.097 27.136-10.768 15.732-13.952 35.176-10.675 53.344zM512 320c-164.914 0-322.853-90.444-351.788-250.88v-0.002c-0.311-1.724-0.25-3.166-0.049-4.216 0.070-0.366 0.153-0.666 0.232-0.902h703.229c0.080 0.236 0.164 0.536 0.234 0.904 0.2 1.048 0.262 2.488-0.050 4.212-28.952 160.44-186.894 250.884-351.808 250.884zM611.408 566.032c-29.318-35.552-64.886-54.032-98.408-54.032s-69.090 18.48-98.408 54.032c-29.324 35.564-46.592 81.732-46.592 123.112 0 79.96 64.878 144.856 145 144.856s145-64.896 145-144.856c0-41.38-17.268-87.548-46.592-123.112zM513 448c115.428 0 209 125.796 209 241.144s-93.572 208.856-209 208.856c-115.428 0-209-93.508-209-208.856s93.572-241.144 209-241.144z" />
<glyph unicode="&#xe932;" glyph-name="pricetag-outline" d="M706.523 581.964c-11.615 0-22.968 3.445-32.625 9.897s-17.184 15.624-21.629 26.354-5.608 22.537-3.342 33.93c2.266 11.391 7.858 21.855 16.072 30.067 8.212 8.214 18.676 13.806 30.067 16.072 11.392 2.266 23.2 1.103 33.93-3.342s19.902-11.971 26.354-21.629c6.452-9.656 9.897-21.010 9.897-32.625 0-15.575-6.186-30.511-17.201-41.523-11.013-11.014-25.949-17.201-41.523-17.201zM80.622 348.795l448.672 448.672c15.259 15.258 36.185 23.46 57.715 22.62l221.485-8.641c41.243-1.609 73.831-35.387 73.963-76.665l0.686-212.979c0.066-20.59-8.098-40.375-22.678-54.955l-448.947-448.947c-30.18-30.18-79.046-30.247-109.146-0.147l-221.895 221.896c-30.1 30.1-30.034 78.965 0.146 109.146zM122.146 307.272c-7.186-7.186-7.201-18.821-0.035-25.987l221.895-221.896c7.166-7.166 18.801-7.15 25.987 0.035l448.947 448.947c3.47 3.472 5.415 8.183 5.399 13.086l-0.686 212.977c-0.031 9.829-7.79 17.87-17.61 18.254l-221.483 8.642c-5.127 0.2-10.11-1.753-13.743-5.386l-448.671-448.672z" />
<glyph unicode="&#xe933;" glyph-name="pricetags-outline" horiz-adv-x="1026" d="M704 672c-12.658 0-25.032 3.754-35.556 10.786-10.526 7.032-18.728 17.028-23.572 28.722s-6.112 24.562-3.642 36.978c2.47 12.415 8.564 23.818 17.516 32.769 8.95 8.951 20.354 15.046 32.768 17.515 12.416 2.469 25.284 1.202 36.978-3.642s21.69-13.047 28.722-23.572c7.032-10.525 10.786-22.898 10.786-35.556 0-16.974-6.742-33.252-18.746-45.254-12.002-12.004-28.28-18.746-45.254-18.746zM992 832c17.674 0 32-14.327 32-32v-255.742c0.108-7.856-1.34-15.658-4.258-22.954-2.968-7.416-7.394-14.162-13.018-19.834l-0.096-0.098-524-524c-12.498-12.496-32.758-12.496-45.256 0-12.496 12.498-12.496 32.758 0 45.256l522.628 522.626v254.746c0 17.673 14.326 32 32 32zM25.159 421.922l489.893 485.449c16.66 16.509 39.464 25.301 62.896 24.248l241.026-10.826c44.882-2.016 80.23-38.989 80.23-83.915v-231.806c0-22.412-8.954-43.892-24.874-59.668l-490.194-485.746c-32.952-32.654-86.138-32.412-118.792 0.542l-240.726 242.93c-32.654 32.952-32.412 86.138 0.541 118.792zM70.207 376.462c-7.846-7.776-7.904-20.438-0.129-28.284l240.726-242.93c7.776-7.846 20.438-7.904 28.284-0.13l490.194 485.748c3.79 3.756 5.922 8.87 5.922 14.206v231.806c0 10.697-8.416 19.5-19.102 19.98l-241.026 10.826c-5.58 0.251-11.008-1.843-14.976-5.774l-489.893-485.448z" />
<glyph unicode="&#xe934;" glyph-name="question-add" d="M512 734.082c21.7 0 39.29-17.591 39.29-39.29v-491.127c0-21.7-17.59-39.29-39.29-39.29s-39.29 17.59-39.29 39.29v491.127c0 21.699 17.59 39.29 39.29 39.29zM227.146 449.228c0 21.7 17.591 39.29 39.29 39.29h491.127c21.7 0 39.29-17.59 39.29-39.29s-17.59-39.29-39.29-39.29h-491.127c-21.699 0-39.29 17.59-39.29 39.29zM511.617 881.42c-240.085 0-432.529-189.73-431.807-421.505v-0.125c-0.003-80.616 23.553-159.469 67.76-226.869 2.584-3.531 5.001-7.183 7.245-10.942l0.19-0.317 0.184-0.322c3.637-6.363 7.988-14.994 10.998-24.578 2.742-8.73 6.011-23.275 1.763-38.91l-0.023-0.083-35.904-129.874 123.98 44.744c13.229 5.432 27.4 8.207 41.707 8.163 0.025 0 0.052 0 0.076 0l-0.15-39.29 0.044 39.29c0.010 0 0.020 0 0.029 0 13.413-0.020 26.71-2.495 39.231-7.308l0.027-0.012 0.029-0.010c7.308-2.822 36.493-13.666 65.32-21.732 28.296-7.919 80.582-17.519 117.414-17.519 238.776 0 424.454 191.697 424.462 425.218l39.236 0.015h-39.236c-0.010 28.957-3.077 57.835-9.147 86.151l-0.007 0.042-0.010 0.039c-40.486 190.874-214.212 335.734-423.41 335.734zM1.23 459.731c-0.829 277.078 228.687 500.269 510.387 500.269 245.848 0 451.967-170.369 500.269-397.95 7.224-33.718 10.874-68.102 10.886-102.584v-0.012c0-276.080-220.020-503.813-503.042-503.813-46.132 0-105.821 11.254-138.591 20.426-32.191 9.010-63.932 20.814-72.412 24.085-3.556 1.365-7.328 2.065-11.136 2.070h-0.106c-4.098 0.015-8.16-0.801-11.937-2.399l-0.98-0.415-153.835-55.519c-6.634-2.713-13.623-4.472-20.757-5.216l-2.095-0.221-2.107 0.007c-8.077 0.025-16.068 1.65-23.512 4.786s-14.191 7.716-19.852 13.477c-5.66 5.761-10.122 12.588-13.125 20.087-3.003 7.497-4.489 15.515-4.371 23.591l0.017 1.181 0.088 1.179c0.386 5.162 1.305 10.272 2.741 15.247l43.155 156.1c-0.318 0.884-0.752 1.952-1.321 3.18-0.714 1.545-1.546 3.146-2.436 4.722-1.035 1.709-2.152 3.369-3.346 4.973l-0.672 0.904-0.619 0.938c-53.019 80.405-81.283 174.598-81.291 270.908z" />
<glyph unicode="&#xe935;" glyph-name="questions" d="M562.977 652.739c-7.404 3.6-25.541 7.956-49.96 7.659-25.571-0.351-49.584-6.009-68.515-21.612l118.475 13.953zM562.977 652.739c23.277-11.406 53.174-31.967 53.174-72.166 0-45.181-24.851-65.364-75.805-100.404-28.306-19.466-48.803-40.621-61.865-64.902-13.204-24.547-17.175-49.25-17.175-72.915 0-21.7 17.59-39.29 39.29-39.29s39.29 17.59 39.29 39.29c0 14.508 2.343 25.546 7.797 35.688 5.599 10.405 16.109 22.884 37.188 37.38 0.616 0.425 1.235 0.85 1.856 1.277 47.553 32.685 108.004 74.236 108.004 163.877 0 89.017-69.558 129.203-97.226 142.755l-0.034 0.016-0.032 0.016c-22.415 10.929-54.103 15.998-85.414 15.614h-0.054c-35.491-0.484-79.631-8.378-117.451-39.549v-0.002c-30.094-24.804-46.173-53.052-54.648-75.452-4.219-11.146-6.566-20.866-7.875-28.085-0.658-3.62-1.058-6.642-1.306-8.941-0.123-1.152-0.206-2.124-0.265-2.905-0.027-0.39-0.052-0.732-0.066-1.024-0.010-0.147-0.017-0.28-0.022-0.403l-0.010-0.172-0.002-0.079-0.002-0.037c0-0.020-0.002-0.037 38.183-1.704l-38.185 1.667c-0.945-21.678 15.861-40.019 37.542-40.965 21.489-0.938 39.7 15.569 40.935 36.975 0.005 0.061 0.015 0.157 0.029 0.285 0.056 0.543 0.196 1.667 0.486 3.268 0.587 3.224 1.761 8.251 4.054 14.311 4.545 12.015 13.435 28.034 31.133 42.625zM504.52 198.272c21.698 0 39.29 17.592 39.29 39.29 0 21.7-17.592 39.29-39.29 39.29-21.7 0-39.29-17.59-39.29-39.29 0-21.698 17.59-39.29 39.29-39.29zM511.617 881.42c-240.085 0-432.529-189.73-431.807-421.505v-0.125c-0.003-80.616 23.553-159.469 67.76-226.869 2.584-3.531 5.001-7.183 7.245-10.942l0.19-0.317 0.184-0.322c3.637-6.363 7.988-14.994 10.998-24.578 2.742-8.73 6.011-23.275 1.763-38.91l-0.023-0.083-35.904-129.874 123.98 44.744c13.229 5.432 27.4 8.207 41.707 8.163 0.025 0 0.052 0 0.076 0l-0.15-39.29 0.044 39.29c0.010 0 0.020 0 0.029 0 13.413-0.020 26.71-2.495 39.231-7.308l0.027-0.012 0.029-0.010c7.308-2.822 36.493-13.666 65.32-21.732 28.296-7.919 80.582-17.519 117.414-17.519 238.776 0 424.454 191.697 424.462 425.218l39.236 0.015h-39.236c-0.010 28.957-3.077 57.835-9.147 86.151l-0.007 0.042-0.010 0.039c-40.486 190.874-214.212 335.734-423.41 335.734zM1.23 459.731c-0.829 277.078 228.687 500.269 510.387 500.269 245.848 0 451.967-170.369 500.269-397.95 7.224-33.718 10.874-68.102 10.886-102.584v-0.012c0-276.080-220.020-503.813-503.042-503.813-46.132 0-105.821 11.254-138.591 20.426-32.191 9.010-63.932 20.814-72.412 24.085-3.556 1.365-7.328 2.065-11.136 2.070h-0.106c-4.098 0.015-8.16-0.801-11.937-2.399l-0.98-0.415-153.835-55.519c-6.634-2.713-13.623-4.472-20.757-5.216l-2.095-0.221-2.107 0.007c-8.077 0.025-16.068 1.65-23.512 4.786s-14.191 7.716-19.852 13.477c-5.66 5.761-10.122 12.588-13.125 20.087-3.003 7.497-4.489 15.515-4.371 23.591l0.017 1.181 0.088 1.179c0.386 5.162 1.305 10.272 2.741 15.247l43.155 156.1c-0.318 0.884-0.752 1.952-1.321 3.18-0.714 1.545-1.546 3.146-2.436 4.722-1.035 1.709-2.152 3.369-3.346 4.973l-0.672 0.904-0.619 0.938c-53.019 80.405-81.283 174.598-81.291 270.908z" />
<glyph unicode="&#xe936;" glyph-name="remove-outline" d="M192 448c0 17.674 14.326 32 32 32h576c17.674 0 32-14.326 32-32s-14.326-32-32-32h-576c-17.674 0-32 14.326-32 32z" />
<glyph unicode="&#xe937;" glyph-name="review" d="M1024 465.609h-36.117c-8.939 103.542-96 184.808-202.197 184.808-88.659 0-163.984-56.651-191.664-135.609-19.403 23.675-48.936 38.805-82 38.805-33.096 0-62.587-15.11-82.035-38.785-27.677 78.958-102.992 135.589-191.641 135.589-106.178 0-193.239-81.265-202.199-184.808h-36.147v-35.201h36.147c8.96-103.552 96.021-184.808 202.199-184.829 112.139 0.032 203.019 90.629 203.038 202.419 0.083 38.887 31.621 70.342 70.637 70.423 38.963-0.082 70.523-31.537 70.603-70.423h0.043c0.021-111.782 90.88-202.398 203.019-202.398 106.157 0 193.237 81.264 202.197 184.808h36.117v35.201zM238.336 280.792c-92.611 0.173-167.537 74.883-167.701 167.227 0.164 92.342 75.090 167.043 167.701 167.207 92.632-0.163 167.547-74.875 167.72-167.207-0.173-92.344-75.088-167.064-167.72-167.227zM785.685 280.792c-92.621 0.163-167.539 74.864-167.723 167.237 0.184 92.332 75.101 167.023 167.723 167.197 92.619-0.174 167.557-74.875 167.699-167.197-0.141-92.373-75.088-167.085-167.699-167.237z" />
</font>
</defs>
</svg>
