<svg width="512" height="512" viewBox="0 0 512 512" fill="none" xmlns="http://www.w3.org/2000/svg">
<g id="add-circle-outline">
<path id="Vector (Stroke)" fill-rule="evenodd" clip-rule="evenodd" d="M48 256C48 141.163 141.163 48 256 48C370.837 48 464 141.163 464 256C464 370.837 370.837 464 256 464C141.163 464 48 370.837 48 256ZM256 80C158.837 80 80 158.837 80 256C80 353.163 158.837 432 256 432C353.163 432 432 353.163 432 256C432 158.837 353.163 80 256 80Z" fill="black"/>
<path id="Vector (Stroke)_2" fill-rule="evenodd" clip-rule="evenodd" d="M256 160C264.837 160 272 167.163 272 176V336C272 344.837 264.837 352 256 352C247.163 352 240 344.837 240 336V176C240 167.163 247.163 160 256 160Z" fill="black"/>
<path id="Vector (Stroke)_3" fill-rule="evenodd" clip-rule="evenodd" d="M160 256C160 247.163 167.163 240 176 240H336C344.837 240 352 247.163 352 256C352 264.837 344.837 272 336 272H176C167.163 272 160 264.837 160 256Z" fill="black"/>
</g>
</svg>
