<svg width="512" height="512" viewBox="0 0 512 512" fill="none" xmlns="http://www.w3.org/2000/svg">
<g id="analytics-outline">
<path id="Vector (Stroke)" fill-rule="evenodd" clip-rule="evenodd" d="M443.314 180.686C449.562 186.935 449.562 197.065 443.314 203.314L355.314 291.314C349.065 297.562 338.935 297.562 332.686 291.314C326.438 285.065 326.438 274.935 332.686 268.686L420.686 180.686C426.935 174.438 437.065 174.438 443.314 180.686Z" fill="black"/>
<path id="Vector (Stroke)_2" fill-rule="evenodd" clip-rule="evenodd" d="M220.686 204.686C226.935 198.438 237.065 198.438 243.314 204.686L307.314 268.686C313.562 274.935 313.562 285.065 307.314 291.314C301.065 297.562 290.935 297.562 284.686 291.314L220.686 227.314C214.438 221.065 214.438 210.935 220.686 204.686Z" fill="black"/>
<path id="Vector (Stroke)_3" fill-rule="evenodd" clip-rule="evenodd" d="M195.314 204.686C201.562 210.935 201.562 221.065 195.314 227.314L91.3137 331.314C85.0653 337.562 74.9347 337.562 68.6863 331.314C62.4379 325.065 62.4379 314.935 68.6863 308.686L172.686 204.686C178.935 198.438 189.065 198.438 195.314 204.686Z" fill="black"/>
<path id="Vector (Stroke)_4" fill-rule="evenodd" clip-rule="evenodd" d="M456 160C451.582 160 448 163.582 448 168C448 172.418 451.582 176 456 176C460.418 176 464 172.418 464 168C464 163.582 460.418 160 456 160ZM416 168C416 145.909 433.909 128 456 128C478.091 128 496 145.909 496 168C496 190.091 478.091 208 456 208C433.909 208 416 190.091 416 168Z" fill="black"/>
<path id="Vector (Stroke)_5" fill-rule="evenodd" clip-rule="evenodd" d="M320 296C315.582 296 312 299.582 312 304C312 308.418 315.582 312 320 312C324.418 312 328 308.418 328 304C328 299.582 324.418 296 320 296ZM280 304C280 281.909 297.909 264 320 264C342.091 264 360 281.909 360 304C360 326.091 342.091 344 320 344C297.909 344 280 326.091 280 304Z" fill="black"/>
<path id="Vector (Stroke)_6" fill-rule="evenodd" clip-rule="evenodd" d="M208 184C203.582 184 200 187.582 200 192C200 196.418 203.582 200 208 200C212.418 200 216 196.418 216 192C216 187.582 212.418 184 208 184ZM168 192C168 169.909 185.909 152 208 152C230.091 152 248 169.909 248 192C248 214.091 230.091 232 208 232C185.909 232 168 214.091 168 192Z" fill="black"/>
<path id="Vector (Stroke)_7" fill-rule="evenodd" clip-rule="evenodd" d="M56 336C51.5817 336 48 339.582 48 344C48 348.418 51.5817 352 56 352C60.4183 352 64 348.418 64 344C64 339.582 60.4183 336 56 336ZM16 344C16 321.909 33.9086 304 56 304C78.0914 304 96 321.909 96 344C96 366.091 78.0914 384 56 384C33.9086 384 16 366.091 16 344Z" fill="black"/>
</g>
</svg>
