<svg width="512" height="512" viewBox="0 0 512 512" fill="none" xmlns="http://www.w3.org/2000/svg">
<g id="apps-outline">
<path id="Vector (Stroke)" fill-rule="evenodd" clip-rule="evenodd" d="M104 80C90.7452 80 80 90.7452 80 104C80 117.255 90.7452 128 104 128C117.255 128 128 117.255 128 104C128 90.7452 117.255 80 104 80ZM48 104C48 73.0721 73.0721 48 104 48C134.928 48 160 73.0721 160 104C160 134.928 134.928 160 104 160C73.0721 160 48 134.928 48 104Z" fill="black"/>
<path id="Vector (Stroke)_2" fill-rule="evenodd" clip-rule="evenodd" d="M256 80C242.745 80 232 90.7452 232 104C232 117.255 242.745 128 256 128C269.255 128 280 117.255 280 104C280 90.7452 269.255 80 256 80ZM200 104C200 73.0721 225.072 48 256 48C286.928 48 312 73.0721 312 104C312 134.928 286.928 160 256 160C225.072 160 200 134.928 200 104Z" fill="black"/>
<path id="Vector (Stroke)_3" fill-rule="evenodd" clip-rule="evenodd" d="M408 80C394.745 80 384 90.7452 384 104C384 117.255 394.745 128 408 128C421.255 128 432 117.255 432 104C432 90.7452 421.255 80 408 80ZM352 104C352 73.0721 377.072 48 408 48C438.928 48 464 73.0721 464 104C464 134.928 438.928 160 408 160C377.072 160 352 134.928 352 104Z" fill="black"/>
<path id="Vector (Stroke)_4" fill-rule="evenodd" clip-rule="evenodd" d="M104 232C90.7452 232 80 242.745 80 256C80 269.255 90.7452 280 104 280C117.255 280 128 269.255 128 256C128 242.745 117.255 232 104 232ZM48 256C48 225.072 73.0721 200 104 200C134.928 200 160 225.072 160 256C160 286.928 134.928 312 104 312C73.0721 312 48 286.928 48 256Z" fill="black"/>
<path id="Vector (Stroke)_5" fill-rule="evenodd" clip-rule="evenodd" d="M256 232C242.745 232 232 242.745 232 256C232 269.255 242.745 280 256 280C269.255 280 280 269.255 280 256C280 242.745 269.255 232 256 232ZM200 256C200 225.072 225.072 200 256 200C286.928 200 312 225.072 312 256C312 286.928 286.928 312 256 312C225.072 312 200 286.928 200 256Z" fill="black"/>
<path id="Vector (Stroke)_6" fill-rule="evenodd" clip-rule="evenodd" d="M408 232C394.745 232 384 242.745 384 256C384 269.255 394.745 280 408 280C421.255 280 432 269.255 432 256C432 242.745 421.255 232 408 232ZM352 256C352 225.072 377.072 200 408 200C438.928 200 464 225.072 464 256C464 286.928 438.928 312 408 312C377.072 312 352 286.928 352 256Z" fill="black"/>
<path id="Vector (Stroke)_7" fill-rule="evenodd" clip-rule="evenodd" d="M104 384C90.7452 384 80 394.745 80 408C80 421.255 90.7452 432 104 432C117.255 432 128 421.255 128 408C128 394.745 117.255 384 104 384ZM48 408C48 377.072 73.0721 352 104 352C134.928 352 160 377.072 160 408C160 438.928 134.928 464 104 464C73.0721 464 48 438.928 48 408Z" fill="black"/>
<path id="Vector (Stroke)_8" fill-rule="evenodd" clip-rule="evenodd" d="M256 384C242.745 384 232 394.745 232 408C232 421.255 242.745 432 256 432C269.255 432 280 421.255 280 408C280 394.745 269.255 384 256 384ZM200 408C200 377.072 225.072 352 256 352C286.928 352 312 377.072 312 408C312 438.928 286.928 464 256 464C225.072 464 200 438.928 200 408Z" fill="black"/>
<path id="Vector (Stroke)_9" fill-rule="evenodd" clip-rule="evenodd" d="M408 384C394.745 384 384 394.745 384 408C384 421.255 394.745 432 408 432C421.255 432 432 421.255 432 408C432 394.745 421.255 384 408 384ZM352 408C352 377.072 377.072 352 408 352C438.928 352 464 377.072 464 408C464 438.928 438.928 464 408 464C377.072 464 352 438.928 352 408Z" fill="black"/>
</g>
</svg>
