<svg width="512" height="512" viewBox="0 0 512 512" fill="none" xmlns="http://www.w3.org/2000/svg">
<g id="basketball-outline">
<path id="Vector (Stroke)" fill-rule="evenodd" clip-rule="evenodd" d="M256 80C158.798 80 80 158.798 80 256C80 353.202 158.798 432 256 432C353.202 432 432 353.202 432 256C432 158.798 353.202 80 256 80ZM48 256C48 141.125 141.125 48 256 48C370.875 48 464 141.125 464 256C464 370.875 370.875 464 256 464C141.125 464 48 370.875 48 256Z" fill="black"/>
<path id="Vector (Stroke)_2" fill-rule="evenodd" clip-rule="evenodd" d="M255.74 58.3748C264.563 57.8832 272.114 64.637 272.605 73.4599C274.972 115.941 292.648 156.126 322.361 186.579C352.074 217.032 391.813 235.691 434.223 239.102C443.031 239.81 449.597 247.525 448.889 256.333C448.18 265.141 440.465 271.707 431.657 270.999C381.536 266.967 334.573 244.916 299.457 208.927C264.342 172.937 243.452 125.445 240.655 75.2402C240.163 66.4173 246.917 58.8665 255.74 58.3748Z" fill="black"/>
<path id="Vector (Stroke)_3" fill-rule="evenodd" clip-rule="evenodd" d="M58.315 255.797C58.8083 246.974 66.3606 240.221 75.1833 240.715C125.495 243.528 173.074 264.51 209.081 299.762C245.088 335.013 267.073 382.138 270.952 432.378C271.633 441.189 265.042 448.882 256.232 449.562C247.421 450.243 239.728 443.652 239.047 434.842C235.765 392.33 217.162 352.456 186.695 322.628C156.228 292.799 115.968 275.046 73.3966 272.665C64.5739 272.172 57.8216 264.619 58.315 255.797Z" fill="black"/>
<path id="Vector (Stroke)_4" fill-rule="evenodd" clip-rule="evenodd" d="M108.926 108.927C115.175 102.678 125.305 102.678 131.554 108.927L403.074 380.447C409.322 386.695 409.322 396.826 403.074 403.074C396.825 409.322 386.695 409.322 380.446 403.074L108.926 131.554C102.678 125.306 102.678 115.175 108.926 108.927Z" fill="black"/>
<path id="Vector (Stroke)_5" fill-rule="evenodd" clip-rule="evenodd" d="M403.074 108.927C409.322 115.175 409.322 125.306 403.074 131.554L131.554 403.074C125.305 409.322 115.175 409.322 108.926 403.074C102.678 396.826 102.678 386.695 108.926 380.447L380.446 108.927C386.695 102.678 396.825 102.678 403.074 108.927Z" fill="black"/>
</g>
</svg>
