<svg width="512" height="512" viewBox="0 0 512 512" fill="none" xmlns="http://www.w3.org/2000/svg">
<g id="book-outline">
<path id="Vector (Stroke)" fill-rule="evenodd" clip-rule="evenodd" d="M48.0001 80.0003C112.843 80.2969 158.041 88.4486 188.441 102.973C217.926 117.06 233.716 137.189 240.49 163.929C242.288 171.028 248.677 176 256 176C263.323 176 269.712 171.028 271.51 163.929C278.284 137.189 294.074 117.06 323.559 102.973C353.959 88.4486 399.157 80.2967 464 80.0001V368C348.512 368 291.793 388.702 255.999 424.088C220.329 388.864 163.534 368.036 48.2994 368C48.163 367.647 48.0001 367.025 48.0001 366.07V80.0003ZM35.7728 50.4083C39.6696 48.8028 43.8458 47.9843 48.0605 48.0002L48.0719 48.0003C114.761 48.2993 165.541 56.567 202.236 74.0995C226.104 85.5029 243.855 100.77 256 119.708C268.145 100.77 285.896 85.5029 309.764 74.0995C346.46 56.567 397.24 48.2993 463.928 48.0003L463.94 48.0002C468.154 47.9843 472.331 48.8028 476.227 50.4083C480.124 52.0138 483.665 54.3747 486.645 57.355C489.625 60.3353 491.986 63.8759 493.592 67.7728C495.193 71.6577 496.011 75.8203 496 80.0219V368C496 376.487 492.629 384.626 486.628 390.628C480.626 396.629 472.487 400 464 400C337.895 400 294.544 425.431 268.494 457.995C265.457 461.792 260.858 464.001 255.997 464C251.135 463.999 246.537 461.787 243.501 457.989C217.629 425.617 174.096 400 48.0001 400C38.349 400 29.9034 395.914 24.1127 389.113C18.5237 382.548 16.0001 374.217 16.0001 366.07V80.0252C15.9889 75.8225 16.8072 71.6588 18.4083 67.7728C20.0138 63.8759 22.3748 60.3352 25.355 57.355C28.3353 54.3748 31.8759 52.0138 35.7728 50.4083Z" fill="black"/>
<path id="Vector (Stroke)_2" fill-rule="evenodd" clip-rule="evenodd" d="M256 144C264.837 144 272 151.163 272 160V448C272 456.837 264.837 464 256 464C247.163 464 240 456.837 240 448V160C240 151.163 247.163 144 256 144Z" fill="black"/>
</g>
</svg>
