<svg width="512" height="512" viewBox="0 0 512 512" fill="none" xmlns="http://www.w3.org/2000/svg">
<g id="build-outline">
<g clip-path="url(#clip0)">
<path id="Rectangle 5 (Stroke)" fill-rule="evenodd" clip-rule="evenodd" d="M314.5 178.5L335.5 199.5L340.2 204C340.2 204 343.904 206.95 346.5 208.5C351.5 211.5 356.5 213 356.5 213C356.5 213 365.5 216.5 377 215C384.786 214.07 392 211 396 208.5C402.715 204.629 411 195.5 411 195.5L439.243 167.257L439.5 167C439.5 167 445.701 157.924 448 159C449.821 159.852 448 169 448 169L447.816 172.682L447.5 179L445.9 189.4L445.5 192C445.5 192 443.426 200.65 441.5 206C441.023 207.325 440.582 208.527 440.153 209.653C440.153 209.653 440.153 209.653 440.153 209.653C439.717 210.798 439.291 211.866 438.85 212.904C437.681 215.657 436.401 218.21 434.5 221.5C429.495 230.16 425.972 234.851 418.5 241.5C409.868 249.18 403.814 252.433 393 256.5C376.5 261.5 368.732 262.06 353 261.5C353 261.5 335.5 260.5 322 256.5C315 255 311.325 254.315 304.5 255C299.505 255.502 296.683 256.193 292 258C286.312 260.188 284.27 261.673 280.658 264.3C280.142 264.675 279.595 265.073 279 265.5C270 274 259.5 286 259.5 286L176.5 376L166.5 387L160 394L148 407L125 432C125 432 121 436.5 117.28 440.072C114 443 112.5 444 106 446.5C101 448.423 94.9999 448.5 92.9999 448C88.2147 447.874 82.9997 445.5 82.9997 445.5C82.9997 445.5 75.4999 442 72 437.5C68.4999 433.5 66.9999 430.5 65.4999 426.5C64.0865 422.573 63.2975 417.65 63.9999 412C64.3214 409.415 65.4998 405.5 65.4998 405.5C65.4998 405.5 68 398 73.4999 393C78.2707 388.663 85.9999 381.5 85.9999 381.5L97 371.5L109 360.5L119.5 351L131.5 340L148 325L236.386 244.117C236.386 244.117 240.245 241.157 244.5 236.5C245.714 235.171 247 233.5 247 233.5C247 233.5 253.669 225.5 256 213.5C257.36 206.497 257 200 256 195.232C255.229 191.868 254.626 189.652 254.082 187.655C253.215 184.468 252.499 181.84 251.5 176C250.373 169.411 249.5 159 249.5 159C249.5 159 249 147.5 250 139.5C250.803 133.048 252.844 123.325 255 118C263.5 93.0002 287.5 79.0003 287.5 79.0003C287.5 79.0003 292.756 75.7169 300.179 72.4102C303.735 70.8259 307.789 69.2363 312 67.9999C315.092 67.1166 318.075 66.4161 320.914 65.8635C331.164 63.8693 339.544 63.8038 344.406 64.0377C345.498 64.0903 346.412 64.1579 347.13 64.2222C347.13 64.2222 347.13 64.2222 347.13 64.2222C348.346 64.3311 349 64.4304 349 64.4304C349 64.4304 351.788 63.7171 352.7 64.8504C353.622 65.9967 351.324 67.418 349.946 68.1321C349.947 68.1321 349.946 68.1321 349.946 68.1321C349.401 68.4149 349 68.5868 349 68.5868L348.254 69.3398L307 111C307 111 300 117.5 297 135C296.161 146.265 297.646 151.032 299.045 155.524C299.199 156.017 299.351 156.506 299.5 157C301.5 162.5 304.5 167 304.5 167C304.5 167 307 171 310 174C311.667 175.843 314.5 178.5 314.5 178.5ZM329.791 146.616C330.047 147.22 330.391 147.921 330.769 148.605C330.991 149.007 331.167 149.302 331.253 149.441C331.256 149.446 331.259 149.45 331.261 149.454L331.386 149.641L331.54 149.888C331.547 149.897 331.554 149.908 331.562 149.921C331.646 150.047 331.803 150.277 332.004 150.553C332.428 151.136 332.682 151.42 332.679 151.423C332.678 151.424 332.665 151.411 332.639 151.385L333.191 151.937L333.723 152.525C333.719 152.52 333.758 152.563 333.849 152.659C333.943 152.757 334.066 152.884 334.217 153.038C334.525 153.351 334.875 153.698 335.228 154.043C335.576 154.382 335.888 154.681 336.109 154.893C336.219 154.997 336.303 155.077 336.353 155.124L336.395 155.164L336.396 155.165L336.397 155.166L336.399 155.168L336.403 155.171L336.767 155.513L340.127 158.873L342.627 161.372L347.627 166.373L357.881 176.627L361.113 179.722C361.232 179.812 361.357 179.906 361.487 180.002C362.213 180.543 362.678 180.863 362.859 180.988C362.95 181.05 362.969 181.064 362.914 181.031L362.938 181.045L362.962 181.06C363.563 181.42 364.413 181.826 365.26 182.164C365.597 182.299 365.852 182.391 365.981 182.436L366.913 182.715L367.402 182.906C367.589 182.955 367.898 183.029 368.302 183.105C369.606 183.348 371.252 183.479 372.861 183.269L373.032 183.247L373.203 183.226C374.233 183.103 375.562 182.785 376.946 182.279C378.153 181.839 378.88 181.448 379.024 181.371C379.052 181.356 379.058 181.353 379.04 181.364L379.523 181.062L380.017 180.778C379.998 180.789 380.025 180.768 380.096 180.714C380.44 180.452 381.821 179.399 383.974 177.352C385.007 176.371 385.908 175.458 386.541 174.8C386.852 174.477 387.084 174.23 387.22 174.084C387.28 174.019 387.321 173.975 387.339 173.955C387.341 173.953 387.343 173.951 387.345 173.95C387.352 173.942 387.353 173.941 387.346 173.948L387.824 173.421L395.872 165.373L408.872 152.373L408.873 152.372L415.074 146.171C415.955 144.993 417.194 143.394 418.637 141.719C419.993 140.143 422.648 137.172 426.126 134.482C427.785 133.199 431.131 130.789 435.8 129.049C440.267 127.385 450.358 124.771 461.567 130.019C472.868 135.309 477.139 144.85 478.483 148.434C480.057 152.629 480.486 156.3 480.647 158.139C480.986 162.03 480.711 165.537 480.539 167.349C480.342 169.422 480.069 171.286 479.861 172.568L479.378 182.24L476.926 198.174L476.618 199.461L456.998 194.757C476.618 199.461 476.618 199.462 476.617 199.463L476.617 199.465L476.615 199.471L476.612 199.484L476.577 199.63C476.555 199.72 476.526 199.841 476.489 199.992C476.415 200.293 476.312 200.712 476.183 201.225C475.927 202.246 475.564 203.665 475.13 205.282C474.328 208.273 473.046 212.844 471.608 216.84C468.989 224.113 466.818 229.531 462.205 237.512C455.826 248.55 450.253 256.08 439.772 265.406C427.619 276.219 417.946 281.307 404.264 286.452L403.283 286.821L402.28 287.125C381.871 293.31 370.512 294.143 351.862 293.48L351.518 293.467L351.175 293.448L353 261.5C351.175 293.448 351.172 293.448 351.169 293.448L351.162 293.447L351.116 293.444L351.031 293.439C350.965 293.435 350.883 293.43 350.784 293.424C350.587 293.412 350.323 293.394 349.999 293.372C349.352 293.327 348.459 293.26 347.364 293.168C345.184 292.984 342.153 292.693 338.634 292.258C332.214 291.464 323.054 290.057 314.223 287.562C311.409 286.968 310.504 286.824 309.899 286.761L309.871 286.759C309.673 286.737 309.212 286.688 307.697 286.84C306.079 287.002 305.665 287.111 305.628 287.12L305.624 287.121C305.552 287.138 305.09 287.249 303.518 287.855L303.503 287.861L303.489 287.866C302.462 288.261 301.956 288.493 301.757 288.588C301.707 288.612 301.675 288.628 301.657 288.638L301.638 288.648L301.64 288.646C301.644 288.644 301.644 288.644 301.638 288.648C301.637 288.648 301.636 288.649 301.636 288.649C301.602 288.669 301.403 288.793 300.739 289.268C300.41 289.503 300.05 289.765 299.547 290.13C296.192 293.391 292.513 297.258 289.388 300.643C287.648 302.528 286.169 304.167 285.132 305.326C284.615 305.904 284.212 306.358 283.945 306.66C283.812 306.811 283.713 306.923 283.651 306.993L283.582 307.073L283.58 307.074L283.579 307.075L283.578 307.077L283.307 307.387L200.101 397.61L190.064 408.651L183.514 415.705L183.449 415.775L148.707 453.495C148.686 453.518 148.664 453.543 148.641 453.569C148.489 453.738 148.281 453.97 148.023 454.254C147.51 454.82 146.792 455.605 145.942 456.517C144.301 458.277 141.916 460.78 139.444 463.154L139.024 463.557L138.59 463.944C136.489 465.82 133.369 468.531 128.927 471.113C124.982 473.406 120.957 475.033 117.487 476.367C111.408 478.705 105.513 479.676 101.022 480.049C98.2152 480.282 93.9629 480.456 89.4024 479.837C83.829 479.371 79.1455 478.043 76.4436 477.177C74.6615 476.607 73.1569 476.043 72.0486 475.602C71.4869 475.378 71.0071 475.178 70.6222 475.013C70.4293 474.93 70.2587 474.855 70.112 474.791C70.0386 474.758 69.9711 474.728 69.9096 474.7L69.8218 474.661L69.7813 474.642L69.7619 474.634L69.7524 474.629C69.7477 474.627 69.7431 474.625 82.9997 445.5C69.4674 474.498 69.463 474.496 69.4585 474.494L69.4492 474.49L69.4303 474.481L69.3902 474.462L69.3006 474.42C69.2369 474.39 69.1652 474.355 69.0858 474.317C68.9271 474.241 68.737 474.149 68.5187 474.042C68.0837 473.827 67.5288 473.547 66.8813 473.207C65.6071 472.537 63.8687 471.577 61.9184 470.365C58.9036 468.491 52.6294 464.363 47.4278 458.007C41.1861 450.737 38.0103 444.331 35.5374 437.736L35.4626 437.537L35.3904 437.336C32.3714 428.947 30.8874 418.966 32.2445 408.052C32.6707 404.624 33.4818 401.354 33.8787 399.811C34.1255 398.852 34.3544 398.022 34.5239 397.424C34.6098 397.121 34.6833 396.868 34.74 396.674C34.7684 396.577 34.7928 396.495 34.8126 396.428L34.8388 396.34L34.8538 396.29L34.8559 396.283L34.8569 396.28C34.8574 396.278 34.8579 396.277 65.4998 405.5C35.1421 395.38 35.1444 395.373 35.1467 395.367L35.1514 395.353L35.1809 395.265L35.2244 395.137C35.255 395.047 35.2888 394.949 35.3259 394.843C35.4001 394.631 35.4877 394.386 35.5888 394.111C35.7907 393.563 36.0497 392.888 36.3685 392.11C36.9993 390.572 37.9006 388.544 39.1047 386.25C41.3464 381.98 45.4122 375.288 51.9737 369.323C54.2676 367.237 57.3206 364.429 59.8409 362.103C61.0924 360.949 62.1968 359.928 62.988 359.196C63.3835 358.83 63.7002 358.537 63.9175 358.336L64.2487 358.029L64.2496 358.028L64.3615 357.925L75.3768 347.911L75.4744 347.822L87.4535 336.841L97.9536 327.341L109.925 316.367L126.397 301.393L126.474 301.322L215.807 219.573L216.75 218.85C216.762 218.84 216.777 218.827 216.795 218.813C216.942 218.693 217.246 218.44 217.66 218.074C218.516 217.318 219.688 216.215 220.876 214.915C220.87 214.922 221.045 214.724 221.345 214.353C221.465 214.205 221.564 214.08 221.625 214.003C221.645 213.978 221.659 213.96 221.667 213.949C221.668 213.947 221.668 213.947 221.669 213.946C221.672 213.943 221.675 213.939 221.676 213.938L221.996 213.522C222.133 213.321 222.392 212.926 222.701 212.374C223.486 210.97 224.237 209.2 224.587 207.398C224.816 206.217 224.904 205.052 224.888 203.993C224.875 203.065 224.785 202.365 224.714 201.969C224.15 199.534 223.758 198.092 223.278 196.33C223.097 195.663 222.903 194.95 222.682 194.12C221.767 190.675 220.936 187.109 219.958 181.397C219.211 177.026 218.624 171.919 218.251 168.365C218.055 166.49 217.898 164.847 217.789 163.667C217.734 163.075 217.691 162.594 217.662 162.253C217.647 162.083 217.635 161.947 217.627 161.849L217.612 161.678L217.612 161.676C217.612 161.675 217.612 161.674 249.5 159C217.53 160.39 217.53 160.388 217.53 160.386L217.53 160.382L217.526 160.297L217.52 160.137C217.514 160.008 217.508 159.837 217.5 159.625C217.485 159.203 217.467 158.621 217.448 157.909C217.411 156.492 217.375 154.521 217.375 152.25C217.375 148.024 217.495 141.56 218.245 135.546M467.291 183.306C467.29 183.309 467.247 183.359 467.162 183.448C467.249 183.348 467.291 183.303 467.291 183.306ZM329.791 146.616C329.146 144.49 329.029 144.189 328.962 143.877C328.941 143.782 328.925 143.685 328.9 143.535C328.862 143.31 328.659 142.068 328.813 138.949C329.563 135.277 330.478 133.187 330.908 132.334L368.625 94.2461C368.832 94.1114 369.042 93.9724 369.254 93.8292C370.659 92.8797 375.377 89.668 379.203 83.9898C381.286 80.8978 384.364 75.2253 384.848 67.4633C385.39 58.7824 382.472 50.8101 377.637 44.797C371.293 36.908 363.316 34.1663 359.129 33.1721C354.76 32.1348 351.066 32.1575 349.063 32.248C348.999 32.2509 348.935 32.254 348.872 32.2572C348.754 32.2481 348.634 32.239 348.513 32.2301C345.782 32.0298 342.11 31.8775 337.687 31.9725C328.882 32.1618 316.837 33.3374 303.209 37.2312L303.097 37.2631L302.985 37.2959C293.955 39.9471 285.93 43.5989 280.447 46.3683C277.628 47.7927 275.291 49.08 273.608 50.0433C272.763 50.5269 272.072 50.9344 271.557 51.2434C271.299 51.3981 271.085 51.5285 270.915 51.6321C270.915 51.6325 270.914 51.633 270.913 51.6334C270.803 51.6994 270.681 51.7734 270.547 51.8554C270.177 52.0814 269.716 52.3686 269.173 52.7166C268.09 53.4113 266.673 54.3553 265.009 55.5448C261.703 57.9079 257.297 61.3279 252.544 65.7866C243.438 74.3291 231.577 88.0685 224.974 106.914C221.516 115.884 219.17 128.128 218.247 135.531C218.247 135.535 218.246 135.539 218.246 135.543M249.5 159L217.612 161.674L217.558 161.033L217.53 160.39L249.5 159ZM65.4998 405.5L34.8579 396.277L34.9934 395.826L35.1421 395.38L65.4998 405.5ZM82.9997 445.5L69.7431 474.625L69.6049 474.562L69.4674 474.498L82.9997 445.5ZM416.826 161.29C416.826 161.294 416.826 161.297 416.825 161.301C416.837 161.086 416.847 161.068 416.826 161.29Z" fill="black"/>
<path id="Ellipse 9" d="M112 416C112 424.837 104.837 432 96 432C87.1634 432 80 424.837 80 416C80 407.163 87.1634 400 96 400C104.837 400 112 407.163 112 416Z" fill="black"/>
</g>
</g>
<defs>
<clipPath id="clip0">
<rect width="512" height="512" fill="white"/>
</clipPath>
</defs>
</svg>
