<svg width="512" height="512" viewBox="0 0 512 512" fill="none" xmlns="http://www.w3.org/2000/svg">
<g id="cart-outline">
<path id="Vector (Stroke)" fill-rule="evenodd" clip-rule="evenodd" d="M144 416C144 398.327 158.327 384 176 384C193.673 384 208 398.327 208 416C208 433.673 193.673 448 176 448C158.327 448 144 433.673 144 416Z" fill="black"/>
<path id="Vector (Stroke)_2" fill-rule="evenodd" clip-rule="evenodd" d="M368 416C368 398.327 382.327 384 400 384C417.673 384 432 398.327 432 416C432 433.673 417.673 448 400 448C382.327 448 368 433.673 368 416Z" fill="black"/>
<path id="Vector (Stroke)_3" fill-rule="evenodd" clip-rule="evenodd" d="M32 80C32 71.1634 39.1634 64 48 64H112C119.764 64 126.407 69.5737 127.757 77.2194L173.424 336H416C424.837 336 432 343.163 432 352C432 360.837 424.837 368 416 368H160C152.236 368 145.593 362.426 144.243 354.781L98.5763 96H48C39.1634 96 32 88.8366 32 80Z" fill="black"/>
<path id="Vector (Stroke)_4" fill-rule="evenodd" clip-rule="evenodd" d="M438.24 112C441.789 111.999 445.293 112.785 448.502 114.302C451.714 115.82 454.549 118.032 456.802 120.779C459.055 123.526 460.67 126.738 461.53 130.185C462.391 133.631 462.476 137.225 461.779 140.708C461.779 140.709 461.779 140.709 461.779 140.71L432.979 284.71C431.89 290.153 428.947 295.049 424.654 298.567C420.36 302.084 414.979 304.004 409.429 304L409.44 288V304H409.429H160C151.163 304 144 296.837 144 288C144 279.163 151.163 272 160 272H402.887L401.601 278.43L401.601 278.432L409.446 280.001L409.447 280.001L417.29 281.57L409.446 280L409.44 279.999L401.601 278.43C401.964 276.616 402.945 274.983 404.376 273.811C405.805 272.641 407.594 272.001 409.44 272H402.887L428.487 144H438.24C437.06 143.999 435.894 143.737 434.827 143.233C433.756 142.727 432.811 141.989 432.06 141.074C431.309 140.158 430.771 139.087 430.484 137.938C430.198 136.792 430.169 135.596 430.4 134.437L428.487 144H128C119.163 144 112 136.837 112 128C112 119.163 119.163 112 128 112H438.236C438.233 112 438.231 112 438.229 112L438.24 128V112Z" fill="black"/>
</g>
</svg>
