<svg width="512" height="512" viewBox="0 0 512 512" fill="none" xmlns="http://www.w3.org/2000/svg">
<g id="chatbubble-outline">
<path id="Vector (Stroke)" fill-rule="evenodd" clip-rule="evenodd" d="M255.83 64C149.208 64 63.6787 148.27 63.9999 251.29L64 251.315V251.341C63.9988 287.177 74.4732 322.229 94.1302 352.187C95.253 353.72 96.3033 355.306 97.2777 356.938L97.3551 357.067L97.43 357.198C99.0075 359.958 100.878 363.675 102.167 367.779C103.347 371.536 104.706 377.659 102.93 384.195L102.921 384.229L86.3952 444.007L143.543 423.382C149.225 421.045 155.314 419.851 161.46 419.87C161.47 419.87 161.481 419.87 161.491 419.87L161.43 435.87L161.448 419.87C161.452 419.87 161.456 419.87 161.46 419.87C167.215 419.878 172.919 420.941 178.291 423.005L178.302 423.01L178.314 423.014C181.557 424.267 194.477 429.066 207.252 432.642C219.811 436.157 243.003 440.42 259.41 440.42C365.5 440.42 447.997 355.239 448 251.496L464 251.49H448C447.995 238.62 446.633 225.787 443.935 213.203L443.932 213.187L443.928 213.17C425.935 128.34 348.743 64 255.83 64ZM32 251.365C31.6351 129.897 132.261 32 255.83 32C363.668 32 454.051 106.728 475.227 206.507C478.395 221.29 479.995 236.366 480 251.484V251.49C480 372.564 383.518 472.42 259.41 472.42C239.217 472.42 213.009 467.483 198.628 463.458C184.481 459.498 170.518 454.306 166.8 452.871C165.08 452.211 163.254 451.872 161.412 451.87L161.391 451.87L161.369 451.87C159.38 451.862 157.41 452.258 155.578 453.034L155.179 453.203L87.3194 477.694C84.5021 478.849 81.5333 479.597 78.5029 479.913L77.6496 480.003L76.7917 480C73.4049 479.99 70.0538 479.308 66.9327 477.993C63.8114 476.678 60.982 474.758 58.6084 472.342C56.2348 469.926 54.3641 467.063 53.1047 463.919C51.8454 460.776 51.2223 457.413 51.2717 454.027L51.2787 453.546L51.3146 453.066C51.4784 450.877 51.8681 448.711 52.4773 446.602L71.6269 377.334C71.2778 376.236 70.6113 374.779 69.7261 373.215C69.2445 372.418 68.7246 371.644 68.1682 370.897L67.8946 370.53L67.6425 370.148C44.396 334.893 32.0035 293.593 32 251.365Z" fill="black"/>
</g>
</svg>
