<svg width="512" height="512" viewBox="0 0 512 512" fill="none" xmlns="http://www.w3.org/2000/svg">
<g id="chatbubbles-outline">
<path id="Ellipse 4 (Stroke)" fill-rule="evenodd" clip-rule="evenodd" d="M466.713 282.994C461.263 295.783 454.364 307.849 446.214 319L464.97 374.298C471.429 393.341 453.01 411.407 434.096 404.582L368.5 380.913C344.691 391.25 318.286 397 290.49 397C185.285 397 100 314.62 100 213C100 111.38 185.285 29 290.49 29C395.695 29 480.98 111.38 480.98 213C482.955 223.954 481.655 249.952 466.713 282.994ZM448.98 215.861V213C448.98 130.089 379.076 61 290.49 61C201.904 61 132 130.089 132 213C132 295.911 201.904 365 290.49 365C313.842 365 335.914 360.174 355.757 351.56L367.411 346.5L429.329 368.843L410.57 313.537L420.379 300.117C427.117 290.898 432.798 280.954 437.275 270.448L437.412 270.127L437.556 269.809C443.878 255.829 447.113 243.778 448.603 234.592C449.349 229.993 449.64 226.213 449.69 223.358C449.714 221.936 449.678 220.807 449.621 219.972C449.593 219.559 449.561 219.24 449.534 219.012C449.507 218.783 449.487 218.674 449.488 218.677L448.98 215.861Z" fill="black"/>
<g id="Rectangle 2">
<path d="M53.5 222.5C53.5 222.5 62 212 73.5 217.5C84 224.182 82.5 234 82.5 234C74 257.5 63 265 64.5001 312C65.9589 328.958 67.5 335.5 72 347.5C75 359.5 86 376 90.1383 382.5C90.1383 382.5 92.5 387.5 92 393C91.5 398.5 90.1383 402.972 90.1383 402.972L64.5001 400C64.5001 400 62.7136 397.936 59.9815 394C51.7061 382.077 34.7552 352.973 32.4998 312C29.4997 257.5 53.5 222.5 53.5 222.5Z" fill="black"/>
<path d="M90.1383 402.972L64.5001 400C64.5001 400 62.7136 397.936 59.9815 394L48.5 451.5C48.5 451.5 45.4999 462.5 55 473C64.5001 483.5 78.5 479 78.5 479L137 456.5C137 456.5 179.5 474.5 222.5 468.5C246 466.5 276.5 456.5 292.5 445.5C303 438.281 300.5 427.5 297.5 424C292.5 415.5 283 414.5 278 417.5C257.5 429 233.495 436.158 216 437C198.505 437.842 180 438.5 152 427.5C137 422.5 130 425.5 130 425.5L82.5 443L90.1383 402.972Z" fill="black"/>
</g>
</g>
</svg>
