<svg width="512" height="512" viewBox="0 0 512 512" fill="none" xmlns="http://www.w3.org/2000/svg">
<g id="checkbox-outline">
<path id="Vector (Stroke)" fill-rule="evenodd" clip-rule="evenodd" d="M362.291 163.749C369.057 169.432 369.935 179.525 364.251 186.291L229.851 346.291C226.873 349.837 222.504 351.918 217.873 351.998C213.243 352.077 208.805 350.146 205.707 346.703L148.107 282.703C142.196 276.135 142.729 266.019 149.297 260.107C155.865 254.196 165.981 254.728 171.893 261.296L217.184 311.62L339.749 165.709C345.432 158.943 355.525 158.065 362.291 163.749Z" fill="black"/>
<path id="Vector (Stroke)_2" fill-rule="evenodd" clip-rule="evenodd" d="M112 80C94.3269 80 80 94.3269 80 112V400C80 417.673 94.3269 432 112 432H400C417.673 432 432 417.673 432 400V112C432 94.3269 417.673 80 400 80H112ZM48 112C48 76.6538 76.6538 48 112 48H400C435.346 48 464 76.6538 464 112V400C464 435.346 435.346 464 400 464H112C76.6538 464 48 435.346 48 400V112Z" fill="black"/>
</g>
</svg>
