<svg width="512" height="512" viewBox="0 0 512 512" fill="none" xmlns="http://www.w3.org/2000/svg">
<g id="checkmark-circle-outline">
<path id="Vector (Stroke)" fill-rule="evenodd" clip-rule="evenodd" d="M48 256C48 141.163 141.163 48 256 48C370.837 48 464 141.163 464 256C464 370.837 370.837 464 256 464C141.163 464 48 370.837 48 256ZM256 80C158.837 80 80 158.837 80 256C80 353.163 158.837 432 256 432C353.163 432 432 353.163 432 256C432 158.837 353.163 80 256 80Z" fill="black"/>
<path id="Vector (Stroke)_2" fill-rule="evenodd" clip-rule="evenodd" d="M362.291 163.749C369.057 169.432 369.935 179.525 364.251 186.291L229.851 346.291C226.873 349.837 222.504 351.919 217.873 351.998C213.243 352.077 208.805 350.146 205.707 346.703L148.107 282.703C142.196 276.135 142.729 266.019 149.297 260.107C155.865 254.196 165.981 254.728 171.893 261.297L217.184 311.62L339.749 165.709C345.432 158.943 355.525 158.065 362.291 163.749Z" fill="black"/>
</g>
</svg>
