<svg width="512" height="512" viewBox="0 0 512 512" fill="none" xmlns="http://www.w3.org/2000/svg">
<g id="chevron-down-circle-outline">
<path id="Vector (Stroke)" fill-rule="evenodd" clip-rule="evenodd" d="M48 256C48 141.163 141.163 48 256 48C370.837 48 464 141.163 464 256C464 370.837 370.837 464 256 464C141.163 464 48 370.837 48 256ZM256 80C158.837 80 80 158.837 80 256C80 353.163 158.837 432 256 432C353.163 432 432 353.163 432 256C432 158.837 353.163 80 256 80Z" fill="black"/>
<path id="Vector (Stroke)_2" fill-rule="evenodd" clip-rule="evenodd" d="M148.686 204.686C154.935 198.438 165.065 198.438 171.314 204.686L256 289.373L340.686 204.686C346.935 198.438 357.065 198.438 363.314 204.686C369.562 210.935 369.562 221.065 363.314 227.314L267.314 323.314C261.065 329.562 250.935 329.562 244.686 323.314L148.686 227.314C142.438 221.065 142.438 210.935 148.686 204.686Z" fill="black"/>
</g>
</svg>
