<svg width="512" height="512" viewBox="0 0 512 512" fill="none" xmlns="http://www.w3.org/2000/svg">
<g id="chevron-up-circle-outline">
<path id="Vector (Stroke)" fill-rule="evenodd" clip-rule="evenodd" d="M244.686 188.686C250.935 182.438 261.065 182.438 267.314 188.686L363.314 284.686C369.562 290.935 369.562 301.065 363.314 307.314C357.065 313.562 346.935 313.562 340.686 307.314L256 222.627L171.314 307.314C165.065 313.562 154.935 313.562 148.686 307.314C142.438 301.065 142.438 290.935 148.686 284.686L244.686 188.686Z" fill="black"/>
<path id="Vector (Stroke)_2" fill-rule="evenodd" clip-rule="evenodd" d="M48 256C48 141.163 141.163 48 256 48C370.837 48 464 141.163 464 256C464 370.837 370.837 464 256 464C141.163 464 48 370.837 48 256ZM256 80C158.837 80 80 158.837 80 256C80 353.163 158.837 432 256 432C353.163 432 432 353.163 432 256C432 158.837 353.163 80 256 80Z" fill="black"/>
</g>
</svg>
