<svg width="512" height="512" viewBox="0 0 512 512" fill="none" xmlns="http://www.w3.org/2000/svg">
<g id="chevron-back-circle-outline">
<path id="Vector (Stroke)" fill-rule="evenodd" clip-rule="evenodd" d="M48 256C48 141.163 141.163 48 256 48C370.837 48 464 141.163 464 256C464 370.837 370.837 464 256 464C141.163 464 48 370.837 48 256ZM256 80C158.837 80 80 158.837 80 256C80 353.163 158.837 432 256 432C353.163 432 432 353.163 432 256C432 158.837 353.163 80 256 80Z" fill="black"/>
<path id="Vector (Stroke)_2" fill-rule="evenodd" clip-rule="evenodd" d="M307.314 148.686C313.562 154.935 313.562 165.065 307.314 171.314L222.627 256L307.314 340.686C313.562 346.935 313.562 357.065 307.314 363.314C301.065 369.562 290.935 369.562 284.686 363.314L188.686 267.314C182.438 261.065 182.438 250.935 188.686 244.686L284.686 148.686C290.935 142.438 301.065 142.438 307.314 148.686Z" fill="black"/>
</g>
</svg>
