<svg width="512" height="512" viewBox="0 0 512 512" fill="none" xmlns="http://www.w3.org/2000/svg">
<g id="clipboard-outline">
<path id="Vector (Stroke)" fill-rule="evenodd" clip-rule="evenodd" d="M144 80C135.513 80 127.374 83.3714 121.373 89.3726C115.371 95.3737 112 103.513 112 112V432C112 440.487 115.371 448.626 121.373 454.627C127.374 460.629 135.513 464 144 464H368C376.487 464 384.626 460.629 390.627 454.627C396.629 448.626 400 440.487 400 432V112C400 103.513 396.629 95.3737 390.627 89.3726C384.626 83.3714 376.487 80 368 80H336V48H368C384.974 48 401.253 54.7428 413.255 66.7452C425.257 78.7475 432 95.0261 432 112V432C432 448.974 425.257 465.253 413.255 477.255C401.253 489.257 384.974 496 368 496H144C127.026 496 110.747 489.257 98.7452 477.255C86.7428 465.253 80 448.974 80 432V112C80 95.0261 86.7428 78.7475 98.7452 66.7452C110.747 54.7428 127.026 48 144 48H176V80H144Z" fill="black"/>
<path id="Vector (Stroke)_2" fill-rule="evenodd" clip-rule="evenodd" d="M202.13 48C196.535 48 192 52.5354 192 58.13V69.87C192 75.4646 196.535 80 202.13 80H309.87C315.465 80 320 75.4646 320 69.87V58.13C320 52.5354 315.465 48 309.87 48H202.13ZM160 58.13C160 34.8622 178.862 16 202.13 16H309.87C333.138 16 352 34.8622 352 58.13V69.87C352 93.1378 333.138 112 309.87 112H202.13C178.862 112 160 93.1378 160 69.87V58.13Z" fill="black"/>
</g>
</svg>
