<svg width="512" height="512" viewBox="0 0 512 512" fill="none" xmlns="http://www.w3.org/2000/svg">
<g id="close-outline">
<path id="Vector (Stroke)" fill-rule="evenodd" clip-rule="evenodd" d="M132.686 132.686C138.935 126.438 149.065 126.438 155.314 132.686L379.314 356.686C385.562 362.935 385.562 373.065 379.314 379.314C373.065 385.562 362.935 385.562 356.686 379.314L132.686 155.314C126.438 149.065 126.438 138.935 132.686 132.686Z" fill="black"/>
<path id="Vector (Stroke)_2" fill-rule="evenodd" clip-rule="evenodd" d="M379.314 132.686C385.562 138.935 385.562 149.065 379.314 155.314L155.314 379.314C149.065 385.562 138.935 385.562 132.686 379.314C126.438 373.065 126.438 362.935 132.686 356.686L356.686 132.686C362.935 126.438 373.065 126.438 379.314 132.686Z" fill="black"/>
</g>
</svg>
