<svg width="512" height="512" viewBox="0 0 512 512" fill="none" xmlns="http://www.w3.org/2000/svg">
<g id="close-circle-outline">
<path id="Vector (Stroke)" fill-rule="evenodd" clip-rule="evenodd" d="M48 256C48 141.163 141.163 48 256 48C370.837 48 464 141.163 464 256C464 370.837 370.837 464 256 464C141.163 464 48 370.837 48 256ZM256 80C158.837 80 80 158.837 80 256C80 353.163 158.837 432 256 432C353.163 432 432 353.163 432 256C432 158.837 353.163 80 256 80Z" fill="black"/>
<path id="Vector (Stroke)_2" fill-rule="evenodd" clip-rule="evenodd" d="M180.686 180.686C186.935 174.438 197.065 174.438 203.314 180.686L331.314 308.686C337.562 314.935 337.562 325.065 331.314 331.314C325.065 337.562 314.935 337.562 308.686 331.314L180.686 203.314C174.438 197.065 174.438 186.935 180.686 180.686Z" fill="black"/>
<path id="Vector (Stroke)_3" fill-rule="evenodd" clip-rule="evenodd" d="M331.314 180.686C337.562 186.935 337.562 197.065 331.314 203.314L203.314 331.314C197.065 337.562 186.935 337.562 180.686 331.314C174.438 325.065 174.438 314.935 180.686 308.686L308.686 180.686C314.935 174.438 325.065 174.438 331.314 180.686Z" fill="black"/>
</g>
</svg>
