<svg width="393" height="200" viewBox="0 0 393 200" fill="none" xmlns="http://www.w3.org/2000/svg">
<g id="discount">
<g id="discount_2">
<g id="Group 3">
<path id="Vector (Stroke)" fill-rule="evenodd" clip-rule="evenodd" d="M209.019 151.959C204.335 149.032 202.911 142.863 205.837 138.179L258.829 53.374C261.756 48.6904 267.925 47.266 272.609 50.1927C277.293 53.1194 278.717 59.2887 275.79 63.9724L222.798 148.777C219.872 153.461 213.702 154.885 209.019 151.959Z" fill="black"/>
<path id="Ellipse 1 (Stroke)" fill-rule="evenodd" clip-rule="evenodd" d="M275.318 137.673C279.736 137.673 283.318 134.092 283.318 129.673C283.318 125.255 279.736 121.673 275.318 121.673C270.9 121.673 267.318 125.255 267.318 129.673C267.318 134.092 270.9 137.673 275.318 137.673ZM275.318 149.673C286.364 149.673 295.318 140.719 295.318 129.673C295.318 118.628 286.364 109.673 275.318 109.673C264.272 109.673 255.318 118.628 255.318 129.673C255.318 140.719 264.272 149.673 275.318 149.673Z" fill="black"/>
<path id="Ellipse 2 (Stroke)" fill-rule="evenodd" clip-rule="evenodd" d="M208.318 76.6733C212.736 76.6733 216.318 73.0916 216.318 68.6733C216.318 64.255 212.736 60.6733 208.318 60.6733C203.9 60.6733 200.318 64.255 200.318 68.6733C200.318 73.0916 203.9 76.6733 208.318 76.6733ZM208.318 88.6733C219.364 88.6733 228.318 79.719 228.318 68.6733C228.318 57.6276 219.364 48.6733 208.318 48.6733C197.272 48.6733 188.318 57.6276 188.318 68.6733C188.318 79.719 197.272 88.6733 208.318 88.6733Z" fill="black"/>
</g>
<path id="Vector (Stroke) 2" fill-rule="evenodd" clip-rule="evenodd" d="M354.851 199.328H354.812H95.1602H95.105C88.025 199.304 81.2423 196.479 76.2377 191.472C76.2349 191.469 76.2321 191.466 76.2294 191.463L11.3142 126.548C11.3122 126.546 11.3102 126.544 11.3083 126.542C7.81772 123.06 5.04977 118.922 3.16364 114.366C1.27646 109.808 0.309353 104.922 0.317928 99.9883C0.326504 95.0548 1.31064 90.1718 3.21365 85.6203C5.11136 81.0814 7.8855 76.9613 11.3773 73.4959C11.387 73.4862 11.3968 73.4766 11.4065 73.467L76.3351 8.53825C76.3378 8.53549 76.3406 8.53273 76.3433 8.52997C81.348 3.52234 88.1307 0.697876 95.2107 0.673447L95.2659 0.67334L354.812 0.673386L354.851 0.673431C364.781 0.697754 374.296 4.65289 381.317 11.6739C388.338 18.6949 392.293 28.2105 392.318 38.1397V38.1789V161.823V161.862C392.294 171.791 388.338 181.307 381.317 188.328C374.296 195.349 364.781 199.304 354.851 199.328ZM354.786 167.328C356.251 167.321 357.654 166.736 358.69 165.7C359.726 164.664 360.311 163.261 360.318 161.797V38.2051C360.311 36.7404 359.726 35.3373 358.69 34.3013C357.654 33.2653 356.251 32.6803 354.786 32.6733C354.782 32.6733 354.777 32.6733 354.773 32.6733H97.4548L33.9785 96.1496L33.9231 96.2047C33.4156 96.7071 33.0126 97.305 32.7371 97.964C32.4616 98.6229 32.3191 99.3298 32.3179 100.044C32.3167 100.758 32.4566 101.466 32.7298 102.125C33.003 102.785 33.404 103.385 33.9097 103.889L33.9257 103.905L97.3492 167.328H354.786ZM98.8734 168.852L98.8651 168.844L98.8734 168.852Z" fill="black"/>
<path id="Vector" d="M90.7298 78.1519C95.1974 78.1519 99.5646 79.4766 103.279 81.9587C106.994 84.4407 109.889 87.9685 111.598 92.096C113.308 96.2234 113.755 100.765 112.884 105.147C112.012 109.528 109.861 113.553 106.702 116.712C103.543 119.871 99.5183 122.023 95.1366 122.894C90.7549 123.766 86.2131 123.318 82.0857 121.609C77.9582 119.899 74.4304 117.004 71.9484 113.289C69.4664 109.575 68.1416 105.208 68.1416 100.74C68.1416 94.7493 70.5214 89.0039 74.7575 84.7678C78.9937 80.5317 84.7391 78.1519 90.7298 78.1519Z" fill="black"/>
</g>
</g>
</svg>
