<svg width="416" height="416" viewBox="0 0 416 416" fill="none" xmlns="http://www.w3.org/2000/svg">
<g id="discount-circle">
<g id="discount circle">
<g id="Group 3">
<path id="Vector (Stroke)" fill-rule="evenodd" clip-rule="evenodd" d="M152.661 298.71C145.167 294.027 142.889 284.156 147.571 276.662L242.957 124.014C247.639 116.52 257.51 114.241 265.004 118.923C272.498 123.606 274.777 133.477 270.094 140.971L174.709 293.62C170.026 301.113 160.155 303.392 152.661 298.71Z" fill="black"/>
<path id="Ellipse 1 (Stroke)" fill-rule="evenodd" clip-rule="evenodd" d="M257 280.001C262.523 280.001 267 275.524 267 270.001C267 264.478 262.523 260.001 257 260.001C251.477 260.001 247 264.478 247 270.001C247 275.524 251.477 280.001 257 280.001ZM257 300.001C273.569 300.001 287 286.569 287 270.001C287 253.432 273.569 240.001 257 240.001C240.431 240.001 227 253.432 227 270.001C227 286.569 240.431 300.001 257 300.001Z" fill="black"/>
<path id="Ellipse 2 (Stroke)" fill-rule="evenodd" clip-rule="evenodd" d="M161 157.001C166.523 157.001 171 152.524 171 147.001C171 141.478 166.523 137.001 161 137.001C155.477 137.001 151 141.478 151 147.001C151 152.524 155.477 157.001 161 157.001ZM161 177.001C177.569 177.001 191 163.569 191 147.001C191 130.432 177.569 117.001 161 117.001C144.431 117.001 131 130.432 131 147.001C131 163.569 144.431 177.001 161 177.001Z" fill="black"/>
</g>
<path id="Vector (Stroke) 2" fill-rule="evenodd" clip-rule="evenodd" d="M0 208.001C0 93.1641 93.1634 0.000732422 208 0.000732422C322.837 0.000732422 416 93.1641 416 208.001C416 322.837 322.837 416.001 208 416.001C93.1634 416.001 0 322.837 0 208.001ZM208 32.0007C110.837 32.0007 32 110.837 32 208.001C32 305.164 110.837 384.001 208 384.001C305.163 384.001 384 305.164 384 208.001C384 110.837 305.163 32.0007 208 32.0007Z" fill="black"/>
</g>
</g>
</svg>
