<svg width="512" height="512" viewBox="0 0 512 512" fill="none" xmlns="http://www.w3.org/2000/svg">
<g id="fast-food-outline">
<path id="Vector (Stroke)" fill-rule="evenodd" clip-rule="evenodd" d="M78 400C86.8366 400 94 407.163 94 416C94 430.694 98.2977 442.869 105.072 451.057C111.592 458.939 121.06 464 134 464H266C278.94 464 288.408 458.939 294.928 451.057C301.702 442.869 306 430.694 306 416C306 407.163 313.163 400 322 400C330.837 400 338 407.163 338 416C338 436.656 331.973 456.481 319.584 471.455C306.942 486.736 288.41 496 266 496H134C111.59 496 93.0577 486.736 80.4158 471.455C68.0273 456.481 62 436.656 62 416C62 407.163 69.1634 400 78 400Z" fill="black"/>
<path id="Vector (Stroke)_2" fill-rule="evenodd" clip-rule="evenodd" d="M64 352C58.3132 352 48 359.231 48 376C48 392.769 58.3132 400 64 400H336C341.687 400 352 392.769 352 376C352 359.231 341.687 352 336 352C327.163 352 320 344.837 320 336C320 327.163 327.163 320 336 320C365.653 320 384 348.589 384 376C384 403.411 365.653 432 336 432H64C34.3468 432 16 403.411 16 376C16 348.589 34.3468 320 64 320C72.8366 320 80 327.163 80 336C80 344.837 72.8366 352 64 352Z" fill="black"/>
<path id="Vector (Stroke)_3" fill-rule="evenodd" clip-rule="evenodd" d="M56 304C53.8783 304 51.8435 304.843 50.3431 306.343C48.8428 307.843 48 309.878 48 312C48 314.122 48.8428 316.157 50.3431 317.657C51.8435 319.157 53.8783 320 56 320H108.697C115.054 320.003 121.15 322.528 125.647 327.02L144 345.373L162.353 327.02C166.85 322.528 172.946 320.003 179.303 320H344C346.122 320 348.157 319.157 349.657 317.657C351.157 316.157 352 314.122 352 312C352 309.878 351.157 307.843 349.657 306.343C348.157 304.843 346.122 304 344 304H56ZM27.7157 283.716C35.2172 276.214 45.3913 272 56 272H344C354.609 272 364.783 276.214 372.284 283.716C379.786 291.217 384 301.391 384 312C384 322.609 379.786 332.783 372.284 340.284C364.783 347.786 354.609 352 344 352H182.627L158.15 376.477C158.148 376.48 158.146 376.482 158.144 376.484C156.287 378.34 154.084 379.813 151.659 380.819C149.231 381.825 146.628 382.343 144 382.343C141.372 382.343 138.769 381.825 136.341 380.819C133.916 379.813 131.713 378.34 129.856 376.484C129.854 376.482 129.852 376.48 129.85 376.477L105.373 352H56C45.3913 352 35.2172 347.786 27.7157 340.284C20.2143 332.783 16 322.609 16 312C16 301.391 20.2143 291.217 27.7157 283.716Z" fill="black"/>
<path id="Vector (Stroke)_4" fill-rule="evenodd" clip-rule="evenodd" d="M103.186 225.904C89.0095 236.909 80 253.167 80 275.78V276C80 284.837 72.8366 292 64 292C55.1634 292 48 284.837 48 276V275.78C48 243.393 61.4905 217.761 83.5638 200.626C105.178 183.847 133.921 176 164 176H236C266.105 176 294.852 183.915 316.46 200.755C338.436 217.881 351.902 243.434 351.999 275.648C352 275.692 352 275.736 352 275.78C352 275.853 352 275.927 352 276H320C320 253.38 310.984 237.057 296.79 225.995C282.148 214.585 260.895 208 236 208H164C139.079 208 117.822 214.543 103.186 225.904Z" fill="black"/>
<path id="Vector (Stroke)_5" fill-rule="evenodd" clip-rule="evenodd" d="M239.152 96.1072C247.929 95.0863 255.872 101.374 256.893 110.152L264.333 174.122C265.354 182.899 259.066 190.842 250.288 191.863C241.511 192.884 233.568 186.596 232.547 177.818L225.107 113.848C224.086 105.071 230.374 97.128 239.152 96.1072Z" fill="black"/>
<path id="Vector (Stroke)_6" fill-rule="evenodd" clip-rule="evenodd" d="M464.682 96.0885C473.47 97.0177 479.84 104.895 478.911 113.682L443.154 451.854C442.19 463.828 436.77 475.01 427.959 483.185C419.082 491.422 407.42 496 395.31 496H256C247.163 496 240 488.836 240 480C240 471.163 247.163 464 256 464H395.31C399.346 464 403.234 462.474 406.192 459.728C409.151 456.983 410.963 453.22 411.265 449.195L411.283 448.951L447.089 110.317C448.018 101.53 455.895 95.1594 464.682 96.0885Z" fill="black"/>
<path id="Vector (Stroke)_7" fill-rule="evenodd" clip-rule="evenodd" d="M446.146 26.8437C448.994 35.2089 444.521 44.2987 436.156 47.1464L397.408 60.3372L383.522 115.881C381.379 124.453 372.692 129.665 364.119 127.522C355.547 125.379 350.334 116.692 352.478 108.119L368.478 44.1194C369.796 38.8474 373.699 34.6048 378.844 32.8536L425.844 16.8536C434.209 14.0059 443.299 18.4786 446.146 26.8437Z" fill="black"/>
<path id="Vector (Stroke)_8" fill-rule="evenodd" clip-rule="evenodd" d="M208 112C208 103.163 215.163 96 224 96H480C488.837 96 496 103.163 496 112C496 120.837 488.837 128 480 128H224C215.163 128 208 120.837 208 112Z" fill="black"/>
</g>
</svg>
