<svg width="385" height="276" viewBox="0 0 385 276" fill="none" xmlns="http://www.w3.org/2000/svg">
<g id="features-delivery">
<g id="features delivery">
<path id="Vector" d="M214.463 231.881L166.463 214.511C164.754 213.898 162.871 213.987 161.228 214.759C159.585 215.532 158.315 216.925 157.697 218.632C157.079 220.339 157.164 222.222 157.932 223.867C158.7 225.513 160.09 226.786 161.795 227.408L209.789 244.779C210.636 245.086 211.535 245.223 212.434 245.182C213.334 245.142 214.217 244.924 215.033 244.543C215.849 244.161 216.582 243.622 217.189 242.957C217.797 242.292 218.267 241.514 218.574 240.667C218.881 239.82 219.018 238.921 218.978 238.021C218.937 237.122 218.72 236.239 218.338 235.423C217.956 234.607 217.418 233.874 216.753 233.267C216.088 232.659 215.31 232.188 214.463 231.881Z" fill="black"/>
<path id="Vector 2" d="M214.456 211.035L166.463 193.672C164.758 193.074 162.885 193.174 161.253 193.949C159.621 194.724 158.36 196.113 157.746 197.812C157.132 199.512 157.213 201.385 157.973 203.025C158.733 204.665 160.109 205.938 161.802 206.569L209.796 223.933C210.542 224.205 211.331 224.343 212.126 224.341C213.739 224.341 215.301 223.772 216.536 222.734C217.771 221.696 218.601 220.256 218.879 218.667C219.157 217.078 218.866 215.442 218.058 214.046C217.249 212.65 215.973 211.584 214.456 211.036V211.035Z" fill="black"/>
<path id="Vector 3" d="M378.074 32.5179L377.93 32.4551L279.93 10.9085L279.841 10.8885L234.935 1.01538C233.97 0.812268 232.974 0.809978 232.009 1.00866L88.2379 32.2241L88.1894 32.2349L88.0079 32.2741C87.1341 32.4804 86.31 32.8586 85.5838 33.3866C85.5101 33.4376 85.4147 33.4394 85.3427 33.4929C85.213 33.59 85.1619 33.7499 85.041 33.8554C84.4803 34.3388 84.0031 34.9112 83.6284 35.5496C83.4967 35.7477 83.376 35.9528 83.2668 36.164C82.8793 36.9715 82.6562 37.8479 82.6105 38.7423L82.6281 38.8737L82.6045 38.9775V216.172C82.6048 217.581 83.0395 218.957 83.8496 220.111C84.6596 221.265 85.8055 222.141 87.1313 222.62L231.131 274.732C231.878 275.002 232.667 275.141 233.462 275.14C234.256 275.142 235.045 275.004 235.792 274.732L379.792 222.62C381.118 222.141 382.264 221.265 383.074 220.111C383.884 218.957 384.318 217.581 384.319 216.172V39.2519C384.31 37.5514 383.663 35.9161 382.507 34.6692C381.351 33.4223 379.769 32.6547 378.074 32.5179ZM126.433 56.8393V66.1858L96.3188 55.4524V48.1046L104.782 50.558L126.433 56.8393ZM96.3188 70.0187L126.433 80.7522V87.0318L96.3188 76.2983V70.0187ZM140.147 56.5463L278.704 24.6789L301.43 29.6752L187.759 62.0466C187.619 62.0868 187.523 62.1906 187.388 62.2386C186.942 62.4103 186.516 62.6301 186.118 62.894C185.346 63.2767 184.697 63.8669 184.242 64.5983C183.672 65.2321 183.29 66.0121 183.139 66.8508C182.996 67.3011 182.902 67.7656 182.859 68.236C182.85 68.3783 182.777 68.4989 182.777 68.6436V144.481L166.9 123.836C165.974 122.634 164.676 121.773 163.209 121.386C161.742 121 160.188 121.11 158.79 121.699L140.147 129.581V56.5463ZM348.706 40.0707L233.468 73.5294L215.639 68.3674L329.687 35.8888L348.706 40.0707ZM240.319 85.8173L370.604 47.9892V56.5288L240.319 103.492V85.8173ZM226.604 85.8257V101.905L200.04 92.4351C198.895 92.0565 197.668 91.9946 196.491 92.256V77.1061L226.604 85.8257ZM196.491 105.737L226.604 116.473V122.751L200.04 113.281C198.894 112.907 197.668 112.848 196.491 113.108V105.737ZM240.319 118.066L370.604 71.1019V77.4525L240.319 124.336V118.066ZM233.455 14.7298L247.418 17.8002L132.323 44.271L118.34 40.2163L117.372 39.9351L233.455 14.7298ZM96.3188 211.364V90.8647L126.433 101.598V139.919C126.433 141.051 126.714 142.165 127.25 143.162C127.785 144.159 128.559 145.008 129.503 145.633C130.446 146.259 131.53 146.641 132.657 146.745C133.784 146.85 134.919 146.674 135.962 146.234L159.252 136.39L184.196 168.821C185.069 169.956 186.276 170.789 187.646 171.204C189.017 171.618 190.483 171.593 191.839 171.133C193.195 170.672 194.372 169.798 195.207 168.634C196.041 167.47 196.49 166.075 196.491 164.643V126.582L226.604 137.319V258.506L96.3188 211.364ZM240.319 258.51V138.919L370.604 92.0358V211.364L240.319 258.51Z" fill="black"/>
<path id="Vector 4" d="M344.535 154.25C344.109 153.998 343.654 153.795 343.182 153.646C343.025 153.579 342.951 153.409 342.788 153.353C342.695 153.321 342.603 153.374 342.51 153.347C341.34 152.993 340.096 152.967 338.912 153.271C338.664 153.347 338.421 153.439 338.184 153.546C337.122 153.935 336.175 154.586 335.432 155.439C335.354 155.531 335.222 155.54 335.147 155.636L319.143 176.26C318.062 177.659 317.568 179.423 317.764 181.18C317.563 180.93 317.343 180.696 317.107 180.479L301.538 169.417C301.108 169.161 300.651 168.956 300.174 168.806C300.022 168.741 299.948 168.574 299.79 168.52C299.701 168.49 299.613 168.541 299.525 168.515C298.335 168.15 297.067 168.126 295.864 168.447C295.656 168.513 295.451 168.591 295.251 168.679C294.144 169.069 293.16 169.745 292.399 170.638C292.331 170.719 292.215 170.726 292.149 170.81L276.151 191.442C275.591 192.153 275.177 192.967 274.933 193.839C274.689 194.71 274.621 195.621 274.731 196.519C274.841 197.417 275.127 198.285 275.574 199.072C276.021 199.858 276.62 200.549 277.335 201.103C278.05 201.657 278.868 202.065 279.741 202.301C280.615 202.538 281.526 202.599 282.424 202.482C283.321 202.364 284.186 202.07 284.969 201.617C285.752 201.163 286.437 200.559 286.986 199.839L290.709 195.045V217.138L284.602 219.312C282.888 219.922 281.486 221.187 280.705 222.829C279.924 224.472 279.828 226.358 280.437 228.071C281.046 229.785 282.311 231.187 283.954 231.968C285.597 232.749 287.482 232.846 289.196 232.236L331.526 217.172C331.762 217.144 331.996 217.103 332.227 217.048L353.316 209.416L353.529 209.341L353.534 209.338L353.562 209.328C353.883 209.167 354.191 208.979 354.481 208.768C354.978 208.54 355.446 208.254 355.877 207.917C356.119 207.64 356.337 207.344 356.531 207.031C356.875 206.655 357.177 206.242 357.429 205.8C357.565 205.414 357.667 205.017 357.734 204.614C357.895 204.175 358.01 203.719 358.077 203.256C358.054 202.849 357.997 202.445 357.904 202.049C357.89 201.553 357.82 201.061 357.694 200.581L357.684 200.563L357.681 200.548C357.47 200.089 357.207 199.655 356.896 199.256C356.718 198.899 356.51 198.558 356.275 198.236C355.937 197.93 355.57 197.659 355.178 197.427C354.857 197.145 354.512 196.894 354.146 196.675C353.972 196.594 353.77 196.599 353.59 196.533C352.952 196.265 352.277 196.095 351.588 196.031L351.459 196.05C350.603 196.01 349.746 196.134 348.936 196.416L347.423 196.954V173.125L352.157 176.489C353.64 177.542 355.48 177.963 357.274 177.659C359.067 177.355 360.666 176.351 361.719 174.868C362.772 173.385 363.193 171.545 362.889 169.751C362.586 167.958 361.582 166.359 360.099 165.306L344.535 154.25ZM304.424 212.258V188.294L309.165 191.663C310.235 192.44 311.508 192.888 312.829 192.951C314.15 193.015 315.461 192.69 316.6 192.019C317.739 191.347 318.657 190.357 319.241 189.17C319.824 187.983 320.049 186.652 319.886 185.34C320.032 185.53 320.188 185.711 320.355 185.884C321.065 186.439 321.878 186.849 322.747 187.089C323.616 187.329 324.524 187.395 325.418 187.282C326.313 187.169 327.176 186.881 327.959 186.433C328.741 185.985 329.427 185.386 329.977 184.672L333.708 179.864V201.836L304.424 212.258Z" fill="black"/>
<path id="Vector 5" d="M62.0324 41.9974H48.3181C46.4995 41.9974 44.7553 42.7199 43.4693 44.0058C42.1834 45.2918 41.4609 47.0359 41.4609 48.8546C41.4609 50.6732 42.1834 52.4173 43.4693 53.7033C44.7553 54.9893 46.4995 55.7117 48.3181 55.7117H62.0324C63.851 55.7117 65.5951 54.9893 66.8811 53.7033C68.1671 52.4173 68.8895 50.6732 68.8895 48.8546C68.8895 47.0359 68.1671 45.2918 66.8811 44.0058C65.5951 42.7199 63.851 41.9974 62.0324 41.9974Z" fill="black"/>
<path id="Vector 6" d="M62.0328 83.1404H34.6042C32.7856 83.1404 31.0414 83.8628 29.7555 85.1488C28.4695 86.4348 27.7471 88.1789 27.7471 89.9975C27.7471 91.8162 28.4695 93.5603 29.7555 94.8463C31.0414 96.1322 32.7856 96.8547 34.6042 96.8547H62.0328C63.8514 96.8547 65.5956 96.1322 66.8815 94.8463C68.1675 93.5603 68.8899 91.8162 68.8899 89.9975C68.8899 88.1789 68.1675 86.4348 66.8815 85.1488C65.5956 83.8628 63.8514 83.1404 62.0328 83.1404Z" fill="black"/>
<path id="Vector 7" d="M62.0322 124.283H20.8894C19.0707 124.283 17.3266 125.006 16.0406 126.292C14.7547 127.578 14.0322 129.322 14.0322 131.14C14.0322 132.959 14.7547 134.703 16.0406 135.989C17.3266 137.275 19.0707 137.997 20.8894 137.997H62.0322C63.8509 137.997 65.595 137.275 66.881 135.989C68.1669 134.703 68.8894 132.959 68.8894 131.14C68.8894 129.322 68.1669 127.578 66.881 126.292C65.595 125.006 63.8509 124.283 62.0322 124.283Z" fill="black"/>
<path id="Vector 8" d="M62.0326 165.426H7.1755C5.35687 165.426 3.61273 166.148 2.32677 167.434C1.04081 168.72 0.318359 170.465 0.318359 172.283C0.318359 174.102 1.04081 175.846 2.32677 177.132C3.61273 178.418 5.35687 179.14 7.1755 179.14H62.0326C63.8513 179.14 65.5954 178.418 66.8814 177.132C68.1673 175.846 68.8898 174.102 68.8898 172.283C68.8898 170.465 68.1673 168.72 66.8814 167.434C65.5954 166.148 63.8513 165.426 62.0326 165.426Z" fill="black"/>
<path id="Vector 9" d="M62.0326 206.569H7.1755C5.35687 206.569 3.61273 207.291 2.32677 208.577C1.04081 209.863 0.318359 211.607 0.318359 213.426C0.318359 215.245 1.04081 216.989 2.32677 218.275C3.61273 219.561 5.35687 220.283 7.1755 220.283H62.0326C63.8513 220.283 65.5954 219.561 66.8814 218.275C68.1673 216.989 68.8898 215.245 68.8898 213.426C68.8898 211.607 68.1673 209.863 66.8814 208.577C65.5954 207.291 63.8513 206.569 62.0326 206.569Z" fill="black"/>
</g>
</g>
</svg>
