<svg width="269" height="384" viewBox="0 0 269 384" fill="none" xmlns="http://www.w3.org/2000/svg">
<g id="features-payment">
<g id="features payment">
<path id="Vector" d="M160.059 0.000732422H32.0586C23.5748 0.0108947 15.4414 3.38558 9.4424 9.38454C3.44344 15.3835 0.0687559 23.5169 0.0585938 32.0007V262.401C0.0687559 270.885 3.44344 279.018 9.4424 285.017C15.4414 291.016 23.5748 294.391 32.0586 294.401H89.6586V311.252C89.6823 330.539 97.3545 349.029 110.992 362.667C124.63 376.305 143.121 383.977 162.407 384.001H262.459C264.156 384.001 265.784 383.327 266.984 382.126C268.184 380.926 268.859 379.298 268.859 377.601V214.452C268.838 198.469 263.401 182.966 253.435 170.471L192.059 93.7479V32.0007C192.048 23.5169 188.674 15.3835 182.675 9.38454C176.676 3.38558 168.542 0.0108947 160.059 0.000732422ZM160.059 12.8007C165.151 12.8007 170.034 14.8235 173.635 18.4242C177.236 22.0249 179.259 26.9085 179.259 32.0007V199.86L153.659 172.66V12.8007H160.059ZM140.859 159.06L129.908 147.425C127.53 144.946 124.738 142.899 121.659 141.377V12.8007H140.859V159.06ZM12.8586 262.401V32.0007C12.8586 26.9085 14.8814 22.0249 18.4821 18.4242C22.0828 14.8235 26.9664 12.8007 32.0586 12.8007H108.859V138.126H108.801C104.83 137.994 100.876 138.698 97.1935 140.19C93.5114 141.683 90.1835 143.932 87.425 146.791C82.2131 152.06 79.1542 159.084 78.8464 166.488C78.5387 173.893 81.0043 181.146 85.761 186.83L108.859 214.126V281.601H32.0586C26.9664 281.601 22.0828 279.578 18.4821 275.977C14.8814 272.377 12.8586 267.493 12.8586 262.401ZM141.499 281.601H121.659V229.255L140.859 251.943V271.719C140.878 275.023 141.092 278.322 141.499 281.601ZM243.431 178.471C251.593 188.689 256.045 201.375 256.059 214.452V371.201H162.407C146.514 371.182 131.276 364.86 120.038 353.622C108.799 342.383 102.477 327.146 102.459 311.252V294.401H144.027C147.63 307.358 154.23 319.287 163.294 329.222C172.359 339.158 183.633 346.823 196.206 351.598L200.686 339.604C186.896 334.38 175.017 325.093 166.62 312.972C158.222 300.85 153.703 286.465 153.659 271.719V249.601C153.66 248.087 153.125 246.623 152.148 245.466L95.5338 178.561C92.8334 175.335 91.4332 171.219 91.6072 167.016C91.7812 162.813 93.5168 158.826 96.4746 155.834C98.0482 154.214 99.9424 152.941 102.036 152.094C104.13 151.248 106.377 150.848 108.635 150.919C110.884 150.944 113.105 151.425 115.163 152.333C117.221 153.24 119.074 154.555 120.609 156.199L206.619 247.591L215.95 238.81L192.059 213.46V114.26L243.431 178.471Z" fill="black"/>
<path id="Vector 2" d="M44.8586 32.0007H32.0586V115.201H44.8586V32.0007Z" fill="black"/>
<path id="Vector 3" d="M76.8586 32.0007H64.0586V83.2007H76.8586V32.0007Z" fill="black"/>
<path id="Vector 4" d="M76.8586 211.201H38.4586C36.7612 211.201 35.1333 211.875 33.9331 213.075C32.7329 214.276 32.0586 215.903 32.0586 217.601V256.001C32.0586 257.698 32.7329 259.326 33.9331 260.526C35.1333 261.727 36.7612 262.401 38.4586 262.401H76.8586C78.556 262.401 80.1839 261.727 81.3841 260.526C82.5843 259.326 83.2586 257.698 83.2586 256.001V217.601C83.2586 215.903 82.5843 214.276 81.3841 213.075C80.1839 211.875 78.556 211.201 76.8586 211.201ZM70.4586 249.601H44.8586V224.001H70.4586V249.601Z" fill="black"/>
</g>
</g>
</svg>
