<svg width="385" height="374" viewBox="0 0 385 374" fill="none" xmlns="http://www.w3.org/2000/svg">
<g id="features-guarantee">
<g id="features guarantee">
<path id="Vector" d="M310.888 235.869C315.785 233.986 319.952 230.588 322.78 226.17C327.19 218.552 325.196 209.15 323.437 200.856C321.951 195.915 321.481 190.724 322.056 185.595C324.071 181.084 326.968 177.022 330.578 173.648C336.375 167.238 342.965 159.973 342.965 150.831C342.965 141.689 336.394 134.43 330.578 128.014C326.967 124.641 324.069 120.578 322.056 116.066C321.481 110.94 321.951 105.751 323.437 100.811C325.196 92.5182 327.19 83.1163 322.78 75.492C318.308 67.7624 309.086 64.7833 300.954 62.1572C296.017 61.0054 291.362 58.8717 287.266 55.8831C284.279 51.7899 282.147 47.1368 280.998 42.2014C278.372 34.0631 275.393 24.8594 267.657 20.369C260.039 15.9592 250.637 17.9473 242.344 19.7125C237.403 21.2014 232.211 21.6713 227.083 21.0937C222.572 19.0786 218.509 16.1809 215.136 12.5713C208.725 6.77406 201.46 0.184082 192.318 0.184082C183.177 0.184082 175.918 6.75548 169.501 12.5713C166.128 16.1822 162.066 19.0801 157.554 21.0937C152.428 21.6692 147.238 21.1994 142.299 19.7125C134.006 17.9473 124.61 15.9592 116.98 20.369C109.25 24.8408 106.271 34.0631 103.645 42.1952C102.493 47.1326 100.359 51.7877 97.3706 55.8831C93.2775 58.8703 88.6243 61.0021 83.689 62.151C75.5506 64.7771 66.3469 67.7252 61.8566 75.492C57.4467 83.1101 59.4411 92.512 61.2 100.805C62.6861 105.747 63.1559 110.938 62.5812 116.066C60.5662 120.578 57.6685 124.64 54.0588 128.014C48.2616 134.424 41.6716 141.689 41.6716 150.831C41.6716 159.973 48.2431 167.231 54.0588 173.648C57.6697 177.021 60.5677 181.083 62.5812 185.595C63.1558 190.721 62.6859 195.911 61.2 200.85C59.4411 209.144 57.4467 218.545 61.8566 226.17C64.6882 230.585 68.8538 233.983 73.7483 235.869L2.13176 307.485C1.26584 308.351 0.67617 309.455 0.437298 310.656C0.198426 311.858 0.321078 313.103 0.789747 314.234C1.25842 315.366 2.05206 316.333 3.07035 317.014C4.08864 317.694 5.28585 318.058 6.51063 318.058H62.253V367.607C62.2532 368.831 62.6166 370.028 63.2972 371.047C63.9778 372.065 64.945 372.859 66.0765 373.327C67.2081 373.796 68.4532 373.919 69.6545 373.68C70.8558 373.441 71.9592 372.851 72.8254 371.985L161.97 282.86C164.615 284.775 167.137 286.856 169.52 289.09C175.93 294.888 183.195 301.478 192.337 301.478C201.479 301.478 208.738 294.906 215.154 289.09C217.525 286.857 220.034 284.776 222.667 282.86L311.793 371.985C312.658 372.858 313.763 373.453 314.967 373.696C316.172 373.938 317.421 373.817 318.557 373.348C319.692 372.878 320.662 372.082 321.344 371.059C322.025 370.037 322.387 368.835 322.384 367.607V318.058H378.126C379.351 318.058 380.548 317.694 381.566 317.014C382.585 316.333 383.378 315.366 383.847 314.234C384.316 313.103 384.438 311.858 384.199 310.656C383.961 309.455 383.371 308.351 382.505 307.485L310.888 235.869ZM68.4465 305.671H21.462L86.6495 240.483C90.5495 241.492 94.1993 243.295 97.3706 245.779C100.358 249.872 102.49 254.525 103.639 259.46C106.265 267.599 109.244 276.802 116.98 281.293C124.598 285.696 133.993 283.708 142.293 281.949C143.569 281.683 144.857 281.416 146.127 281.169L74.6401 352.655V311.864C74.6401 310.222 73.9876 308.646 72.8261 307.485C71.6645 306.323 70.0892 305.671 68.4465 305.671ZM206.824 279.905C201.869 284.408 196.691 289.072 192.318 289.072C187.946 289.072 182.793 284.408 177.807 279.905C173.071 274.859 167.225 270.987 160.731 268.596C158.567 268.04 156.339 267.769 154.104 267.791C149.249 267.977 144.425 268.662 139.71 269.835C134.393 271.728 128.631 271.985 123.167 270.572C119.55 268.478 117.444 261.956 115.406 255.651C113.801 248.803 110.62 242.424 106.116 237.021C100.712 232.515 94.3303 229.334 87.4794 227.73C81.1744 225.687 74.6525 223.581 72.5653 219.97C71.1483 214.506 71.4051 208.743 73.3023 203.427C75.3398 196.611 75.7638 189.414 74.541 182.406C72.1474 175.917 68.2753 170.075 63.2315 165.342C58.7288 160.388 54.065 155.21 54.065 150.837C54.065 146.464 58.7288 141.311 63.2315 136.325C68.2827 131.59 72.1594 125.741 74.5534 119.244C75.7762 112.235 75.3522 105.039 73.3147 98.2225C71.4209 92.9058 71.1641 87.1434 72.5777 81.6794C74.6711 78.0623 81.193 75.9565 87.498 73.9188C94.3463 72.3134 100.725 69.1322 106.128 64.6284C110.634 59.2245 113.815 52.8428 115.419 45.9919C117.463 39.6868 119.568 33.165 123.179 31.0777C128.643 29.6608 134.406 29.9175 139.722 31.8148C146.539 33.852 153.735 34.2761 160.743 33.0535C167.233 30.6643 173.078 26.7964 177.813 21.7564C182.768 17.2536 187.946 12.5899 192.318 12.5899C196.691 12.5899 201.844 17.2536 206.83 21.7564C211.565 26.8022 217.412 30.6746 223.906 33.0659C230.914 34.2853 238.11 33.8612 244.927 31.8272C250.243 29.9299 256.006 29.6732 261.47 31.0901C265.087 33.1836 267.193 39.7054 269.23 46.0105C270.836 52.8587 274.017 59.2379 278.521 64.6408C283.925 69.1466 290.306 72.3279 297.157 73.9312C303.462 75.9751 309.984 78.0809 312.071 81.6918C313.488 87.1555 313.232 92.9188 311.334 98.2348C309.297 105.051 308.873 112.248 310.096 119.256C312.489 125.745 316.361 131.587 321.405 136.319C325.908 141.274 330.572 146.452 330.572 150.825C330.572 155.197 325.908 160.35 321.405 165.336C316.354 170.072 312.477 175.921 310.083 182.418C308.86 189.426 309.285 196.623 311.322 203.439C313.216 208.756 313.473 214.518 312.059 219.982C309.966 223.599 303.444 225.705 297.139 227.743C290.29 229.348 283.911 232.529 278.508 237.033C274.003 242.437 270.821 248.819 269.218 255.67C267.174 261.975 265.068 268.497 261.457 270.584C255.993 271.997 250.231 271.741 244.914 269.847C238.098 267.81 230.902 267.386 223.893 268.608C217.403 270.997 211.559 274.865 206.824 279.905ZM316.19 305.671C314.548 305.671 312.972 306.323 311.811 307.485C310.649 308.646 309.997 310.222 309.997 311.864V352.655L238.51 281.169C239.749 281.416 241.062 281.683 242.338 281.949C250.631 283.714 260.033 285.702 267.657 281.293C275.387 276.821 278.366 267.599 280.992 259.466C282.144 254.529 284.278 249.874 287.266 245.779C290.438 243.293 294.091 241.492 297.993 240.489L363.175 305.671H316.19Z" fill="black"/>
<path id="Vector 2" d="M303.803 150.831C303.803 128.781 297.264 107.227 285.014 88.8934C272.764 70.5598 255.353 56.2706 234.982 47.8325C214.61 39.3945 192.195 37.1868 170.569 41.4884C148.943 45.7901 129.078 56.408 113.487 71.9994C97.8947 87.5908 87.2769 107.455 82.9752 129.081C78.6735 150.707 80.8813 173.123 89.3193 193.494C97.7573 213.865 112.047 231.277 130.381 243.527C148.714 255.777 170.269 262.315 192.318 262.315C221.875 262.281 250.212 250.524 271.112 229.624C292.012 208.724 303.768 180.388 303.803 150.831ZM192.318 249.928C172.719 249.928 153.559 244.116 137.263 233.227C120.966 222.338 108.265 206.861 100.764 188.754C93.2631 170.646 91.3007 150.721 95.1244 131.498C98.9481 112.275 108.387 94.6175 122.246 80.7584C136.105 66.8994 153.762 57.4613 172.985 53.6376C192.208 49.8139 212.133 51.7764 230.241 59.2768C248.349 66.7773 263.826 79.4788 274.715 95.7753C285.604 112.072 291.416 131.231 291.416 150.831C291.384 177.104 280.934 202.291 262.356 220.869C243.779 239.447 218.591 249.897 192.318 249.928Z" fill="black"/>
<path id="Vector 3" d="M192.318 64.1204C175.169 64.1204 158.404 69.2059 144.145 78.7338C129.885 88.2616 118.771 101.804 112.208 117.648C105.645 133.492 103.928 150.927 107.274 167.747C110.62 184.567 118.878 200.018 131.005 212.144C143.131 224.271 158.582 232.529 175.402 235.875C192.222 239.221 209.657 237.504 225.501 230.941C241.345 224.378 254.887 213.264 264.415 199.004C273.943 184.745 279.028 167.98 279.028 150.831C279.004 127.841 269.86 105.801 253.604 89.5445C237.348 73.2885 215.308 64.145 192.318 64.1204ZM192.318 225.154C177.618 225.154 163.249 220.795 151.027 212.628C138.804 204.461 129.278 192.854 123.653 179.273C118.027 165.692 116.555 150.748 119.423 136.331C122.291 121.914 129.37 108.671 139.764 98.2764C150.158 87.8821 163.401 80.8035 177.819 77.9357C192.236 75.0679 207.18 76.5398 220.76 82.1651C234.341 87.7905 245.949 97.3166 254.116 109.539C262.282 121.761 266.641 136.131 266.641 150.831C266.62 170.536 258.783 189.428 244.849 203.362C230.915 217.295 212.023 225.133 192.318 225.154Z" fill="black"/>
<path id="Vector 4" d="M237.488 118.581L170.641 185.428L147.148 161.936L138.391 170.694L166.262 198.565C167.423 199.726 168.998 200.378 170.641 200.378C172.283 200.378 173.858 199.726 175.02 198.565L246.246 127.339L237.488 118.581Z" fill="black"/>
</g>
</g>
</svg>
