<svg width="385" height="384" viewBox="0 0 385 384" fill="none" xmlns="http://www.w3.org/2000/svg">
<g id="features-return">
<g id="features return">
<path id="Vector" d="M192.318 304.32C193.113 304.32 193.902 304.179 194.648 303.905L311.211 261.72C312.538 261.244 313.685 260.37 314.495 259.217C315.305 258.063 315.739 256.688 315.738 255.279V112.066C315.726 110.416 315.113 108.828 314.013 107.598C312.914 106.368 311.403 105.582 309.765 105.388C309.685 105.367 309.626 105.308 309.544 105.29L193.791 79.8451C192.828 79.6308 191.829 79.6308 190.865 79.8451L74.5483 105.102L74.4696 105.12L74.3015 105.156C73.4207 105.36 72.5904 105.741 71.8605 106.275C71.7919 106.323 71.7032 106.323 71.6362 106.374C71.5156 106.464 71.4679 106.615 71.3541 106.712C70.7824 107.2 70.2966 107.781 69.9169 108.43C69.7875 108.625 69.6685 108.827 69.5604 109.034C69.173 109.841 68.9499 110.717 68.9042 111.611L68.9226 111.746L68.8984 111.852V255.279C68.897 256.688 69.3311 258.064 70.1414 259.217C70.9517 260.37 72.0985 261.244 73.4249 261.721L189.988 303.905C190.734 304.181 191.523 304.321 192.318 304.32ZM107.974 128.34C108.588 128.85 109.287 129.249 110.038 129.52V134.05L82.6117 124.267V120.983L107.974 128.34ZM82.6117 138.82L106.161 147.22C106.768 147.515 107.437 147.661 108.111 147.645C108.786 147.629 109.446 147.451 110.038 147.128V163.19L82.6117 153.42V138.82ZM123.752 127.451L232.46 102.451L232.559 102.407L242.018 104.486L155.906 129.007C155.768 129.046 155.674 129.149 155.542 129.195C155.293 129.274 155.049 129.368 154.812 129.476C154.26 129.791 153.733 130.148 153.237 130.546C153.06 130.702 152.89 130.868 152.73 131.042C152.528 131.282 152.344 131.536 152.178 131.802C151.989 132.064 151.819 132.34 151.67 132.627C151.558 132.859 151.461 133.096 151.377 133.339C151.331 133.469 151.231 133.56 151.192 133.694C151.141 133.87 151.185 134.043 151.149 134.219C151.077 134.543 151.03 134.871 151.008 135.202C150.999 135.348 150.924 135.474 150.925 135.623L151.112 188.976L142.903 178.303C141.975 177.103 140.678 176.243 139.212 175.856C137.746 175.469 136.193 175.576 134.794 176.16L123.752 180.833V127.451ZM280.309 112.904L192.312 138.457L182.613 135.647L270.25 110.692L280.309 112.904ZM302.025 125.136L199.175 162.204V150.753L302.025 120.886V125.136ZM199.175 176.789L302.025 139.721V154.344L199.175 191.35V176.789ZM185.461 150.755V160.934L165.702 153.888C165.372 153.81 165.037 153.758 164.7 153.734L164.669 144.732L185.461 150.755ZM164.749 168.102L185.461 175.486V190.089L165.702 183.043C165.405 182.975 165.104 182.928 164.8 182.904L164.749 168.102ZM199.175 287.696V205.931L302.025 168.926V250.471L199.175 287.696ZM192.311 93.5583L201.32 95.5387L113.216 115.801C112.9 115.598 112.567 115.424 112.221 115.279L103.67 112.8L192.311 93.5583ZM82.6117 250.471V167.97L106.161 176.36C106.768 176.656 107.437 176.801 108.111 176.785C108.786 176.769 109.446 176.592 110.038 176.268V191.172C110.038 192.304 110.318 193.419 110.853 194.417C111.388 195.415 112.162 196.264 113.105 196.89C114.049 197.516 115.133 197.899 116.26 198.004C117.388 198.109 118.524 197.933 119.567 197.493L135.255 190.85L152.597 213.402C153.237 214.236 154.06 214.912 155.003 215.376C155.946 215.841 156.983 216.082 158.034 216.081C158.789 216.082 159.538 215.955 160.251 215.706C161.609 215.245 162.788 214.368 163.621 213.2C164.454 212.032 164.898 210.632 164.892 209.197L164.85 197.292L185.461 204.641V287.687L82.6117 250.471Z" fill="black"/>
<path id="Vector 2" d="M382.978 222.736L362.897 195.31C362.817 195.2 362.678 195.165 362.592 195.062C361.974 194.264 361.182 193.618 360.277 193.173C359.371 192.729 358.375 192.497 357.366 192.498C356.357 192.498 355.361 192.729 354.456 193.174C353.55 193.618 352.758 194.265 352.141 195.063C352.055 195.166 351.916 195.2 351.835 195.31L331.754 222.736C331.218 223.462 330.831 224.287 330.615 225.163C330.398 226.039 330.357 226.95 330.493 227.842C330.63 228.734 330.941 229.59 331.409 230.362C331.878 231.133 332.494 231.804 333.222 232.337C333.951 232.87 334.777 233.253 335.654 233.466C336.531 233.678 337.442 233.715 338.333 233.574C339.225 233.434 340.08 233.119 340.849 232.647C341.618 232.175 342.287 231.556 342.816 230.825L349.316 221.952C337.405 346.632 227.514 367.365 178.685 370.289C176.91 370.401 175.248 371.198 174.05 372.512C172.852 373.827 172.212 375.555 172.264 377.333C172.316 379.11 173.057 380.798 174.33 382.04C175.603 383.282 177.308 383.98 179.087 383.988L179.502 383.975C287.95 377.47 355.423 316.398 363.421 219.228L371.917 230.825C372.446 231.556 373.114 232.175 373.884 232.647C374.653 233.119 375.508 233.434 376.399 233.574C377.291 233.715 378.201 233.678 379.078 233.465C379.956 233.253 380.782 232.87 381.511 232.337C382.239 231.804 382.855 231.133 383.323 230.361C383.792 229.59 384.103 228.734 384.239 227.841C384.376 226.949 384.335 226.039 384.118 225.163C383.902 224.287 383.514 223.462 382.978 222.736Z" fill="black"/>
<path id="Vector 3" d="M41.8203 153.179L35.3202 162.052C47.2317 37.3727 157.123 16.6395 205.951 13.7156C206.856 13.6701 207.742 13.4458 208.56 13.0557C209.377 12.6656 210.109 12.1174 210.713 11.4428C211.318 10.7682 211.782 9.9806 212.08 9.12541C212.378 8.27022 212.504 7.36443 212.45 6.46038C212.396 5.55633 212.164 4.67193 211.766 3.85827C211.368 3.04461 210.813 2.31782 210.133 1.7199C209.453 1.12197 208.661 0.664741 207.803 0.374641C206.945 0.0845408 206.038 -0.0326879 205.134 0.0297276C96.6861 6.53395 29.2135 67.6061 21.2152 164.776L12.7197 153.179C12.1904 152.448 11.5219 151.829 10.7526 151.357C9.9833 150.886 9.12838 150.57 8.23694 150.43C7.34549 150.289 6.43507 150.326 5.55795 150.539C4.68084 150.751 3.85431 151.135 3.12584 151.667C2.39737 152.2 1.7813 152.871 1.31302 153.643C0.844732 154.414 0.533456 155.271 0.397065 156.163C0.260674 157.055 0.301853 157.965 0.518239 158.841C0.734626 159.717 1.12196 160.542 1.65799 161.268L21.7392 188.695C21.8254 188.813 21.9711 188.86 22.0639 188.972C22.5294 189.518 23.08 189.987 23.6944 190.359C23.9083 190.523 24.1322 190.674 24.3649 190.811C25.2649 191.269 26.2604 191.507 27.2701 191.507C28.2799 191.507 29.2753 191.269 30.1753 190.811C30.408 190.674 30.6319 190.523 30.8458 190.359C31.4602 189.987 32.0107 189.518 32.4762 188.971C32.569 188.86 32.7148 188.812 32.8009 188.694L52.8821 161.268C53.4181 160.542 53.8055 159.717 54.0218 158.841C54.2382 157.965 54.2794 157.055 54.143 156.163C54.0066 155.27 53.6953 154.414 53.2271 153.643C52.7588 152.871 52.1427 152.2 51.4142 151.667C50.6858 151.134 49.8592 150.751 48.9821 150.539C48.105 150.326 47.1946 150.289 46.3031 150.43C45.4117 150.57 44.5568 150.885 43.7875 151.357C43.0182 151.829 42.3497 152.448 41.8204 153.179H41.8203Z" fill="black"/>
</g>
</g>
</svg>
