<svg width="373" height="384" viewBox="0 0 373 384" fill="none" xmlns="http://www.w3.org/2000/svg">
<g id="features-support">
<path id="features support" d="M355.014 169.024H338.167C337.732 169.024 337.337 169.024 336.941 169.024V115.319C336.9 84.7751 324.758 55.4916 303.175 33.8787C281.592 12.2658 252.325 0.0843868 221.781 0.000732422H150.596C120.052 0.0843868 90.7854 12.2658 69.2022 33.8787C47.619 55.4916 35.4777 84.7751 35.436 115.319V169.143C35.001 169.143 34.6055 169.143 34.21 169.143H17.3631C12.8662 169.153 8.55463 170.936 5.36375 174.104C2.17287 177.273 0.359986 181.572 0.318359 186.069V249.344C0.328804 253.861 2.12793 258.19 5.32217 261.385C8.51641 264.579 12.8457 266.378 17.3631 266.388H34.1705C34.6055 266.388 35.001 266.388 35.3964 266.388V272.676C35.4069 277.194 37.206 281.523 40.4002 284.717C43.5945 287.912 47.9238 289.711 52.4411 289.721H69.2485C73.7659 289.711 78.0952 287.912 81.2894 284.717C84.4837 281.523 86.2828 277.194 86.2932 272.676V171.792C86.2828 167.275 84.4837 162.946 81.2894 159.751C78.0952 156.557 73.7659 154.758 69.2485 154.748H52.4807C52.0457 154.748 51.6502 154.748 51.2547 154.748V115.201C51.3173 88.8692 61.8025 63.6336 80.418 45.0107C99.0335 26.3878 124.265 15.8925 150.596 15.8194H221.781C248.133 15.8926 273.382 26.4042 292.001 45.0527C310.62 63.7012 321.091 88.9673 321.122 115.319V154.866C320.687 154.866 320.292 154.866 319.897 154.866H303.05C298.532 154.877 294.203 156.676 291.009 159.87C287.814 163.064 286.015 167.394 286.005 171.911V272.558C286.015 277.075 287.814 281.404 291.009 284.599C294.203 287.793 298.532 289.592 303.05 289.602H317.563C312.066 308.11 293.835 339.59 234.119 350.702C233.447 350.841 232.796 351.067 232.182 351.375V350.149C232.171 345.631 230.372 341.302 227.178 338.108C223.984 334.914 219.654 333.114 215.137 333.104H167.957C163.44 333.114 159.111 334.914 155.917 338.108C152.722 341.302 150.923 345.631 150.913 350.149V366.956C150.923 371.473 152.722 375.803 155.917 378.997C159.111 382.191 163.44 383.99 167.957 384.001H215.137C219.654 383.99 223.984 382.191 227.178 378.997C230.372 375.803 232.171 371.473 232.182 366.956V365.691C233.23 366.199 234.378 366.469 235.543 366.482C236.03 366.527 236.52 366.527 237.006 366.482C322.23 350.663 333.936 294.862 335.518 279.478C336.452 277.346 336.937 275.044 336.941 272.716V266.27C337.376 266.27 337.772 266.27 338.167 266.27H354.975C359.478 266.27 363.8 264.492 366.999 261.322C370.199 258.152 372.017 253.847 372.059 249.344V186.069C372.048 181.551 370.249 177.222 367.055 174.028C363.861 170.834 359.531 169.035 355.014 169.024ZM34.21 250.57H17.3631C17.0411 250.56 16.735 250.427 16.5072 250.2C16.2794 249.972 16.147 249.666 16.1371 249.344V186.069C16.147 185.747 16.2794 185.441 16.5072 185.213C16.735 184.985 17.0411 184.853 17.3631 184.843H34.1705C34.4925 184.853 34.7986 184.985 35.0264 185.213C35.2542 185.441 35.3865 185.747 35.3964 186.069V249.344C35.3872 249.659 35.2604 249.96 35.0409 250.187C34.8214 250.414 34.525 250.55 34.21 250.57ZM52.4807 170.566H69.2881C69.6101 170.576 69.9162 170.709 70.144 170.936C70.3718 171.164 70.5041 171.47 70.514 171.792V272.558C70.5041 272.88 70.3718 273.186 70.144 273.414C69.9162 273.641 69.6101 273.774 69.2881 273.784H52.4807C52.1587 273.774 51.8526 273.641 51.6248 273.414C51.397 273.186 51.2646 272.88 51.2547 272.558V171.792C51.2646 171.47 51.397 171.164 51.6248 170.936C51.8526 170.709 52.1587 170.576 52.4807 170.566ZM216.363 366.877C216.353 367.199 216.221 367.505 215.993 367.733C215.765 367.961 215.459 368.093 215.137 368.103H167.957C167.635 368.093 167.329 367.961 167.102 367.733C166.874 367.505 166.741 367.199 166.732 366.877V350.149C166.741 349.827 166.874 349.521 167.102 349.293C167.329 349.065 167.635 348.933 167.957 348.923H215.137C215.459 348.933 215.765 349.065 215.993 349.293C216.221 349.521 216.353 349.827 216.363 350.149V366.877ZM301.824 272.558V171.792C301.834 171.47 301.966 171.164 302.194 170.936C302.421 170.709 302.728 170.576 303.05 170.566H319.857C320.179 170.576 320.485 170.709 320.713 170.936C320.941 171.164 321.073 171.47 321.083 171.792V271.45C320.673 272.126 320.366 272.859 320.173 273.626C320.173 273.626 319.976 273.626 319.857 273.626H303.05C302.752 273.62 302.467 273.51 302.242 273.315C302.018 273.119 301.87 272.851 301.824 272.558ZM356.24 249.344C356.23 249.666 356.098 249.972 355.87 250.2C355.642 250.427 355.336 250.56 355.014 250.57H338.167C337.845 250.56 337.539 250.427 337.311 250.2C337.083 249.972 336.951 249.666 336.941 249.344V186.069C336.951 185.747 337.083 185.441 337.311 185.213C337.539 184.985 337.845 184.853 338.167 184.843H354.975C355.297 184.853 355.603 184.985 355.83 185.213C356.058 185.441 356.191 185.747 356.201 186.069L356.24 249.344Z" fill="black"/>
</g>
</svg>
