<svg width="512" height="512" viewBox="0 0 512 512" fill="none" xmlns="http://www.w3.org/2000/svg">
<g id="filter-outline">
<path id="Vector (Stroke)" fill-rule="evenodd" clip-rule="evenodd" d="M16 144C16 135.163 23.1634 128 32 128H480C488.837 128 496 135.163 496 144C496 152.837 488.837 160 480 160H32C23.1634 160 16 152.837 16 144Z" fill="black"/>
<path id="Vector (Stroke)_2" fill-rule="evenodd" clip-rule="evenodd" d="M96 256C96 247.163 103.163 240 112 240H400C408.837 240 416 247.163 416 256C416 264.837 408.837 272 400 272H112C103.163 272 96 264.837 96 256Z" fill="black"/>
<path id="Vector (Stroke)_3" fill-rule="evenodd" clip-rule="evenodd" d="M192 368C192 359.163 199.163 352 208 352H304C312.837 352 320 359.163 320 368C320 376.837 312.837 384 304 384H208C199.163 384 192 376.837 192 368Z" fill="black"/>
</g>
</svg>
