<svg width="512" height="512" viewBox="0 0 512 512" fill="none" xmlns="http://www.w3.org/2000/svg">
<g id="funnel-outline">
<path id="Vector (Stroke)" fill-rule="evenodd" clip-rule="evenodd" d="M46.0636 48L466.025 48C471.761 48.009 477.373 49.662 482.198 52.7631C487.023 55.8642 490.858 60.2834 493.249 65.4971C495.639 70.7109 496.485 76.5006 495.685 82.1802C494.886 87.8587 492.477 93.1894 488.741 97.5406C488.741 97.5414 488.74 97.5421 488.739 97.5429L320.141 293.981C320.1 294.029 320.058 294.077 320.017 294.124C320.008 294.134 320.002 294.146 320 294.159V439.966C320.013 443.751 319.129 447.486 317.419 450.864C315.698 454.262 313.192 457.201 310.108 459.436C307.024 461.671 303.451 463.137 299.686 463.714C295.927 464.29 292.085 463.963 288.478 462.758C288.473 462.756 288.467 462.755 288.462 462.753L208.338 436.092L208.266 436.067C203.487 434.452 199.34 431.367 196.419 427.253C193.517 423.167 191.972 418.273 192 413.262V294.105C191.999 294.091 191.993 294.078 191.983 294.067C191.959 294.039 191.935 294.011 191.91 293.982L23.2607 97.5429C23.2606 97.5428 23.2609 97.5431 23.2607 97.5429C19.5187 93.1845 17.1063 87.8428 16.3109 82.1536C15.5155 76.4643 16.3704 70.6662 18.7739 65.4484C21.1774 60.2307 25.0285 55.8128 29.8694 52.7197C34.7051 49.63 40.3254 47.9921 46.0636 48ZM50.375 80L216.159 273.102C221.165 278.875 223.946 286.246 224 293.888C224 293.925 224 293.963 224 294V407.578L288 428.874V294C288 293.976 288 293.951 288 293.927C288 293.895 288.001 293.862 288.001 293.83C288.082 286.191 290.887 278.833 295.91 273.08L461.626 80H50.375Z" fill="black"/>
</g>
</svg>
