<svg width="512" height="512" viewBox="0 0 512 512" fill="none" xmlns="http://www.w3.org/2000/svg">
<g id="gift-outline">
<path id="Vector (Stroke)" fill-rule="evenodd" clip-rule="evenodd" d="M284.447 37.4807C297.603 32.0312 312.08 30.6054 326.046 33.3835C340.013 36.1616 352.842 43.019 362.912 53.0883C372.981 63.1577 379.838 75.9869 382.617 89.9535C385.395 103.92 383.969 118.397 378.519 131.553C373.07 144.71 363.841 155.954 352.001 163.866C340.161 171.777 326.24 176 312 176H240V104C240 89.7598 244.223 75.8393 252.134 63.999C260.046 52.1586 271.291 42.9302 284.447 37.4807ZM319.804 64.7686C312.044 63.2252 304.002 64.0173 296.693 67.0448C289.384 70.0723 283.136 75.1993 278.741 81.7772C274.346 88.3552 272 96.0888 272 104V144H312C319.911 144 327.645 141.654 334.223 137.259C340.801 132.864 345.928 126.616 348.955 119.307C351.983 111.998 352.775 103.956 351.231 96.1964C349.688 88.4372 345.878 81.3099 340.284 75.7158C334.69 70.1217 327.563 66.312 319.804 64.7686Z" fill="black"/>
<path id="Vector (Stroke)_2" fill-rule="evenodd" clip-rule="evenodd" d="M215.307 67.0448C207.998 64.0173 199.956 63.2252 192.196 64.7686C184.437 66.312 177.31 70.1217 171.716 75.7158C166.122 81.3099 162.312 88.4372 160.769 96.1964C159.225 103.956 160.017 111.998 163.045 119.307C166.072 126.616 171.199 132.864 177.777 137.259C184.355 141.654 192.089 144 200 144H240V104C240 96.0888 237.654 88.3552 233.259 81.7772C228.864 75.1993 222.616 70.0724 215.307 67.0448ZM256 160C272 160 272 160 272 160V104C272 89.7598 267.777 75.8393 259.866 63.999C251.954 52.1586 240.71 42.9302 227.553 37.4807C214.397 32.0312 199.92 30.6054 185.954 33.3835C171.987 36.1616 159.158 43.019 149.088 53.0883C139.019 63.1577 132.162 75.9869 129.383 89.9535C126.605 103.92 128.031 118.397 133.481 131.553C138.93 144.71 148.159 155.954 159.999 163.866C171.839 171.777 185.76 176 200 176H272V160L256 160Z" fill="black"/>
<path id="Vector (Stroke)_3" fill-rule="evenodd" clip-rule="evenodd" d="M96 176C87.1634 176 80 183.163 80 192V240C80 248.837 87.1634 256 96 256H416C424.837 256 432 248.837 432 240V192C432 183.163 424.837 176 416 176H96ZM48 192C48 165.49 69.4903 144 96 144H416C442.51 144 464 165.49 464 192V240C464 266.51 442.51 288 416 288H96C69.4903 288 48 266.51 48 240V192Z" fill="black"/>
<path id="Vector (Stroke)_4" fill-rule="evenodd" clip-rule="evenodd" d="M96 256C104.837 256 112 263.163 112 272V416C112 424.487 115.371 432.626 121.373 438.627C127.374 444.629 135.513 448 144 448H368C376.487 448 384.626 444.629 390.627 438.627C396.629 432.626 400 424.487 400 416V272C400 263.163 407.163 256 416 256C424.837 256 432 263.163 432 272V416C432 432.974 425.257 449.253 413.255 461.255C401.253 473.257 384.974 480 368 480H144C127.026 480 110.747 473.257 98.7452 461.255C86.7428 449.253 80 432.974 80 416V272C80 263.163 87.1634 256 96 256Z" fill="black"/>
<path id="Vector (Stroke)_5" fill-rule="evenodd" clip-rule="evenodd" d="M256 144C264.837 144 272 151.163 272 160V464C272 472.837 264.837 480 256 480C247.163 480 240 472.837 240 464V160C240 151.163 247.163 144 256 144Z" fill="black"/>
</g>
</svg>
