<svg width="512" height="512" viewBox="0 0 512 512" fill="none" xmlns="http://www.w3.org/2000/svg">
<g id="grid-outline">
<path id="Vector (Stroke)" fill-rule="evenodd" clip-rule="evenodd" d="M68 64C65.7909 64 64 65.7909 64 68V204C64 206.209 65.7909 208 68 208H204C206.209 208 208 206.209 208 204V68C208 65.7909 206.209 64 204 64H68ZM32 68C32 48.1177 48.1177 32 68 32H204C223.882 32 240 48.1177 240 68V204C240 223.882 223.882 240 204 240H68C48.1177 240 32 223.882 32 204V68Z" fill="black"/>
<path id="Vector (Stroke)_2" fill-rule="evenodd" clip-rule="evenodd" d="M308 64C305.791 64 304 65.7909 304 68V204C304 206.209 305.791 208 308 208H444C446.209 208 448 206.209 448 204V68C448 65.7909 446.209 64 444 64H308ZM272 68C272 48.1177 288.118 32 308 32H444C463.882 32 480 48.1177 480 68V204C480 223.882 463.882 240 444 240H308C288.118 240 272 223.882 272 204V68Z" fill="black"/>
<path id="Vector (Stroke)_3" fill-rule="evenodd" clip-rule="evenodd" d="M68 304C65.7909 304 64 305.791 64 308V444C64 446.209 65.7909 448 68 448H204C206.209 448 208 446.209 208 444V308C208 305.791 206.209 304 204 304H68ZM32 308C32 288.118 48.1177 272 68 272H204C223.882 272 240 288.118 240 308V444C240 463.882 223.882 480 204 480H68C48.1177 480 32 463.882 32 444V308Z" fill="black"/>
<path id="Vector (Stroke)_4" fill-rule="evenodd" clip-rule="evenodd" d="M308 304C305.791 304 304 305.791 304 308V444C304 446.209 305.791 448 308 448H444C446.209 448 448 446.209 448 444V308C448 305.791 446.209 304 444 304H308ZM272 308C272 288.118 288.118 272 308 272H444C463.882 272 480 288.118 480 308V444C480 463.882 463.882 480 444 480H308C288.118 480 272 463.882 272 444V308Z" fill="black"/>
</g>
</svg>
