<svg width="512" height="512" viewBox="0 0 512 512" fill="none" xmlns="http://www.w3.org/2000/svg">
<g id="heart-outline">
<path id="Vector (Stroke)" fill-rule="evenodd" clip-rule="evenodd" d="M48.0009 176.646C48.6246 115.806 96.9577 64 159.08 64C197.211 64 225.259 82.8746 243.158 100.646C248.142 105.594 252.419 110.53 256 115.081C259.581 110.53 263.858 105.594 268.842 100.646C286.741 82.8746 314.789 64 352.92 64C415.042 64 463.375 115.806 463.999 176.646L463.999 176.65C465.182 295.312 369.837 377.404 274 442.459C268.692 446.07 262.42 448.001 256 448.001C249.58 448.001 243.308 446.07 238 442.459C142.153 377.404 46.8069 295.312 48.0008 176.649L48.0009 176.646ZM270.291 151.195C267.574 156.593 262.046 160 256 160C249.955 160 244.427 156.593 241.709 151.195C241.706 151.189 241.699 151.176 241.69 151.157C241.67 151.119 241.638 151.057 241.593 150.972C241.569 150.926 241.541 150.874 241.51 150.816C241.33 150.479 241.031 149.93 240.612 149.199C239.774 147.735 238.466 145.555 236.688 142.897C233.114 137.556 227.743 130.435 220.612 123.354C206.281 109.125 185.869 96 159.08 96C115.683 96 80.457 132.473 79.9992 176.971M270.291 151.195C270.295 151.188 270.301 151.175 270.31 151.157C270.34 151.099 270.4 150.984 270.49 150.816C270.67 150.479 270.969 149.93 271.388 149.199C272.226 147.735 273.534 145.555 275.312 142.897C278.886 137.556 284.257 130.435 291.388 123.354C305.719 109.125 326.131 96 352.92 96C396.316 96 431.542 132.472 432.001 176.97C432.998 276.962 352.692 350.368 256.014 415.992L256 416.001L255.985 415.991C159.298 350.368 78.9948 276.964 79.9992 176.974" fill="black"/>
</g>
</svg>
