<svg width="512" height="512" viewBox="0 0 512 512" fill="none" xmlns="http://www.w3.org/2000/svg">
<g id="help-circle-outline">
<path id="Vector (Stroke)" fill-rule="evenodd" clip-rule="evenodd" d="M149.331 96.3578C180.905 75.2606 218.026 64 256 64C306.922 64 355.758 84.2285 391.765 120.236C427.772 156.242 448 205.078 448 256C448 293.974 436.74 331.095 415.642 362.669C394.545 394.244 364.559 418.853 329.475 433.385C294.392 447.917 255.787 451.719 218.543 444.311C181.298 436.902 147.087 418.616 120.236 391.765C93.3839 364.913 75.0977 330.702 67.6893 293.457C60.2809 256.213 64.0832 217.608 78.6152 182.525C93.1472 147.441 117.756 117.455 149.331 96.3578ZM256 96C224.355 96 193.421 105.384 167.109 122.965C140.797 140.546 120.289 165.534 108.179 194.771C96.0693 224.007 92.9008 256.178 99.0744 287.214C105.248 318.251 120.487 346.761 142.863 369.137C165.239 391.513 193.749 406.752 224.786 412.926C255.823 419.099 287.993 415.931 317.229 403.821C346.466 391.711 371.454 371.203 389.035 344.891C406.616 318.579 416 287.645 416 256C416 213.565 399.143 172.869 369.137 142.863C339.131 112.857 298.435 96 256 96Z" fill="black"/>
<path id="Vector (Stroke)_2" fill-rule="evenodd" clip-rule="evenodd" d="M276.512 175.091C273.311 173.567 265.918 171.876 256.195 171.999C245.885 172.155 236.104 174.378 228.353 180.622L228.346 180.628C221.053 186.496 217.494 192.603 215.725 196.941C214.828 199.141 214.377 200.928 214.157 202.039C214.048 202.593 213.997 202.971 213.977 203.139C213.974 203.166 213.972 203.188 213.97 203.204C213.475 210.809 206.971 216.641 199.329 216.274C191.605 215.903 185.645 209.342 186.016 201.619L200 202.29C186.016 201.619 186.016 201.612 186.017 201.604L186.017 201.59L186.019 201.559L186.022 201.493C186.025 201.446 186.028 201.395 186.032 201.34C186.039 201.229 186.048 201.101 186.06 200.955C186.084 200.663 186.118 200.303 186.168 199.878C186.267 199.03 186.428 197.924 186.69 196.601C187.213 193.96 188.143 190.43 189.797 186.372C193.13 178.194 199.355 168.018 210.787 158.818C210.788 158.817 210.789 158.816 210.79 158.815C210.791 158.814 210.792 158.813 210.794 158.812C225.257 147.164 242.107 144.207 255.79 144.002L255.805 144.001L255.82 144.001C267.949 143.846 280.07 145.774 288.547 149.809M298 203.54C298 187.696 285.843 179.532 276.513 175.091L276.512 175.091M288.547 149.809C299.217 154.888 326 169.964 326 203.54C326 237.428 302.687 253.056 284.07 265.537C283.855 265.681 283.641 265.824 283.427 265.967C275.22 271.471 270.828 276.644 268.39 281.192C265.976 285.695 265 290.477 265 296C265 303.732 258.732 310 251 310C243.268 310 237 303.732 237 296C237 286.953 238.654 277.4 243.712 267.963C248.747 258.571 256.669 250.199 267.832 242.713C287.854 229.285 298 221.261 298 203.54" fill="black"/>
<path id="Vector" d="M250 368C261.046 368 270 359.046 270 348C270 336.954 261.046 328 250 328C238.954 328 230 336.954 230 348C230 359.046 238.954 368 250 368Z" fill="black"/>
</g>
</svg>
