<svg width="512" height="512" viewBox="0 0 512 512" fill="none" xmlns="http://www.w3.org/2000/svg">
<g id="help-outline">
<path id="Vector (Stroke)" fill-rule="evenodd" clip-rule="evenodd" d="M292.701 109.79C286.511 106.778 273.227 103.792 256.26 103.998C238.277 104.246 220.512 108.227 206.261 119.973M292.701 109.79C308.694 117.626 332 133.032 332 164C332 198.056 312.285 213.342 278.317 236.7C259.893 249.37 246.939 262.873 238.773 278.054C230.535 293.369 228 308.85 228 324C228 335.046 236.954 344 248 344C259.046 344 268 335.046 268 324C268 313.51 269.705 304.986 273.999 297.003C278.366 288.886 286.237 279.8 300.982 269.659L301.751 269.131C333.963 246.984 372 220.831 372 164C372 108.18 328.504 82.7856 310.277 73.8585L310.26 73.8505L310.244 73.8425C296.41 67.0981 276.227 63.7501 255.754 64.0015L255.741 64.0016L255.727 64.0018C232.695 64.3162 204.685 69.4359 180.819 89.1067L180.819 89.1072C161.614 104.937 151.399 122.914 146.026 137.115C143.351 144.188 141.869 150.334 141.048 154.859C140.636 157.126 140.388 159.001 140.238 160.403C140.163 161.104 140.112 161.688 140.079 162.145C140.062 162.374 140.049 162.571 140.039 162.735C140.034 162.817 140.03 162.891 140.027 162.957L140.022 163.049L140.021 163.09L140.02 163.109C140.019 163.119 140.019 163.128 160 164L140.019 163.128C139.537 174.163 148.093 183.499 159.128 183.981C170.093 184.459 179.38 176.016 179.971 165.083C179.975 165.026 179.987 164.882 180.011 164.658C180.065 164.151 180.18 163.242 180.405 162.002C180.857 159.512 181.742 155.754 183.438 151.269C186.811 142.356 193.365 130.603 206.261 119.973" fill="black"/>
<path id="Vector" d="M248 431.99C265.673 431.99 280 417.663 280 399.99C280 382.317 265.673 367.99 248 367.99C230.327 367.99 216 382.317 216 399.99C216 417.663 230.327 431.99 248 431.99Z" fill="black"/>
</g>
</svg>
