<svg width="512" height="512" viewBox="0 0 512 512" fill="none" xmlns="http://www.w3.org/2000/svg">
<g id="hourglass-outline">
<path id="Vector (Stroke)" fill-rule="evenodd" clip-rule="evenodd" d="M96.286 84.7161C93.2506 55.6052 117.237 32 145.61 32H366.39C394.722 32 418.804 55.5716 415.712 84.7315C408.885 150.304 382.623 183.372 358.16 206.608C354.008 210.553 349.797 214.317 345.974 217.733C344.48 219.069 343.045 220.351 341.696 221.571C336.683 226.103 332.597 229.992 329.275 233.824C323.006 241.056 320 247.417 320 256C320 264.663 323.008 271.122 329.224 278.429C332.513 282.295 336.561 286.223 341.522 290.786C342.94 292.09 344.458 293.47 346.044 294.909C349.755 298.281 353.831 301.983 357.836 305.831C382.071 329.123 408.315 362.112 415.708 427.133L415.708 427.136C419.039 456.487 394.609 480 366.39 480H145.61C117.395 480 92.9593 456.49 96.3023 427.134C96.3025 427.132 96.3028 427.13 96.303 427.128C103.694 362.086 129.955 329.339 154.199 306.174C158.802 301.776 162.886 298.09 166.569 294.766C172.972 288.987 178.16 284.304 182.751 278.881C188.925 271.586 192 264.992 192 256C192 247.086 188.925 240.591 182.699 233.372C179.39 229.535 175.317 225.654 170.317 221.143C168.897 219.862 167.377 218.508 165.79 217.095C162.04 213.756 157.917 210.084 153.874 206.266C129.4 183.155 103.115 150.325 96.2865 84.7208M145.61 64C134.385 64 127.232 72.9523 128.114 81.3992L128.114 81.4039C133.976 137.736 155.591 163.875 175.844 182.999C179.54 186.49 183.07 189.633 186.657 192.826C188.335 194.32 190.026 195.826 191.752 197.383C196.938 202.061 202.252 207.046 206.932 212.473C216.686 223.784 224 237.414 224 256C224 274.508 216.817 288.164 207.176 299.555C201.245 306.562 193.371 313.698 185.895 320.474C182.549 323.506 179.282 326.467 176.306 329.311C156.086 348.631 134.448 374.852 128.098 430.746L128.097 430.752C127.164 438.934 134.227 448 145.61 448H366.39C377.771 448 384.841 438.933 383.912 430.744C377.554 374.827 355.893 348.347 335.662 328.904C331.989 325.374 328.483 322.19 324.93 318.964C323.257 317.445 321.574 315.916 319.857 314.337C314.718 309.609 309.469 304.593 304.85 299.163C295.249 287.878 288 274.337 288 256C288 237.583 295.383 224.069 305.094 212.865C309.762 207.48 315.063 202.51 320.235 197.834C321.853 196.371 323.445 194.948 325.027 193.535C328.711 190.243 332.34 186.999 336.122 183.407C356.385 164.16 378.021 137.761 383.886 81.4039L383.89 81.3656C384.783 72.976 377.651 64 366.39 64H145.61Z" fill="black"/>
<path id="Vector" d="M343.3 432H169.13C153.53 432 149.13 414 160.07 402.84C186.55 376 240 356.78 240 326V224C240 204.15 202 189 178.49 156.8C174.61 151.49 175 144 184.86 144H327.59C336 144 337.82 151.43 333.99 156.75C310.82 189 272 204.05 272 224V326C272 356.53 327.71 373 352.4 402.87C362.35 414.91 358.87 432 343.3 432Z" fill="black"/>
</g>
</svg>
