<svg width="512" height="512" viewBox="0 0 512 512" fill="none" xmlns="http://www.w3.org/2000/svg">
<g id="information-circle-outline">
<path id="Vector (Stroke)" fill-rule="evenodd" clip-rule="evenodd" d="M48 248C48 137.553 137.553 48 248 48C358.447 48 448 137.553 448 248C448 358.447 358.447 448 248 448C137.553 448 48 358.447 48 248ZM248 80C155.227 80 80 155.227 80 248C80 340.773 155.227 416 248 416C340.773 416 416 340.773 416 248C416 155.227 340.773 80 248 80Z" fill="black"/>
<path id="Vector (Stroke)_2" fill-rule="evenodd" clip-rule="evenodd" d="M204 220C204 211.163 211.163 204 220 204H252C260.837 204 268 211.163 268 220V336C268 344.837 260.837 352 252 352C243.163 352 236 344.837 236 336V236H220C211.163 236 204 228.837 204 220Z" fill="black"/>
<path id="Vector (Stroke)_3" fill-rule="evenodd" clip-rule="evenodd" d="M192 340C192 331.163 199.163 324 208 324H296C304.837 324 312 331.163 312 340C312 348.837 304.837 356 296 356H208C199.163 356 192 348.837 192 340Z" fill="black"/>
<path id="Vector" d="M248 130C242.858 130 237.831 131.525 233.555 134.382C229.28 137.239 225.947 141.299 223.979 146.05C222.011 150.801 221.496 156.029 222.5 161.072C223.503 166.116 225.979 170.749 229.615 174.385C233.251 178.021 237.884 180.497 242.928 181.5C247.971 182.504 253.199 181.989 257.95 180.021C262.701 178.053 266.761 174.721 269.618 170.445C272.475 166.169 274 161.142 274 156C274 149.104 271.261 142.491 266.385 137.615C261.509 132.739 254.896 130 248 130Z" fill="black"/>
</g>
</svg>
