<svg width="512" height="512" viewBox="0 0 512 512" fill="none" xmlns="http://www.w3.org/2000/svg">
<g id="laptop-outline">
<path id="Vector (Stroke)" fill-rule="evenodd" clip-rule="evenodd" d="M80.14 112C71.2261 112 64 119.226 64 128.14V367.86C64 376.774 71.2261 384 80.14 384H431.86C440.774 384 448 376.774 448 367.86V128.14C448 119.226 440.774 112 431.86 112H80.14ZM32 128.14C32 101.553 53.553 80 80.14 80H431.86C458.447 80 480 101.553 480 128.14V367.86C480 394.447 458.447 416 431.86 416H80.14C53.553 416 32 394.447 32 367.86V128.14Z" fill="black"/>
<path id="Vector (Stroke)_2" fill-rule="evenodd" clip-rule="evenodd" d="M0 416C0 407.163 7.16344 400 16 400H496C504.837 400 512 407.163 512 416C512 424.837 504.837 432 496 432H16C7.16344 432 0 424.837 0 416Z" fill="black"/>
</g>
</svg>
