<svg width="512" height="512" viewBox="0 0 512 512" fill="none" xmlns="http://www.w3.org/2000/svg">
<g id="leaf-outline">
<path id="Vector (Stroke)" fill-rule="evenodd" clip-rule="evenodd" d="M57.8181 48.4566C62.6919 49.5756 65.9207 52.4206 67.6324 54.2339C67.6333 54.2348 67.6341 54.2357 67.635 54.2367C106.694 95.5915 146.948 106.915 190.345 114.795C196.437 115.901 202.654 116.94 208.975 117.996C247.346 124.41 289.514 131.458 330.572 157.98L321.89 171.42L330.572 157.98C425.297 219.159 451.915 322.382 406.299 400.099C382.539 440.579 336.503 461.572 287.901 463.448C239.054 465.334 185.436 448.183 143.314 409.738L143.309 409.733C86.0277 357.405 55.811 264.445 41.995 190.171C35.0009 152.571 31.9667 118.434 32.0127 94.6452C32.0351 83.086 32.7735 72.6921 34.6977 65.4113C35.2056 63.4897 35.9121 61.3232 36.9513 59.2099C37.902 57.2767 39.6952 54.2121 42.9396 51.7266C46.7545 48.8039 52.0813 47.1393 57.8181 48.4566ZM164.886 386.102C115.771 341.229 87.0389 257.343 73.4554 184.319C66.7612 148.332 63.9809 116.255 64.0125 94.8195C103.93 128.455 145.079 139.099 184.628 146.28C191.382 147.506 198.023 148.631 204.569 149.739C242.991 156.245 278.118 162.192 313.209 184.86L313.21 184.86C396.264 238.502 414.085 323.617 378.702 383.901C361.962 412.42 327.693 429.888 286.667 431.472C245.889 433.046 200.558 418.658 164.892 386.107C164.89 386.106 164.889 386.105 164.888 386.104" fill="black"/>
<path id="Vector (Stroke)_2" fill-rule="evenodd" clip-rule="evenodd" d="M161.353 242.03C167.411 235.597 177.538 235.294 183.97 241.353C267.93 320.431 354.041 366.741 467.433 384.186C476.167 385.53 482.158 393.699 480.814 402.433C479.47 411.167 471.301 417.158 462.567 415.814C341.959 397.259 250.07 347.569 162.03 264.647C155.597 258.589 155.294 248.463 161.353 242.03Z" fill="black"/>
</g>
</svg>
