<svg width="512" height="512" viewBox="0 0 512 512" fill="none" xmlns="http://www.w3.org/2000/svg">
<g id="list-outline">
<path id="Vector (Stroke)" fill-rule="evenodd" clip-rule="evenodd" d="M144 144C144 135.163 151.163 128 160 128H448C456.837 128 464 135.163 464 144C464 152.837 456.837 160 448 160H160C151.163 160 144 152.837 144 144Z" fill="black"/>
<path id="Vector (Stroke)_2" fill-rule="evenodd" clip-rule="evenodd" d="M144 256C144 247.163 151.163 240 160 240H448C456.837 240 464 247.163 464 256C464 264.837 456.837 272 448 272H160C151.163 272 144 264.837 144 256Z" fill="black"/>
<path id="Vector (Stroke)_3" fill-rule="evenodd" clip-rule="evenodd" d="M144 368C144 359.163 151.163 352 160 352H448C456.837 352 464 359.163 464 368C464 376.837 456.837 384 448 384H160C151.163 384 144 376.837 144 368Z" fill="black"/>
<path id="Vector (Stroke)_4" fill-rule="evenodd" clip-rule="evenodd" d="M48 144C48 126.327 62.3269 112 80 112C97.6731 112 112 126.327 112 144C112 161.673 97.6731 176 80 176C62.3269 176 48 161.673 48 144Z" fill="black"/>
<path id="Vector (Stroke)_5" fill-rule="evenodd" clip-rule="evenodd" d="M48 256C48 238.327 62.3269 224 80 224C97.6731 224 112 238.327 112 256C112 273.673 97.6731 288 80 288C62.3269 288 48 273.673 48 256Z" fill="black"/>
<path id="Vector (Stroke)_6" fill-rule="evenodd" clip-rule="evenodd" d="M48 368C48 350.327 62.3269 336 80 336C97.6731 336 112 350.327 112 368C112 385.673 97.6731 400 80 400C62.3269 400 48 385.673 48 368Z" fill="black"/>
</g>
</svg>
