<svg width="512" height="512" viewBox="0 0 512 512" fill="none" xmlns="http://www.w3.org/2000/svg">
<g id="location-outline">
<path id="Vector (Stroke)" fill-rule="evenodd" clip-rule="evenodd" d="M96 185C96 99.8134 168.422 32 256 32C343.578 32 416 99.8134 416 185C416 233.025 390.034 292.441 361.59 343.798C332.72 395.925 299.472 442.887 281.642 466.967C278.699 470.989 274.852 474.262 270.411 476.523C265.947 478.795 261.009 479.979 256 479.979C250.991 479.979 246.053 478.795 241.589 476.523C237.147 474.262 233.3 470.988 230.357 466.966C212.528 442.876 179.279 395.897 150.409 343.764C121.967 292.403 96 232.99 96 185ZM256 64C184.578 64 128 118.967 128 185C128 224.01 150.033 277.032 178.403 328.261C206.269 378.581 238.546 424.234 256 447.822C273.453 424.245 305.731 378.608 333.597 328.294C361.966 277.074 384 224.045 384 185C384 118.967 327.422 64 256 64Z" fill="black"/>
<path id="Vector (Stroke)_2" fill-rule="evenodd" clip-rule="evenodd" d="M256 160C238.327 160 224 174.327 224 192C224 209.673 238.327 224 256 224C273.673 224 288 209.673 288 192C288 174.327 273.673 160 256 160ZM192 192C192 156.654 220.654 128 256 128C291.346 128 320 156.654 320 192C320 227.346 291.346 256 256 256C220.654 256 192 227.346 192 192Z" fill="black"/>
</g>
</svg>
