<svg width="299" height="392" viewBox="0 0 299 392" fill="none" xmlns="http://www.w3.org/2000/svg">
<g id="note">
<g id="note_2">
<path id="Vector" d="M29.7846 4.00073C15.7498 4.00073 4.18457 15.566 4.18457 29.6008V362.401C4.18457 376.436 15.7498 388.001 29.7846 388.001H268.718C282.753 388.001 294.318 376.436 294.318 362.401V29.6008C294.318 15.566 282.753 4.00073 268.718 4.00073H29.7846ZM29.7846 21.0674H268.718C273.593 21.0674 277.251 24.7259 277.251 29.6008V362.401C277.251 367.275 273.593 370.934 268.718 370.934H29.7846C24.9095 370.934 21.2512 367.275 21.2512 362.401V29.6008C21.2512 24.7259 24.9095 21.0674 29.7846 21.0674ZM68.1846 76.5341C58.7595 76.5341 51.1179 84.1752 51.1179 93.6008C51.1179 103.026 58.7595 110.667 68.1846 110.667C77.6097 110.667 85.2513 103.026 85.2513 93.6008C85.2513 84.1752 77.6097 76.5341 68.1846 76.5341ZM123.651 85.0675C118.938 85.0675 115.118 88.8878 115.118 93.6008C115.118 98.3137 118.938 102.134 123.651 102.134H238.851C243.564 102.134 247.385 98.3137 247.385 93.6008C247.385 88.8878 243.564 85.0675 238.851 85.0675H123.651ZM68.1846 144.801C58.7595 144.801 51.1179 152.442 51.1179 161.867C51.1179 171.293 58.7595 178.934 68.1846 178.934C77.6097 178.934 85.2513 171.293 85.2513 161.867C85.2513 152.442 77.6097 144.801 68.1846 144.801ZM123.651 153.334C118.938 153.334 115.118 157.154 115.118 161.867C115.118 166.58 118.938 170.401 123.651 170.401H238.851C243.564 170.401 247.385 166.58 247.385 161.867C247.385 157.154 243.564 153.334 238.851 153.334H123.651ZM68.1846 213.067C58.7595 213.067 51.1179 220.709 51.1179 230.134C51.1179 239.56 58.7595 247.201 68.1846 247.201C77.6097 247.201 85.2513 239.56 85.2513 230.134C85.2513 220.709 77.6097 213.067 68.1846 213.067ZM123.651 221.601C118.938 221.601 115.118 225.421 115.118 230.134C115.118 234.847 118.938 238.667 123.651 238.667H238.851C243.564 238.667 247.385 234.847 247.385 230.134C247.385 225.421 243.564 221.601 238.851 221.601H123.651ZM68.1846 281.334C58.7595 281.334 51.1179 288.975 51.1179 298.401C51.1179 307.826 58.7595 315.467 68.1846 315.467C77.6097 315.467 85.2513 307.826 85.2513 298.401C85.2513 288.975 77.6097 281.334 68.1846 281.334ZM123.651 289.867C118.938 289.867 115.118 293.688 115.118 298.401C115.118 303.114 118.938 306.934 123.651 306.934H238.851C243.564 306.934 247.385 303.114 247.385 298.401C247.385 293.688 243.564 289.867 238.851 289.867H123.651Z" fill="black"/>
<path id="Vector (Stroke)" fill-rule="evenodd" clip-rule="evenodd" d="M0.18457 29.6008C0.18457 13.3569 13.5407 0.000732422 29.7846 0.000732422H268.718C284.962 0.000732422 298.318 13.3569 298.318 29.6008V362.401C298.318 378.645 284.962 392.001 268.718 392.001H29.7846C13.5407 392.001 0.18457 378.645 0.18457 362.401V29.6008ZM268.718 25.0674H29.7846C27.1187 25.0674 25.2512 26.9349 25.2512 29.6008V362.401C25.2512 365.066 27.1188 366.934 29.7846 366.934H268.718C271.384 366.934 273.251 365.066 273.251 362.401V29.6008C273.251 26.9349 271.384 25.0674 268.718 25.0674ZM47.1179 93.6008C47.1179 81.966 56.5505 72.5341 68.1846 72.5341C79.8187 72.5341 89.2513 81.966 89.2513 93.6008C89.2513 105.235 79.8187 114.667 68.1846 114.667C56.5504 114.667 47.1179 105.235 47.1179 93.6008ZM111.118 93.6008C111.118 86.6786 116.729 81.0675 123.651 81.0675H238.851C245.773 81.0675 251.385 86.6786 251.385 93.6008C251.385 100.523 245.773 106.134 238.851 106.134H123.651C116.729 106.134 111.118 100.523 111.118 93.6008ZM47.1179 161.867C47.1179 150.233 56.5505 140.801 68.1846 140.801C79.8187 140.801 89.2513 150.233 89.2513 161.867C89.2513 173.502 79.8187 182.934 68.1846 182.934C56.5504 182.934 47.1179 173.502 47.1179 161.867ZM111.118 161.867C111.118 154.945 116.729 149.334 123.651 149.334H238.851C245.773 149.334 251.385 154.945 251.385 161.867C251.385 168.79 245.773 174.401 238.851 174.401H123.651C116.729 174.401 111.118 168.79 111.118 161.867ZM47.1179 230.134C47.1179 218.499 56.5504 209.067 68.1846 209.067C79.8187 209.067 89.2513 218.499 89.2513 230.134C89.2513 241.769 79.8187 251.201 68.1846 251.201C56.5504 251.201 47.1179 241.769 47.1179 230.134ZM111.118 230.134C111.118 223.212 116.729 217.601 123.651 217.601H238.851C245.773 217.601 251.385 223.212 251.385 230.134C251.385 237.056 245.773 242.667 238.851 242.667H123.651C116.729 242.667 111.118 237.056 111.118 230.134ZM47.1179 298.401C47.1179 286.766 56.5504 277.334 68.1846 277.334C79.8187 277.334 89.2513 286.766 89.2513 298.401C89.2513 310.036 79.8187 319.467 68.1846 319.467C56.5504 319.467 47.1179 310.036 47.1179 298.401ZM111.118 298.401C111.118 291.479 116.729 285.867 123.651 285.867H238.851C245.773 285.867 251.385 291.479 251.385 298.401C251.385 305.323 245.773 310.934 238.851 310.934H123.651C116.729 310.934 111.118 305.323 111.118 298.401ZM4.18457 29.6008C4.18457 15.566 15.7498 4.00073 29.7846 4.00073H268.718C282.753 4.00073 294.318 15.566 294.318 29.6008V362.401C294.318 376.436 282.753 388.001 268.718 388.001H29.7846C15.7498 388.001 4.18457 376.436 4.18457 362.401V29.6008ZM268.718 21.0674H29.7846C24.9095 21.0674 21.2512 24.7259 21.2512 29.6008V362.401C21.2512 367.275 24.9095 370.934 29.7846 370.934H268.718C273.593 370.934 277.251 367.275 277.251 362.401V29.6008C277.251 24.7259 273.593 21.0674 268.718 21.0674ZM51.1179 93.6008C51.1179 84.1752 58.7595 76.5341 68.1846 76.5341C77.6097 76.5341 85.2513 84.1752 85.2513 93.6008C85.2513 103.026 77.6097 110.667 68.1846 110.667C58.7595 110.667 51.1179 103.026 51.1179 93.6008ZM115.118 93.6008C115.118 88.8878 118.938 85.0675 123.651 85.0675H238.851C243.564 85.0675 247.385 88.8878 247.385 93.6008C247.385 98.3137 243.564 102.134 238.851 102.134H123.651C118.938 102.134 115.118 98.3137 115.118 93.6008ZM51.1179 161.867C51.1179 152.442 58.7595 144.801 68.1846 144.801C77.6097 144.801 85.2513 152.442 85.2513 161.867C85.2513 171.293 77.6097 178.934 68.1846 178.934C58.7595 178.934 51.1179 171.293 51.1179 161.867ZM115.118 161.867C115.118 157.154 118.938 153.334 123.651 153.334H238.851C243.564 153.334 247.385 157.154 247.385 161.867C247.385 166.58 243.564 170.401 238.851 170.401H123.651C118.938 170.401 115.118 166.58 115.118 161.867ZM51.1179 230.134C51.1179 220.709 58.7595 213.067 68.1846 213.067C77.6097 213.067 85.2513 220.709 85.2513 230.134C85.2513 239.56 77.6097 247.201 68.1846 247.201C58.7595 247.201 51.1179 239.56 51.1179 230.134ZM115.118 230.134C115.118 225.421 118.938 221.601 123.651 221.601H238.851C243.564 221.601 247.385 225.421 247.385 230.134C247.385 234.847 243.564 238.667 238.851 238.667H123.651C118.938 238.667 115.118 234.847 115.118 230.134ZM51.1179 298.401C51.1179 288.975 58.7595 281.334 68.1846 281.334C77.6097 281.334 85.2513 288.975 85.2513 298.401C85.2513 307.826 77.6097 315.467 68.1846 315.467C58.7595 315.467 51.1179 307.826 51.1179 298.401ZM115.118 298.401C115.118 293.688 118.938 289.867 123.651 289.867H238.851C243.564 289.867 247.385 293.688 247.385 298.401C247.385 303.114 243.564 306.934 238.851 306.934H123.651C118.938 306.934 115.118 303.114 115.118 298.401Z" fill="black"/>
</g>
</g>
</svg>
