<svg width="512" height="512" viewBox="0 0 512 512" fill="none" xmlns="http://www.w3.org/2000/svg">
<g id="notifications-outline">
<path id="Vector (Stroke)" fill-rule="evenodd" clip-rule="evenodd" d="M196.768 80.555C203.924 56.5211 224.912 32 256 32C287.095 32 308.063 56.5221 315.273 80.5106C315.309 80.5554 315.358 80.6118 315.42 80.6767C315.568 80.8309 315.735 80.9727 315.894 81.0826C316.014 81.1662 316.087 81.2023 316.095 81.2065C334.192 88.6574 355.492 100.559 372.152 122.35C388.945 144.315 399.87 174.808 399.87 217.35C399.87 259.766 404.345 283.026 410.935 298.994C416.713 312.994 424.311 322.197 435.123 335.292C436.702 337.205 438.35 339.201 440.07 341.307L440.074 341.312C460 365.72 441.185 400 410.49 400H101.61C70.9717 400 51.8383 365.894 71.9297 341.307C73.6515 339.199 75.3003 337.202 76.8806 335.288C87.6907 322.195 95.2897 312.991 101.073 298.989C107.669 283.02 112.155 259.761 112.18 217.35M196.768 80.555C196.74 80.5877 196.706 80.6264 196.663 80.6702C196.527 80.8114 196.366 80.9477 196.206 81.0584C196.057 81.1611 195.967 81.2011 195.967 81.2013L195.957 81.2053C177.853 88.6607 156.545 100.54 139.884 122.325C123.092 144.282 112.181 174.771 112.18 217.341M256 64C243.681 64 231.917 74.2724 227.364 89.9358L227.352 89.9756C224.417 99.9782 216.289 107.444 208.142 110.795C208.141 110.795 208.14 110.796 208.139 110.796C192.854 117.091 177.229 126.171 165.303 141.765C153.509 157.186 144.18 180.495 144.18 217.35V217.359C144.154 261.593 139.55 289.656 130.649 311.206C122.906 329.953 112.096 342.981 101.371 355.907C99.8122 357.786 98.2554 359.662 96.71 361.553L96.7091 361.555C96.0723 362.334 95.8941 362.973 95.8505 363.455C95.8012 363.999 95.9037 364.651 96.2463 365.322C96.8409 366.487 98.3214 368 101.61 368H410.49C413.659 368 415.116 366.537 415.722 365.341C416.372 364.059 416.291 362.784 415.29 361.553C413.745 359.663 412.189 357.788 410.631 355.91C399.905 342.983 389.094 329.953 381.355 311.201C372.46 289.649 367.87 261.584 367.87 217.35C367.87 180.542 358.534 157.225 346.73 141.785C334.794 126.173 319.161 117.074 303.909 110.795C295.671 107.407 287.629 99.837 284.711 90.0011L284.699 89.9605C280.087 74.2647 268.319 64 256 64Z" fill="black"/>
<path id="Vector (Stroke)_2" fill-rule="evenodd" clip-rule="evenodd" d="M192 368C200.837 368 208 375.163 208 384V400C208 412.73 213.057 424.939 222.059 433.941C231.061 442.943 243.27 448 256 448C268.73 448 280.939 442.943 289.941 433.941C298.943 424.939 304 412.73 304 400V384C304 375.163 311.163 368 320 368C328.837 368 336 375.163 336 384V400C336 421.217 327.571 441.566 312.569 456.569C297.566 471.571 277.217 480 256 480C234.783 480 214.434 471.571 199.431 456.569C184.429 441.566 176 421.217 176 400V384C176 375.163 183.163 368 192 368Z" fill="black"/>
</g>
</svg>
