<svg width="512" height="512" viewBox="0 0 512 512" fill="none" xmlns="http://www.w3.org/2000/svg">
<g id="paw-outline">
<g clip-path="url(#clip0)">
<path id="Ellipse 5 (Stroke)" fill-rule="evenodd" clip-rule="evenodd" d="M364.524 186.298C356.123 198.159 338.746 215 313.758 211.533C288.77 208.067 276.635 187.132 271.78 173.432C266.324 158.035 265.108 139.886 267.571 122.137C270.033 104.388 276.143 87.2553 285.584 73.9255C293.985 62.064 311.361 45.2234 336.349 48.6899C361.337 52.1565 373.473 73.0913 378.328 86.7918C383.784 102.188 385 120.337 382.537 138.086C380.075 155.835 373.965 172.968 364.524 186.298ZM318.156 179.837C332.397 181.813 347.031 161.152 350.841 133.689C354.651 106.226 346.194 82.3621 331.952 80.3863C317.711 78.4106 303.077 99.0718 299.267 126.534C295.457 153.997 303.914 177.861 318.156 179.837Z" fill="black"/>
<path id="Ellipse 6 (Stroke)" fill-rule="evenodd" clip-rule="evenodd" d="M240.861 173.005C236.15 186.756 224.235 207.817 199.285 211.546C174.334 215.275 156.782 198.618 148.257 186.845C138.676 173.615 132.387 156.548 129.738 138.825C127.089 121.103 128.114 102.942 133.408 87.4896C138.119 73.7389 150.034 52.6777 174.984 48.9489C199.934 45.2201 217.487 61.8773 226.012 73.6499C235.592 86.8798 241.882 103.947 244.531 121.67C247.179 139.392 246.154 157.553 240.861 173.005ZM194.555 179.898C208.775 177.772 216.98 153.82 212.882 126.399C208.784 98.9785 193.934 78.4722 179.714 80.5974C165.494 82.7226 157.288 106.675 161.387 134.096C165.485 161.517 180.334 182.023 194.555 179.898Z" fill="black"/>
<path id="Ellipse 7 (Stroke)" fill-rule="evenodd" clip-rule="evenodd" d="M144.623 259.547C143.5 274.749 136.967 297.808 114.09 307.993C91.2129 318.179 69.7059 307.604 57.6573 298.267C44.4184 288.007 33.4391 272.987 25.9808 256.235C18.5225 239.484 14.7067 221.274 15.9408 204.57C17.064 189.368 23.5965 166.31 46.4737 156.124C69.351 145.939 90.8579 156.513 102.907 165.851C116.145 176.11 127.125 191.131 134.583 207.882C142.041 224.634 145.857 242.844 144.623 259.547ZM101.075 278.76C114.919 272.596 116.833 246.69 105.35 220.898C93.8662 195.106 73.3338 179.194 59.4893 185.358C45.6448 191.522 43.7308 217.427 55.2143 243.22C66.6977 269.012 87.2301 284.924 101.075 278.76Z" fill="black"/>
<path id="Ellipse 8 (Stroke)" fill-rule="evenodd" clip-rule="evenodd" d="M454.485 298.07C442.436 307.407 420.929 317.982 398.052 307.796C375.175 297.611 368.642 274.552 367.519 259.35C366.285 242.647 370.101 224.437 377.559 207.685C385.017 190.934 395.997 175.913 409.236 165.654C421.284 156.316 442.791 145.742 465.669 155.927C488.546 166.113 495.078 189.172 496.201 204.373C497.436 221.077 493.62 239.287 486.161 256.038C478.703 272.79 467.724 287.81 454.485 298.07ZM411.068 278.563C424.912 284.727 445.445 268.815 456.928 243.023C468.411 217.23 466.497 191.325 452.653 185.161C438.808 178.997 418.276 194.909 406.793 220.701C395.309 246.493 397.223 272.399 411.068 278.563Z" fill="black"/>
<path id="Rectangle 4 (Stroke)" fill-rule="evenodd" clip-rule="evenodd" d="M412.643 445.169L411.972 445.831C406.645 451.087 400.319 455.873 392.335 459.21C384.515 462.479 376.942 463.58 370.274 463.951L369.388 464H368.5C357.559 464 346.869 461.651 338.728 459.472C332.888 457.91 326.618 455.919 321.947 454.435C320.273 453.903 318.804 453.437 317.634 453.079L317.17 452.937L316.711 452.781C305.385 448.935 297.346 446.471 292.278 445.002C289.744 444.268 287.955 443.782 286.871 443.497C286.33 443.355 285.964 443.263 285.771 443.214C285.703 443.198 285.656 443.186 285.63 443.18C285.626 443.179 285.626 443.179 285.623 443.178C285.617 443.177 285.611 443.175 285.608 443.175L285.007 443.034L284.385 442.859C284.386 442.859 284.385 442.859 284.384 442.858C284.383 442.858 284.369 442.854 284.367 442.853C284.362 442.852 284.36 442.851 284.348 442.848C284.344 442.847 284.346 442.848 284.342 442.847C284.279 442.83 284.149 442.794 283.956 442.743C283.569 442.641 282.936 442.477 282.095 442.273C280.404 441.861 277.929 441.295 274.977 440.729C268.808 439.547 261.697 438.588 255.614 438.61L255.557 438.61H255.5C249.828 438.61 242.696 439.621 236.22 440.92C233.149 441.536 230.54 442.152 228.734 442.604C227.837 442.829 227.153 443.009 226.727 443.124C226.514 443.182 226.367 443.222 226.29 443.244L226.274 443.248L226.268 443.25L226.257 443.253L226.243 443.257L226.241 443.257L226.23 443.26L226.207 443.267L226.205 443.268L226.201 443.269L226.026 443.318C225.895 443.356 225.694 443.413 225.428 443.489C224.897 443.641 224.11 443.868 223.111 444.158C221.111 444.739 218.272 445.572 214.95 446.57C208.243 448.584 199.816 451.198 192.382 453.739L191.875 453.913L191.363 454.069C189.817 454.54 188.341 454.994 186.922 455.43C173.503 459.557 165.057 462.154 148.684 463.791C141.006 464.559 134.316 463.454 130.308 462.563C128.138 462.081 126.306 461.558 124.937 461.128C124.245 460.91 123.651 460.71 123.169 460.541C123.075 460.508 122.986 460.476 122.901 460.446C122.772 460.401 122.638 460.354 122.499 460.305C121.906 460.093 121.215 459.833 120.44 459.516C118.896 458.885 116.985 458.02 114.837 456.864C110.579 454.571 105.118 450.989 99.7384 445.593C93.1797 439.015 89.1749 432.086 86.7977 426.902C85.5892 424.266 84.7336 421.935 84.1416 420.101C83.9128 419.392 83.7204 418.748 83.5601 418.178C83.3247 417.435 83.0687 416.563 82.8102 415.572C82.2314 413.354 81.6269 410.49 81.2227 407.092C80.4159 400.308 80.3801 391.133 83.1528 380.746L83.3793 379.898L83.6519 379.063C85.8553 372.319 88.5973 365.635 93.2668 359.224C96.9971 354.102 101.48 350.013 104.009 347.706C104.298 347.443 104.561 347.202 104.795 346.987L105.788 346.07L106.854 345.24C115.082 338.841 120.989 335.297 124.67 333.088C125.671 332.488 126.507 331.986 127.18 331.552L127.568 331.303L128.615 330.671C145.139 320.697 152.613 316.186 161.674 306.789C165.694 302.619 168.763 298.27 172.263 292.589C173.085 291.255 174.065 289.609 175.164 287.764C178.083 282.863 181.844 276.548 185.727 270.89C186.655 269.539 187.573 268.141 188.529 266.686C192.904 260.026 198.072 252.157 208.57 242.001L209.852 240.762L211.263 239.672C211.272 239.665 211.304 239.637 211.359 239.591C212.21 238.871 218.445 233.599 225.635 230.149C234.465 225.912 244.267 224 255.5 224C265.698 224 275.237 225.408 284.249 229.245C293.182 233.048 299.293 238.327 302.927 241.545L304.144 242.623L305.247 243.82C314.651 254.029 317.323 256.99 327.415 272.723L327.543 272.922L327.667 273.122C331.942 280.008 334.747 284.63 336.852 288.098C338.925 291.513 340.318 293.808 341.764 296.041C343.684 299.005 345.085 300.894 350.013 306.612C353.91 311.136 361.283 316.913 369.436 322.295C373.197 324.778 376.607 326.843 379.06 328.276C380.278 328.987 381.24 329.531 381.865 329.88C382.178 330.055 382.405 330.18 382.537 330.252C382.602 330.287 382.643 330.31 382.661 330.319C382.661 330.319 382.66 330.319 382.661 330.319L382.667 330.323L383.134 330.573L383.624 330.859L367.5 358.5C367.5 358.5 339.556 343.5 325.77 327.5C317.584 317.999 316.198 315.72 309.189 304.195C306.976 300.557 304.204 295.998 300.48 290C291.762 276.408 290.094 274.598 282.418 266.268C282.187 266.018 281.952 265.762 281.71 265.5C275.5 260 270 256 255.5 256C242.049 256 237.041 260.021 232.415 263.736C231.882 264.163 231.355 264.587 230.82 265C223.036 272.531 219.851 277.353 215.683 283.666C214.592 285.317 213.435 287.07 212.11 289C208.837 293.768 206.069 298.42 203.347 302.995C198.076 311.855 192.976 320.427 184.71 329C172.702 341.454 161.941 347.943 146.551 357.223C145.876 357.63 145.193 358.042 144.5 358.46C142.98 359.439 141.612 360.261 140.239 361.087C136.645 363.25 133.012 365.435 126.5 370.5C126.242 370.738 125.991 370.969 125.746 371.196C119.8 376.672 117.364 378.916 114.07 389C111 400.5 114.23 409 114.23 409C114.23 409 115.92 416.5 122.4 423C127.884 428.5 133.5 430.25 133.5 430.25C133.5 430.25 139.5 432.55 145.5 431.95C158.633 430.637 164.383 428.872 177.633 424.806C179.012 424.383 180.472 423.935 182.03 423.46C198 418 217.48 412.48 217.48 412.48C217.48 412.48 238 406.61 255.5 406.61C273.5 406.546 293 412.04 293 412.04C293 412.04 303.5 414.5 327 422.48C328.726 423.008 330.564 423.592 332.488 424.203C343.384 427.666 357.026 432 368.5 432C377.5 431.5 383.153 429.311 389.5 423.05C394.5 417.5 396.251 414 397.82 408.5C401.527 395.5 396.5 385.5 396.5 385.5C396.5 385.5 395 378.739 387.11 372C379.5 365.5 367.5 358.5 367.5 358.5C383.624 330.859 383.626 330.86 383.628 330.861L383.632 330.864L383.715 330.913L383.876 331.007C384.006 331.083 384.18 331.186 384.395 331.314C384.824 331.57 385.418 331.926 386.143 332.367C387.586 333.247 389.585 334.487 391.863 335.964C396.158 338.75 402.466 343.032 407.893 347.668C415.163 353.878 419.915 360.479 422.95 366.127C424.455 368.928 425.525 371.465 426.279 373.578C426.386 373.878 426.487 374.17 426.582 374.453C426.816 375.032 427.062 375.669 427.313 376.362C428.213 378.848 429.215 382.135 429.974 386.081C431.489 393.957 432.115 404.926 428.593 417.276C425.646 427.61 421.441 435.404 413.274 444.469L412.643 445.169Z" fill="black"/>
</g>
</g>
<defs>
<clipPath id="clip0">
<rect width="512" height="512" fill="white"/>
</clipPath>
</defs>
</svg>
