<svg width="512" height="512" viewBox="0 0 512 512" fill="none" xmlns="http://www.w3.org/2000/svg">
<g id="person-outline">
<path id="Vector (Stroke)" fill-rule="evenodd" clip-rule="evenodd" d="M48.614 439.76C66.8265 338.778 164.457 288 256 288C347.543 288 445.172 338.778 463.396 439.758L463.396 439.759C465.034 448.843 463.443 458.567 458.055 466.435C452.422 474.662 443.136 480 432 480H80C68.8641 480 59.5813 474.658 53.9515 466.432C48.5676 458.566 46.9753 448.844 48.614 439.76ZM256 320C173.543 320 94.5734 365.222 80.1059 445.44L80.1058 445.441C79.9502 446.303 79.9809 447.024 80.0812 447.549C80.1162 447.732 80.1575 447.882 80.1974 448H431.812C431.852 447.882 431.894 447.732 431.929 447.548C432.029 447.024 432.06 446.304 431.904 445.442C417.428 365.222 338.457 320 256 320Z" fill="black"/>
<path id="Ellipse 3 (Stroke)" fill-rule="evenodd" clip-rule="evenodd" d="M305.704 196.984C320.366 179.202 329 156.118 329 135.428C329 95.4479 296.561 63 256.5 63C216.439 63 184 95.4479 184 135.428C184 156.118 192.634 179.202 207.296 196.984C221.955 214.76 239.739 224 256.5 224C273.261 224 291.045 214.76 305.704 196.984ZM256.5 256C314.214 256 361 193.102 361 135.428C361 77.7541 314.214 31 256.5 31C198.786 31 152 77.7541 152 135.428C152 193.102 198.786 256 256.5 256Z" fill="black"/>
</g>
</svg>
