<svg width="513" height="512" viewBox="0 0 513 512" fill="none" xmlns="http://www.w3.org/2000/svg">
<g id="pricetags-outline">
<path id="Vector" d="M352 144C345.671 144 339.484 142.123 334.222 138.607C328.959 135.091 324.858 130.093 322.436 124.246C320.014 118.399 319.38 111.965 320.615 105.757C321.85 99.5497 324.897 93.8479 329.373 89.3726C333.848 84.8973 339.55 81.8496 345.757 80.6149C351.965 79.3802 358.399 80.0139 364.246 82.4359C370.093 84.8579 375.091 88.9594 378.607 94.2218C382.123 99.4841 384 105.671 384 112C384 120.487 380.629 128.626 374.627 134.627C368.626 140.629 360.487 144 352 144Z" fill="black"/>
<path id="Vector (Stroke)" fill-rule="evenodd" clip-rule="evenodd" d="M496 64C504.837 64 512 71.1634 512 80V207.871C512.054 211.799 511.33 215.7 509.871 219.348C508.387 223.056 506.174 226.429 503.362 229.265L503.314 229.314L241.314 491.314C235.065 497.562 224.935 497.562 218.686 491.314C212.438 485.065 212.438 474.935 218.686 468.686L480 207.373V80C480 71.1634 487.163 64 496 64Z" fill="black"/>
<path id="Rectangle 1 (Stroke)" fill-rule="evenodd" clip-rule="evenodd" d="M12.5796 269.039L257.526 26.3145C265.856 18.0599 277.258 13.6641 288.974 14.1903L409.487 19.6031C431.928 20.6111 449.602 39.0977 449.602 61.5608L449.602 177.464C449.602 188.67 445.125 199.41 437.165 207.298L192.068 450.171C175.592 466.498 148.999 466.377 132.672 449.9L12.3089 328.435C-4.01818 311.959 -3.89698 285.366 12.5796 269.039ZM35.1037 291.769C31.1807 295.657 31.1518 301.988 35.0392 305.911L155.402 427.376C159.29 431.299 165.621 431.328 169.544 427.441L414.641 184.567C416.536 182.689 417.602 180.132 417.602 177.464L417.602 61.5609C417.602 56.2125 413.394 51.8109 408.051 51.5709L287.538 46.158C284.748 46.0327 282.034 47.0794 280.05 49.0448L35.1037 291.769Z" fill="black"/>
</g>
</svg>
