<svg width="512" height="512" viewBox="0 0 512 512" fill="none" xmlns="http://www.w3.org/2000/svg">
<g id="pricetag-outline">
<path id="Vector" d="M384 160C377.671 160 371.484 158.123 366.222 154.607C360.959 151.091 356.858 146.093 354.436 140.246C352.014 134.399 351.38 127.965 352.615 121.757C353.85 115.55 356.897 109.848 361.373 105.373C365.848 100.897 371.55 97.8496 377.757 96.6149C383.965 95.3802 390.399 96.0139 396.246 98.4359C402.093 100.858 407.091 104.959 410.607 110.222C414.123 115.484 416 121.671 416 128C416 136.487 412.629 144.626 406.627 150.627C400.626 156.629 392.487 160 384 160Z" fill="black"/>
<path id="Rectangle 1 (Stroke)" fill-rule="evenodd" clip-rule="evenodd" d="M42.9328 287.059L287.424 42.5677C295.739 34.2531 307.142 29.7841 318.874 30.2418L439.566 34.9506C462.04 35.8274 479.798 54.2342 479.87 76.727L480.244 192.784C480.28 204.004 475.831 214.785 467.886 222.73L223.245 467.371C206.799 483.817 180.171 483.853 163.769 467.451L42.8533 346.535C26.4512 330.133 26.4869 303.505 42.9328 287.059ZM65.5602 309.686C61.6445 313.602 61.636 319.942 65.5413 323.847L186.457 444.763C190.362 448.668 196.702 448.659 200.618 444.744L445.259 200.103C447.15 198.211 448.21 195.644 448.201 192.972L447.827 76.9159C447.81 71.5605 443.582 67.1779 438.231 66.9691L317.54 62.2604C314.746 62.1514 312.031 63.2154 310.051 65.1951L65.5602 309.686Z" fill="black"/>
</g>
</svg>
