<svg width="416" height="417" viewBox="0 0 416 417" fill="none" xmlns="http://www.w3.org/2000/svg">
<g id="question-add">
<g id="question add">
<g id="Group 2">
<path id="Vector (Stroke)" fill-rule="evenodd" clip-rule="evenodd" d="M208 92C216.837 92 224 99.1634 224 108V308C224 316.837 216.837 324 208 324C199.163 324 192 316.837 192 308V108C192 99.1634 199.163 92 208 92Z" fill="black"/>
<path id="Vector (Stroke) 2" fill-rule="evenodd" clip-rule="evenodd" d="M92 208C92 199.163 99.1634 192 108 192H308C316.837 192 324 199.163 324 208C324 216.837 316.837 224 308 224H108C99.1634 224 92 216.837 92 208Z" fill="black"/>
</g>
<path id="Vector (Stroke) 3" fill-rule="evenodd" clip-rule="evenodd" d="M207.844 32C110.075 32 31.7065 109.263 32.0008 203.648L32.0009 203.673V203.699C31.9998 236.528 41.5922 268.639 59.5944 296.086C60.6465 297.524 61.631 299.011 62.5447 300.542L62.622 300.671L62.6969 300.802C64.178 303.393 65.9497 306.908 67.1756 310.811C68.2922 314.366 69.6233 320.289 67.8934 326.656L67.8841 326.69L53.2629 379.578L103.751 361.357C109.138 359.145 114.909 358.015 120.735 358.033C120.745 358.033 120.756 358.033 120.766 358.033L120.705 374.033L120.723 358.033C120.727 358.033 120.731 358.033 120.735 358.033C126.197 358.041 131.612 359.049 136.711 361.009L136.722 361.014L136.734 361.018C139.71 362.167 151.595 366.583 163.334 369.868C174.857 373.093 196.149 377.002 211.148 377.002C308.384 377.002 383.997 298.938 384 203.842L399.978 203.836H384C383.996 192.044 382.747 180.284 380.275 168.753L380.272 168.736L380.268 168.72C363.781 90.991 293.035 32 207.844 32ZM0.000912614 203.723C-0.336857 90.8895 93.1285 0 207.844 0C307.96 0 391.897 69.3786 411.567 162.056C414.509 175.787 415.995 189.789 416 203.831V203.836C416 316.263 326.402 409.002 211.148 409.002C192.362 409.002 168.055 404.419 154.71 400.684C141.601 397.015 128.675 392.208 125.222 390.876C123.774 390.32 122.238 390.035 120.687 390.033H120.666H120.644C118.975 390.027 117.321 390.359 115.783 391.01L115.384 391.179L52.7381 413.788C50.0364 414.893 47.1904 415.609 44.2853 415.912L43.432 416.002L42.5741 415.999C39.2849 415.989 36.0306 415.327 32.9994 414.05C29.9682 412.773 27.2205 410.908 24.9153 408.562C22.6102 406.216 20.7934 403.436 19.5704 400.382C18.3474 397.329 17.7423 394.064 17.7903 390.775L17.7973 390.294L17.8332 389.814C17.9905 387.712 18.3646 385.631 18.9493 383.605L36.5231 320.037C36.3937 319.677 36.2167 319.242 35.9853 318.742C35.6945 318.113 35.3559 317.461 34.9932 316.819C34.5717 316.123 34.117 315.447 33.6306 314.794L33.357 314.426L33.1049 314.044C11.5143 281.301 0.00444502 242.943 0.000912614 203.723Z" fill="black"/>
</g>
</g>
</svg>
