<svg width="416" height="417" viewBox="0 0 416 417" fill="none" xmlns="http://www.w3.org/2000/svg">
<g id="questions">
<g id="questions_2">
<g id="Group 1">
<path id="Vector (Stroke)" fill-rule="evenodd" clip-rule="evenodd" d="M228.759 125.125C225.744 123.659 218.358 121.885 208.414 122.006C198.001 122.149 188.222 124.453 180.513 130.807L228.759 125.125ZM228.759 125.125C238.238 129.77 250.413 138.143 250.413 154.513C250.413 172.912 240.293 181.131 219.543 195.4C208.016 203.327 199.669 211.942 194.35 221.83C188.973 231.826 187.356 241.886 187.356 251.523C187.356 260.36 194.519 267.523 203.356 267.523C212.193 267.523 219.356 260.36 219.356 251.523C219.356 245.615 220.31 241.12 222.531 236.99C224.811 232.753 229.091 227.671 237.675 221.768C237.926 221.595 238.178 221.422 238.431 221.248C257.796 207.938 282.413 191.017 282.413 154.513C282.413 118.263 254.087 101.898 242.82 96.3794L242.806 96.373L242.793 96.3666C233.665 91.9162 220.761 89.8518 208.01 90.0083L207.999 90.0085L207.988 90.0086C193.535 90.2059 175.56 93.4204 160.159 106.114V106.115C147.904 116.216 141.356 127.719 137.905 136.841C136.187 141.38 135.231 145.338 134.698 148.278C134.43 149.752 134.267 150.983 134.166 151.919C134.116 152.388 134.082 152.784 134.058 153.102C134.047 153.261 134.037 153.4 134.031 153.519C134.027 153.579 134.024 153.633 134.022 153.683L134.018 153.753L134.017 153.785L134.016 153.8C134.016 153.808 134.015 153.815 149.565 154.494L134.015 153.815C133.63 162.643 140.474 170.112 149.303 170.497C158.054 170.879 165.47 164.157 165.973 155.44C165.975 155.415 165.979 155.376 165.985 155.324C166.008 155.103 166.065 154.645 166.183 153.993C166.422 152.68 166.9 150.633 167.834 148.165C169.685 143.272 173.305 136.749 180.512 130.807" fill="black"/>
<path id="Vector" d="M204.954 310.196C213.79 310.196 220.954 303.032 220.954 294.196C220.954 285.359 213.79 278.196 204.954 278.196C196.117 278.196 188.954 285.359 188.954 294.196C188.954 303.032 196.117 310.196 204.954 310.196Z" fill="black"/>
</g>
<path id="Vector (Stroke) 2" fill-rule="evenodd" clip-rule="evenodd" d="M207.844 32C110.075 32 31.7065 109.263 32.0008 203.648L32.0009 203.673V203.699C31.9998 236.528 41.5922 268.639 59.5944 296.086C60.6465 297.524 61.631 299.011 62.5447 300.542L62.622 300.671L62.6969 300.802C64.178 303.393 65.9497 306.908 67.1756 310.811C68.2922 314.366 69.6233 320.289 67.8934 326.656L67.8841 326.69L53.2629 379.578L103.751 361.357C109.138 359.145 114.909 358.015 120.735 358.033C120.745 358.033 120.756 358.033 120.766 358.033L120.705 374.033L120.723 358.033C120.727 358.033 120.731 358.033 120.735 358.033C126.197 358.041 131.612 359.049 136.711 361.009L136.722 361.014L136.734 361.018C139.71 362.167 151.595 366.583 163.334 369.868C174.857 373.093 196.149 377.002 211.148 377.002C308.384 377.002 383.997 298.938 384 203.842L399.978 203.836H384C383.996 192.044 382.747 180.284 380.275 168.753L380.272 168.736L380.268 168.72C363.781 90.991 293.035 32 207.844 32ZM0.000912614 203.723C-0.336857 90.8895 93.1285 0 207.844 0C307.96 0 391.897 69.3786 411.567 162.056C414.509 175.787 415.995 189.789 416 203.831V203.836C416 316.263 326.402 409.002 211.148 409.002C192.362 409.002 168.055 404.419 154.71 400.684C141.601 397.015 128.675 392.208 125.222 390.876C123.774 390.32 122.238 390.035 120.687 390.033H120.666H120.644C118.975 390.027 117.321 390.359 115.783 391.01L115.384 391.179L52.7381 413.788C50.0364 414.893 47.1904 415.609 44.2853 415.912L43.432 416.002L42.5741 415.999C39.2849 415.989 36.0306 415.327 32.9994 414.05C29.9682 412.773 27.2205 410.908 24.9153 408.562C22.6102 406.216 20.7934 403.436 19.5704 400.382C18.3474 397.329 17.7423 394.064 17.7903 390.775L17.7973 390.294L17.8332 389.814C17.9905 387.712 18.3646 385.631 18.9493 383.605L36.5231 320.037C36.3937 319.677 36.2167 319.242 35.9853 318.742C35.6945 318.113 35.3559 317.461 34.9932 316.819C34.5717 316.123 34.117 315.447 33.6306 314.794L33.357 314.426L33.1049 314.044C11.5143 281.301 0.00444502 242.943 0.000912614 203.723Z" fill="black"/>
</g>
</g>
</svg>
