<svg width="384" height="152" viewBox="0 0 384 152" fill="none" xmlns="http://www.w3.org/2000/svg">
<g id="review">
<path id="review_2" d="M384 69.3966H370.456C367.104 30.5683 334.456 0.09375 294.632 0.09375C261.385 0.09375 233.138 21.3379 222.758 50.9472C215.482 42.069 204.407 36.3952 192.008 36.3952C179.597 36.3952 168.538 42.0613 161.245 50.9396C150.866 21.3302 122.623 0.09375 89.3798 0.09375C49.5629 0.09375 16.9152 30.5683 13.5552 69.3966H0V82.5971H13.5552C16.9152 121.429 49.5629 151.9 89.3798 151.908C131.432 151.896 165.512 117.922 165.519 76.0007C165.55 61.4181 177.377 49.6226 192.008 49.5919C206.619 49.6226 218.454 61.4181 218.484 76.0007H218.5C218.508 117.919 252.58 151.9 294.632 151.9C334.441 151.9 367.096 121.426 370.456 82.5971H384V69.3966ZM89.376 138.703C54.647 138.638 26.5498 110.622 26.4883 75.993C26.5498 41.3646 54.647 13.3517 89.376 13.2904C124.113 13.3517 152.206 41.3684 152.271 75.993C152.206 110.622 124.113 138.642 89.376 138.703ZM294.632 138.703C259.899 138.642 231.805 110.629 231.736 75.9892C231.805 41.3646 259.899 13.3555 294.632 13.2904C329.364 13.3555 357.466 41.3684 357.519 75.9892C357.466 110.629 329.361 138.646 294.632 138.703Z" fill="black"/>
</g>
</svg>
