<svg width="512" height="512" viewBox="0 0 512 512" fill="none" xmlns="http://www.w3.org/2000/svg">
<g id="ribbon-outline">
<path id="Vector (Stroke)" fill-rule="evenodd" clip-rule="evenodd" d="M256 48C194.144 48 144 98.1441 144 160C144 221.856 194.144 272 256 272C317.856 272 368 221.856 368 160C368 98.1441 317.856 48 256 48ZM112 160C112 80.471 176.471 16 256 16C335.529 16 400 80.471 400 160C400 239.529 335.529 304 256 304C176.471 304 112 239.529 112 160Z" fill="black"/>
<path id="Vector (Stroke)_2" fill-rule="evenodd" clip-rule="evenodd" d="M151.42 213.833C159.145 218.125 161.928 227.865 157.637 235.59L75.2648 383.868L134.779 383.58C134.78 383.58 134.781 383.58 134.783 383.58C140.347 383.553 145.823 384.977 150.669 387.712C155.517 390.448 159.567 394.401 162.419 399.18L190.082 445.554L265.764 279.059C269.421 271.015 278.907 267.458 286.951 271.114C294.995 274.771 298.552 284.257 294.896 292.301L206.566 486.621C204.102 492.041 198.833 495.644 192.889 495.975C186.945 496.306 181.309 493.31 178.259 488.197L134.941 415.58L48.0774 416C42.3946 416.027 37.1237 413.038 34.2298 408.148C31.336 403.257 31.2536 397.198 34.0133 392.23L129.663 220.05C133.955 212.325 143.695 209.542 151.42 213.833Z" fill="black"/>
<path id="Vector (Stroke)_3" fill-rule="evenodd" clip-rule="evenodd" d="M358.789 210.003C366.52 205.722 376.257 208.519 380.537 216.249L477.997 392.249C480.748 397.217 480.66 403.271 477.765 408.157C474.869 413.042 469.602 416.027 463.923 416L377.059 415.58L333.741 488.197C330.691 493.31 325.055 496.306 319.111 495.975C313.166 495.644 307.898 492.041 305.434 486.621L241.434 345.821C237.778 337.776 241.335 328.291 249.379 324.634C257.424 320.978 266.909 324.535 270.566 332.579L321.918 445.553L349.579 399.183L349.581 399.18C352.433 394.401 356.483 390.448 361.331 387.712C366.177 384.977 371.653 383.553 377.217 383.58C377.219 383.58 377.22 383.58 377.221 383.58L436.778 383.868L352.543 231.751C348.262 224.021 351.059 214.284 358.789 210.003Z" fill="black"/>
<path id="Vector (Stroke)_4" fill-rule="evenodd" clip-rule="evenodd" d="M256 112C229.49 112 208 133.49 208 160C208 186.51 229.49 208 256 208C282.51 208 304 186.51 304 160C304 133.49 282.51 112 256 112ZM176 160C176 115.817 211.817 80 256 80C300.183 80 336 115.817 336 160C336 204.183 300.183 240 256 240C211.817 240 176 204.183 176 160Z" fill="black"/>
</g>
</svg>
