<svg width="266" height="394" viewBox="0 0 266 394" fill="none" xmlns="http://www.w3.org/2000/svg">
<g id="ribbon">
<g id="ribbon_2">
<path id="ribbon 2" fill-rule="evenodd" clip-rule="evenodd" d="M243.473 166.676V201.753L213.76 219.299L196.623 249.682H192.266C192.266 249.69 192.274 249.708 192.274 249.717V380.599C192.274 380.634 192.257 380.66 192.257 380.695C192.291 382.911 191.499 385.145 189.845 386.838C188.19 388.53 186.008 389.342 183.834 389.307C183.808 389.307 183.783 389.324 183.748 389.324C181.02 389.324 178.693 387.928 177.141 385.878L132.593 340.287L88.0447 385.878C86.493 387.928 84.1739 389.324 81.4371 389.324C81.403 389.324 81.3774 389.307 81.3518 389.307C79.1777 389.342 76.9951 388.53 75.3411 386.838C73.6955 385.145 72.8941 382.911 72.9282 380.695C72.9282 380.66 72.9112 380.634 72.9112 380.599V249.717C72.9112 249.708 72.9197 249.69 72.9197 249.682H68.597L51.4428 219.299L21.7384 201.753V166.676L4.59277 136.294L21.7384 105.903V70.8003L51.4428 53.2359L68.597 22.8799H102.914L132.584 5.32422L162.289 22.8799H196.606L213.743 53.2359L243.456 70.8003V105.894L260.593 136.294L243.473 166.676ZM89.9631 249.717V359.823L125.687 323.264C125.96 322.854 126.139 322.382 126.497 322.007C128.176 320.297 130.393 319.503 132.593 319.555C134.792 319.503 137.009 320.297 138.689 322.007C139.047 322.382 139.217 322.854 139.499 323.264L175.223 359.823V249.717C175.223 249.708 175.231 249.69 175.231 249.682H162.297L132.593 267.246L102.922 249.682H89.9545C89.9545 249.69 89.9631 249.708 89.9631 249.717ZM226.378 110.562V80.8695L201.244 66.01L186.758 40.3309H157.719L132.61 25.4888L107.518 40.3309H78.4786L63.976 66.0012L38.833 80.8608V110.562L24.3303 136.294L38.833 162.008V191.675L63.976 206.525L78.4786 232.222H107.509L132.601 247.064L157.71 232.222H186.741L201.227 206.525L226.37 191.675V162.017L240.864 136.294L226.378 110.562Z" fill="black"/>
<path id="ribbon (Stroke)" fill-rule="evenodd" clip-rule="evenodd" d="M68.5971 249.682L51.4429 219.299L21.7385 201.753V166.676L4.59283 136.294L21.7385 105.903V70.8004L51.4429 53.236L68.5971 22.88H102.914L132.584 5.32431L162.289 22.88H196.606L213.743 53.236L243.456 70.8004V105.894L260.593 136.294L243.473 166.676V201.753L213.76 219.299L196.623 249.682H192.266C192.266 249.69 192.274 249.708 192.274 249.717V380.599C192.274 380.616 192.27 380.632 192.266 380.647C192.262 380.662 192.257 380.677 192.257 380.695C192.292 382.911 191.499 385.145 189.845 386.838C188.191 388.53 186.008 389.342 183.834 389.307C183.822 389.307 183.81 389.311 183.797 389.315C183.783 389.319 183.767 389.324 183.749 389.324C181.02 389.324 178.693 387.928 177.141 385.878L132.593 340.287L88.0448 385.878C86.493 387.928 84.174 389.324 81.4372 389.324C81.4189 389.324 81.4031 389.319 81.3884 389.315C81.3756 389.311 81.3638 389.307 81.3519 389.307C79.1778 389.342 76.9952 388.53 75.3411 386.838C73.6956 385.145 72.8942 382.911 72.9283 380.695C72.9283 380.677 72.924 380.662 72.9198 380.647C72.9155 380.632 72.9112 380.616 72.9112 380.599V249.717C72.9112 249.708 72.9198 249.69 72.9198 249.682H68.5971ZM68.9112 253.682H66.262L48.4863 222.199L17.7385 204.035V167.727L0 136.294L17.7385 104.852V68.5186L48.4865 50.3371L66.263 18.88H101.819L132.583 0.677246L163.382 18.88H198.941L216.7 50.3373L247.456 68.5183V104.844L265.184 136.293L247.473 167.725V204.036L216.717 222.199L198.959 253.682H196.274V380.599C196.274 380.732 196.268 380.856 196.258 380.969C196.224 384.064 195.073 387.21 192.706 389.633C190.336 392.058 187.226 393.267 184.126 393.307C184.009 393.318 183.883 393.324 183.749 393.324C179.671 393.324 176.303 391.276 174.119 388.509L132.593 346.011L91.0668 388.508C88.885 391.274 85.525 393.324 81.4372 393.324C81.3027 393.324 81.1765 393.318 81.0598 393.307C77.9598 393.267 74.8501 392.058 72.4802 389.633L72.4729 389.626C70.1259 387.211 68.962 384.073 68.928 380.97C68.9177 380.856 68.9112 380.732 68.9112 380.599V253.682ZM123.623 319.225L123.643 319.204C126.126 316.677 129.394 315.503 132.593 315.555C135.791 315.503 139.06 316.677 141.543 319.204L141.563 319.225L141.583 319.245C142.11 319.798 142.436 320.357 142.601 320.648C142.622 320.685 142.642 320.721 142.661 320.754C142.671 320.772 142.681 320.79 142.69 320.806L171.223 350.006V253.682H163.391L132.592 271.894L101.827 253.682H93.9631V350.006L122.487 320.815C122.516 320.763 122.551 320.701 122.588 320.635C122.761 320.333 123.086 319.787 123.603 319.245L123.623 319.225ZM125.687 323.264L89.9631 359.823V249.717C89.9631 249.708 89.9546 249.69 89.9546 249.682H102.923L132.593 267.246L162.297 249.682H175.231C175.231 249.685 175.23 249.69 175.228 249.695C175.226 249.703 175.223 249.711 175.223 249.717V359.823L139.499 323.264C139.393 323.11 139.303 322.947 139.213 322.784C139.063 322.513 138.913 322.242 138.689 322.007C137.009 320.297 134.793 319.503 132.593 319.555C130.393 319.503 128.176 320.297 126.497 322.007C126.266 322.249 126.109 322.531 125.954 322.811C125.869 322.965 125.784 323.118 125.687 323.264ZM222.378 111.611V83.1515L198.286 68.9082L184.422 44.331H156.625L132.611 30.1359L108.612 44.331H80.8131L66.9324 68.9005L42.833 83.1432V111.612L28.9223 136.293L42.833 160.958V189.392L66.9329 203.626L80.8142 228.222H108.604L132.602 242.417L156.616 228.222H184.404L198.269 203.627L222.37 189.392V160.967L236.273 136.293L222.378 111.611ZM240.864 136.294L226.37 162.017V191.675L201.227 206.525L186.741 232.222H157.71L132.601 247.064L107.51 232.222H78.4787L63.976 206.525L38.833 191.675V162.008L24.3304 136.294L38.833 110.562V80.8609L63.976 66.0014L78.4787 40.331H107.518L132.61 25.4889L157.719 40.331H186.758L201.244 66.0101L226.378 80.8696V110.562L240.864 136.294Z" fill="black"/>
</g>
</g>
</svg>
