<svg width="512" height="512" viewBox="0 0 512 512" fill="none" xmlns="http://www.w3.org/2000/svg">
<g id="search-outline">
<path id="Vector (Stroke)" fill-rule="evenodd" clip-rule="evenodd" d="M124.926 77.1709C153.391 58.1516 186.856 48 221.09 48V64L221.091 48C266.996 48.0029 311.02 66.24 343.48 98.6998C375.94 131.16 394.177 175.184 394.18 221.089V221.09C394.18 255.324 384.029 288.789 365.009 317.254C345.99 345.718 318.957 367.904 287.329 381.004C255.701 394.105 220.898 397.533 187.322 390.854C153.746 384.175 122.904 367.69 98.697 343.483C74.4899 319.276 58.0047 288.434 51.326 254.858C44.6472 221.282 48.075 186.479 61.1758 154.851C74.2765 123.223 96.4619 96.1903 124.926 77.1709ZM221.09 80C258.509 80.0027 294.394 94.8683 320.853 121.327C347.312 147.786 362.177 183.671 362.18 221.09M221.089 80C193.184 80.0002 165.907 88.275 142.705 103.778C119.503 119.281 101.419 141.316 90.7399 167.097C80.0611 192.878 77.2671 221.247 82.7111 248.615C88.1551 275.984 101.593 301.124 121.324 320.856C141.056 340.587 166.196 354.025 193.565 359.469C220.934 364.913 249.302 362.119 275.083 351.44C300.864 340.761 322.899 322.678 338.402 299.475C353.905 276.274 362.18 248.996 362.18 221.091" fill="black"/>
<path id="Vector (Stroke)_2" fill-rule="evenodd" clip-rule="evenodd" d="M326.976 326.976C333.225 320.728 343.355 320.728 349.604 326.976L459.314 436.686C465.562 442.935 465.562 453.065 459.314 459.314C453.065 465.562 442.935 465.562 436.686 459.314L326.976 349.604C320.728 343.355 320.728 333.225 326.976 326.976Z" fill="black"/>
</g>
</svg>
