<svg width="512" height="512" viewBox="0 0 512 512" fill="none" xmlns="http://www.w3.org/2000/svg">
<g id="share-social-outline">
<path id="Vector (Stroke)" fill-rule="evenodd" clip-rule="evenodd" d="M128 224C110.327 224 96 238.327 96 256C96 273.673 110.327 288 128 288C145.673 288 160 273.673 160 256C160 238.327 145.673 224 128 224ZM64 256C64 220.654 92.6538 192 128 192C163.346 192 192 220.654 192 256C192 291.346 163.346 320 128 320C92.6538 320 64 291.346 64 256Z" fill="black"/>
<path id="Vector (Stroke)_2" fill-rule="evenodd" clip-rule="evenodd" d="M384 80C366.327 80 352 94.3269 352 112C352 129.673 366.327 144 384 144C401.673 144 416 129.673 416 112C416 94.3269 401.673 80 384 80ZM320 112C320 76.6538 348.654 48 384 48C419.346 48 448 76.6538 448 112C448 147.346 419.346 176 384 176C348.654 176 320 147.346 320 112Z" fill="black"/>
<path id="Vector (Stroke)_3" fill-rule="evenodd" clip-rule="evenodd" d="M384 368C366.327 368 352 382.327 352 400C352 417.673 366.327 432 384 432C401.673 432 416 417.673 416 400C416 382.327 401.673 368 384 368ZM320 400C320 364.654 348.654 336 384 336C419.346 336 448 364.654 448 400C448 435.346 419.346 464 384 464C348.654 464 320 435.346 320 400Z" fill="black"/>
<path id="Vector (Stroke)_4" fill-rule="evenodd" clip-rule="evenodd" d="M155.885 271.686C160.217 263.984 169.972 261.253 177.674 265.585L350.014 362.525C357.716 366.857 360.447 376.612 356.115 384.314C351.783 392.016 342.028 394.747 334.326 390.415L161.986 293.475C154.284 289.143 151.553 279.388 155.885 271.686Z" fill="black"/>
<path id="Vector (Stroke)_5" fill-rule="evenodd" clip-rule="evenodd" d="M356.115 127.686C360.447 135.388 357.716 145.143 350.014 149.475L177.674 246.415C169.972 250.747 160.217 248.016 155.885 240.314C151.553 232.612 154.284 222.857 161.986 218.525L334.326 121.585C342.028 117.253 351.783 119.984 356.115 127.686Z" fill="black"/>
</g>
</svg>
