<svg width="512" height="512" viewBox="0 0 512 512" fill="none" xmlns="http://www.w3.org/2000/svg">
<g id="shield-outline">
<path id="Vector (Stroke)" fill-rule="evenodd" clip-rule="evenodd" d="M249.414 33.4181C253.601 31.5273 258.399 31.5273 262.585 33.4181C342.133 69.3433 377.843 80.8214 465.925 96.6214C473.178 97.9224 478.604 104.009 479.068 111.363C495.978 379.376 278.476 472.197 261.977 478.842C258.142 480.386 253.858 480.386 250.023 478.842C233.524 472.197 16.0215 379.376 32.9315 111.363C33.3955 104.009 38.822 97.9224 46.0748 96.6214C134.157 80.8214 169.866 69.3433 249.414 33.4181ZM64.2589 125.833C56.7146 344.126 220.342 430.409 256 446.58C291.658 430.409 455.285 344.126 447.741 125.833C368.142 111.056 329.642 98.5416 256 65.5446C182.358 98.5416 143.857 111.056 64.2589 125.833Z" fill="black"/>
</g>
</svg>
