<svg width="385" height="246" viewBox="0 0 385 246" fill="none" xmlns="http://www.w3.org/2000/svg">
<g id="shipping">
<path id="shipping_2" d="M382.572 109.037L330.209 39.2188C329.396 38.1349 328.342 37.2552 327.13 36.6492C325.918 36.0433 324.582 35.7279 323.227 35.7279H262.136V9.54612C262.136 7.23151 261.217 5.01169 259.58 3.37501C257.943 1.73833 255.723 0.818848 253.409 0.818848H9.04514C6.73053 0.818848 4.51071 1.73833 2.87403 3.37501C1.23735 5.01169 0.317871 7.23151 0.317871 9.54612V201.546C0.317871 203.861 1.23735 206.081 2.87403 207.717C4.51071 209.354 6.73053 210.273 9.04514 210.273H70.1361C70.1361 219.532 73.814 228.411 80.3607 234.958C86.9074 241.505 95.7867 245.183 105.045 245.183C114.304 245.183 123.183 241.505 129.73 234.958C136.276 228.411 139.954 219.532 139.954 210.273H279.591C279.591 219.532 283.269 228.411 289.815 234.958C296.362 241.505 305.241 245.183 314.5 245.183C323.758 245.183 332.637 241.505 339.184 234.958C345.731 228.411 349.409 219.532 349.409 210.273H375.591C377.905 210.273 380.125 209.354 381.762 207.717C383.398 206.081 384.318 203.861 384.318 201.546V114.274C384.318 112.385 383.705 110.548 382.572 109.037ZM318.863 53.1824L358.136 105.546H262.136V53.1824H318.863ZM105.045 227.728C101.593 227.728 98.2183 226.704 95.3479 224.786C92.4775 222.869 90.2403 220.142 88.9193 216.953C87.5982 213.764 87.2525 210.254 87.926 206.868C88.5995 203.482 90.2619 200.372 92.7029 197.931C95.144 195.49 98.2541 193.828 101.64 193.154C105.026 192.481 108.535 192.827 111.725 194.148C114.914 195.469 117.64 197.706 119.558 200.576C121.476 203.447 122.5 206.821 122.5 210.273C122.5 214.903 120.661 219.342 117.387 222.616C114.114 225.889 109.674 227.728 105.045 227.728ZM135.067 192.819C131.976 187.61 127.583 183.294 122.319 180.297C117.055 177.3 111.102 175.724 105.045 175.724C98.9879 175.724 93.0349 177.3 87.7712 180.297C82.5075 183.294 78.1143 187.61 75.0233 192.819H17.7724V18.2733H244.682V192.819H135.067ZM314.5 227.728C311.048 227.728 307.673 226.704 304.802 224.786C301.932 222.869 299.695 220.142 298.374 216.953C297.053 213.764 296.707 210.254 297.381 206.868C298.054 203.482 299.716 200.372 302.157 197.931C304.599 195.49 307.709 193.828 311.094 193.154C314.48 192.481 317.99 192.827 321.179 194.148C324.369 195.469 327.095 197.706 329.013 200.576C330.931 203.447 331.954 206.821 331.954 210.273C331.954 214.903 330.115 219.342 326.842 222.616C323.569 225.889 319.129 227.728 314.5 227.728ZM344.522 192.819C341.431 187.61 337.037 183.294 331.774 180.297C326.51 177.3 320.557 175.724 314.5 175.724C308.442 175.724 302.489 177.3 297.226 180.297C291.962 183.294 287.569 187.61 284.478 192.819H262.136V123.001H366.863V192.819H344.522Z" fill="black"/>
</g>
</svg>
