<svg width="512" height="512" viewBox="0 0 512 512" fill="none" xmlns="http://www.w3.org/2000/svg">
<g id="shirt-outline">
<path id="Vector (Stroke)" fill-rule="evenodd" clip-rule="evenodd" d="M181.585 34.6981C186.68 32.9124 192.04 32.0002 197.439 32C199.229 31.9999 201.006 32.3001 202.696 32.888C202.706 32.8916 202.731 32.8999 202.769 32.9126C202.864 32.9443 203.044 33.0035 203.306 33.0863C203.831 33.2519 204.684 33.5119 205.848 33.8359C208.177 34.4841 211.741 35.3863 216.39 36.3008C225.697 38.1314 239.294 40 256 40C272.706 40 286.303 38.1314 295.609 36.3008C300.258 35.3863 303.822 34.4841 306.151 33.8359C307.315 33.5119 308.169 33.2519 308.693 33.0863C308.956 33.0035 309.135 32.9443 309.23 32.9126C309.278 32.8968 309.304 32.8878 309.309 32.8862L309.3 32.8893L309.283 32.8951L309.265 32.9014C309.262 32.9026 309.258 32.9039 314.56 48L314.56 32C319.959 32.0002 325.32 32.9124 330.415 34.6981C330.416 34.6985 330.417 34.6989 330.419 34.6993C330.421 34.7001 330.423 34.7009 330.425 34.7017L485.285 88.8981C492.755 91.5123 497.191 99.1947 495.722 106.971L479.092 194.971C477.788 201.869 472.141 207.111 465.165 207.899L416.289 213.419C416.288 213.419 416.287 213.419 416.285 213.419C414.291 213.646 412.455 214.613 411.142 216.13C409.827 217.648 409.131 219.605 409.192 221.612L409.194 221.65L415.993 463.55C416.115 467.87 414.484 472.055 411.471 475.154C408.459 478.252 404.321 480 400 480H112C107.678 480 103.541 478.252 100.528 475.154C97.5158 472.055 95.8847 467.87 96.0061 463.55L102.806 221.65L102.807 221.612C102.869 219.605 102.173 217.648 100.858 216.13C99.5442 214.613 97.7082 213.646 95.7144 213.419C95.7131 213.419 95.7119 213.419 95.7106 213.419L46.8344 207.899C39.8589 207.111 34.2116 201.869 32.9081 194.971L16.2781 106.971C14.8085 99.1947 19.2449 91.5123 26.7146 88.8981L181.574 34.7017C181.577 34.7009 181.579 34.7001 181.581 34.6993C181.582 34.6989 181.583 34.6985 181.585 34.6981ZM316.594 64.1304C316.04 64.2941 315.418 64.473 314.732 64.6641C311.671 65.5159 307.304 66.6137 301.785 67.6992C290.757 69.8686 275.074 72 256 72C236.925 72 221.243 69.8686 210.214 67.6992C204.696 66.6137 200.329 65.5159 197.268 64.6641C196.581 64.473 195.96 64.2941 195.406 64.1304C194.304 64.2723 193.217 64.5293 192.165 64.8983L50.2776 114.555L62.1589 177.426L99.309 181.621C109.286 182.751 118.473 187.59 125.046 195.179C131.615 202.763 135.094 212.539 134.793 222.567C134.793 222.574 134.793 222.581 134.792 222.588L128.456 448H383.544L377.207 222.588C377.207 222.581 377.207 222.574 377.207 222.567C376.906 212.539 380.385 202.763 386.953 195.179C393.527 187.59 402.714 182.751 412.691 181.621L449.841 177.426L461.722 114.555L319.834 64.8983C318.782 64.5293 317.696 64.2723 316.594 64.1304Z" fill="black"/>
<path id="Vector (Stroke)_2" fill-rule="evenodd" clip-rule="evenodd" d="M174.576 37.198C183.115 34.9258 191.88 40.0063 194.152 48.5458C197.78 62.1791 205.81 74.2317 216.995 82.8297C228.18 91.4276 241.892 96.089 256 96.089C270.108 96.089 283.82 91.4276 295.005 82.8297C306.19 74.2317 314.22 62.1791 317.848 48.5458C320.12 40.0063 328.885 34.9258 337.424 37.198C345.964 39.4702 351.044 48.2347 348.772 56.7741C343.331 77.2241 331.285 95.3031 314.507 108.2C297.73 121.097 277.161 128.089 256 128.089C234.838 128.089 214.27 121.097 197.493 108.2C180.715 95.3031 168.669 77.2241 163.228 56.7741C160.956 48.2347 166.036 39.4702 174.576 37.198Z" fill="black"/>
</g>
</svg>
