<svg width="512" height="512" viewBox="0 0 512 512" fill="none" xmlns="http://www.w3.org/2000/svg">
<g id="star">
<path id="Vector" d="M394 480C390.632 480.013 387.346 478.963 384.61 477L256 383.76L127.39 477C124.642 478.993 121.332 480.06 117.938 480.048C114.543 480.036 111.241 478.944 108.508 476.931C105.775 474.918 103.753 472.089 102.734 468.851C101.715 465.613 101.752 462.135 102.84 458.92L153 310.35L22.9999 221.2C20.1841 219.271 18.0588 216.492 16.9347 213.269C15.8105 210.047 15.7465 206.549 16.7518 203.287C17.7571 200.025 19.7792 197.171 22.5226 195.14C25.2659 193.109 28.5868 192.009 31.9999 192H192.38L240.78 43.0499C241.823 39.8341 243.857 37.0312 246.591 35.0433C249.326 33.0554 252.619 31.9846 256 31.9846C259.381 31.9846 262.674 33.0554 265.409 35.0433C268.143 37.0312 270.177 39.8341 271.22 43.0499L319.62 192.05H480C483.417 192.048 486.746 193.141 489.497 195.168C492.249 197.194 494.279 200.049 495.291 203.313C496.302 206.578 496.242 210.08 495.119 213.308C493.996 216.535 491.869 219.319 489.05 221.25L359 310.35L409.13 458.88C409.942 461.285 410.171 463.848 409.796 466.359C409.422 468.869 408.456 471.254 406.978 473.318C405.5 475.381 403.552 477.063 401.295 478.225C399.039 479.387 396.538 479.995 394 480Z" fill="black"/>
</g>
</svg>
