<svg width="384" height="364" viewBox="0 0 384 364" fill="none" xmlns="http://www.w3.org/2000/svg">
<g id="stock">
<path id="stock_2" d="M371.368 0.238281H12.6316C5.65558 0.238281 0 5.91604 0 12.9194V351.082C0 358.087 5.65558 363.763 12.6316 363.763H371.368C378.346 363.763 384 358.087 384 351.082V12.9194C384 5.91604 378.346 0.238281 371.368 0.238281ZM358.737 25.6005V64.4892H25.2632V25.6005H358.737ZM162.526 338.401V297.822H221.474V338.401H162.526ZM246.737 338.401V285.141C246.737 278.135 241.083 272.459 234.105 272.459H149.895C142.919 272.459 137.263 278.135 137.263 285.141V338.401H25.2632V89.8515H358.737V338.401H246.737Z" fill="black"/>
</g>
</svg>
