<svg width="371" height="314" viewBox="0 0 371 314" fill="none" xmlns="http://www.w3.org/2000/svg">
<g id="store">
<g id="store_2">
<path id="Vector" d="M56.5667 0.778566C53.3181 1.13212 50.2379 2.8379 48.2146 5.40357L2.98469 62.9591C0.639688 65.9081 -0.240706 69.967 0.671795 73.6223L13.0072 122.699C13.0169 122.74 12.9975 122.787 13.0072 122.827C17.6751 142.277 36.1127 152.759 53.6114 152.889C53.6542 152.889 53.697 152.889 53.7399 152.889C62.9772 152.889 71.9433 150.087 79.9527 145.31C82.3499 143.88 84.4501 141.761 86.6344 139.914C88.8187 141.761 90.9189 143.88 93.3161 145.31C101.325 150.087 110.292 152.889 119.529 152.889C128.766 152.889 137.732 150.087 145.742 145.31C148.139 143.88 150.239 141.761 152.423 139.914C154.608 141.761 156.708 143.88 159.105 145.31C167.114 150.087 176.081 152.889 185.318 152.889C194.555 152.889 203.521 150.087 211.531 145.31C213.928 143.88 216.028 141.761 218.212 139.914C220.397 141.761 222.497 143.88 224.894 145.31C232.903 150.087 241.869 152.889 251.107 152.889C260.344 152.889 269.31 150.087 277.32 145.31C279.717 143.88 281.817 141.761 284.001 139.914C286.186 141.761 288.286 143.88 290.683 145.31C298.692 150.087 307.658 152.889 316.896 152.889C316.939 152.889 316.981 152.889 317.024 152.889C334.522 152.758 352.961 142.277 357.628 122.827C357.638 122.786 357.619 122.739 357.628 122.699L369.964 73.6223C370.876 69.967 369.996 65.9081 367.651 62.9591L322.421 5.40357C320.118 2.52731 316.469 0.776428 312.784 0.778566C227.409 0.778566 141.849 0.778566 56.5668 0.778566H56.5667ZM63.7624 25.4452H306.873L332.701 58.3341H37.9351L63.7624 25.4452ZM28.4265 83.0007H74.2989V117.431C73.2635 119.354 70.918 121.99 67.3602 124.112C63.1008 126.653 57.5838 128.197 53.8684 128.223C53.8239 128.223 53.7843 128.224 53.7398 128.223C45.6335 128.116 38.502 123.788 36.9071 117.046C36.908 116.96 36.908 116.875 36.9071 116.789L28.4265 83.0007ZM98.9698 83.0007H140.088V117.431C139.053 119.354 136.707 121.99 133.149 124.112C128.853 126.675 123.244 128.223 119.529 128.223C115.814 128.223 110.205 126.675 105.908 124.112C102.351 121.99 100.005 119.354 98.9698 117.431V83.0007ZM164.759 83.0007H205.877V117.431C204.842 119.354 202.496 121.99 198.938 124.112C194.642 126.675 189.033 128.223 185.318 128.223C181.603 128.223 175.994 126.675 171.697 124.112C168.14 121.99 165.794 119.354 164.759 117.431V83.0007ZM230.548 83.0007H271.666V117.431C270.631 119.354 268.285 121.99 264.727 124.112C260.431 126.675 254.822 128.223 251.107 128.223C247.392 128.223 241.783 126.675 237.486 124.112C233.929 121.99 231.583 119.354 230.548 117.431V83.0007ZM296.337 83.0007H342.209L333.729 116.789C333.728 116.875 333.728 116.96 333.729 117.046C332.134 123.788 325.003 128.116 316.896 128.223C316.864 128.223 316.8 128.223 316.767 128.223C313.052 128.198 307.535 126.653 303.275 124.112C299.718 121.99 297.372 119.354 296.337 117.431V83.0007ZM57.7232 160.855C51.2209 160.921 45.3811 166.945 45.5162 173.445V288.428C45.5162 294.62 47.2347 301.421 52.1979 306.414C57.1612 311.407 64.0194 313.223 70.1871 313.223C146.941 313.223 223.695 313.223 300.449 313.223C306.616 313.223 313.475 311.466 318.438 306.542C323.401 301.619 325.119 294.82 325.119 288.685V173.445C325.212 166.929 319.302 160.937 312.784 160.937C306.266 160.937 300.356 166.929 300.449 173.445V288.556H279.889V181.667C279.889 175.21 274.013 169.335 267.554 169.334C242.503 169.334 217.208 169.334 192.257 169.334C186.237 169.965 181.174 175.616 181.206 181.667V288.556H70.1871C70.1797 288.375 70.1871 288.688 70.1871 288.429V173.446C70.3241 166.861 64.3111 160.787 57.7232 160.856V160.855ZM205.877 194.001H255.219V288.556H205.877V194.001Z" fill="black"/>
</g>
</g>
</svg>
