<svg width="512" height="512" viewBox="0 0 512 512" fill="none" xmlns="http://www.w3.org/2000/svg">
<g id="thumbs-up-outline">
<path id="Vector (Stroke)" fill-rule="evenodd" clip-rule="evenodd" d="M257.689 40.8446C260.399 35.424 265.94 32 272 32C290.633 32 306.853 39.2344 316.428 53.1397C325.911 66.9119 326.915 84.3904 321.101 100.996C318.416 108.673 315.545 116.006 312.778 123.001C312.473 123.774 312.169 124.542 311.866 125.306C309.4 131.536 307.047 137.477 304.852 143.494C300.552 155.281 297.05 166.854 295.13 179.431L417.256 189.049C426.066 189.743 432.644 197.447 431.951 206.256C431.257 215.066 423.553 221.644 414.744 220.951L285.67 210.785C275.447 210.409 269.349 203.055 266.82 198.876C263.953 194.138 261.893 187.629 262.641 181.004L262.644 180.978C264.718 162.891 269.453 147.155 274.79 132.526C277.144 126.074 279.664 119.711 282.111 113.532C282.416 112.763 282.719 111.996 283.021 111.232C285.781 104.255 288.443 97.4441 290.897 90.4274L290.899 90.4236C294.085 81.3196 292.589 74.9431 290.072 71.2878C288.432 68.9062 285.487 66.4133 280.547 65.0485C278.192 68.7869 275.422 72.9962 272.459 77.4299C267.691 84.5641 261.989 92.9135 255.872 101.869C253.941 104.698 251.968 107.587 249.97 110.517C233.163 135.166 214.507 162.87 201.856 184.78C188.954 207.126 180.404 222.888 175.109 232.999C172.462 238.054 170.63 241.694 169.475 244.035C168.898 245.206 168.491 246.052 168.235 246.588C168.108 246.856 168.018 247.046 167.965 247.16L167.908 247.281C167.909 247.28 167.91 247.278 153.37 240.6H169.37C169.37 242.917 168.867 245.198 167.905 247.289C167.638 247.869 167.336 248.434 167 248.981C162.697 255.977 156.684 261.762 149.526 265.79C142.368 269.817 134.302 271.954 126.088 272L126 272H96C83.2696 272 71.0606 277.057 62.0589 286.059C53.0571 295.061 48 307.27 48 320V368C48 380.73 53.0571 392.939 62.0589 401.941C71.0606 410.943 83.2696 416 96 416H160C163.381 416 166.676 417.071 169.411 419.06C189.874 433.942 212.611 448 256 448C279.365 448 294.58 446.578 303.689 445.248C308.238 444.584 311.244 443.945 312.967 443.526C313.828 443.317 314.365 443.163 314.613 443.088C314.674 443.07 314.717 443.056 314.743 443.048C322.983 440.179 332.028 444.449 335.03 452.674C338.06 460.975 333.787 470.16 325.486 473.19L320 458.16C325.486 473.19 325.479 473.193 325.472 473.195L325.426 473.212L325.361 473.235C325.334 473.245 325.306 473.255 325.276 473.265L325.213 473.287C325.107 473.324 324.985 473.366 324.848 473.411C324.572 473.503 324.232 473.611 323.825 473.734C323.01 473.979 321.922 474.281 320.533 474.619C317.756 475.295 313.762 476.116 308.311 476.912C297.42 478.502 280.635 480 256 480C206.52 480 177.691 464.129 154.855 448H96C74.7827 448 54.4344 439.571 39.4315 424.569C24.4286 409.566 16 389.217 16 368V320C16 298.783 24.4286 278.434 39.4315 263.431C54.4344 248.429 74.7827 240 96 240H125.948C128.712 239.979 131.425 239.256 133.834 237.901C136.038 236.661 137.921 234.928 139.339 232.841C139.342 232.834 139.345 232.828 139.348 232.822C139.666 232.154 140.136 231.18 140.774 229.886C142.05 227.297 144 223.425 146.761 218.154C152.281 207.612 161.046 191.464 174.144 168.78C187.493 145.66 206.837 116.974 223.53 92.4903C225.573 89.4946 227.575 86.5635 229.523 83.7102C235.613 74.793 241.184 66.6363 245.854 59.6492C252.233 50.1042 256.23 43.7627 257.689 40.8446ZM314.528 443.125C314.54 443.121 314.551 443.116 314.563 443.112L314.542 443.12L314.528 443.125Z" fill="black"/>
<path id="Vector (Stroke)_2" fill-rule="evenodd" clip-rule="evenodd" d="M415.6 189H416C443.656 189 464 213.835 464 239V239.212L464 239.255C463.932 251.941 458.846 264.085 449.851 273.031C440.857 281.978 428.686 287 416 287H415.8L335.066 284.982L334.534 284.933C322.213 283.799 310.492 279.82 301.656 271.674C292.491 263.226 288 251.727 288 239C288 210.548 311.195 194.565 334.971 193.033L335.086 193.026L415.6 189ZM416.31 221.004L336.924 224.974C324.778 225.792 320 232.271 320 239C320 243.873 321.509 246.454 323.344 248.146C325.461 250.097 329.603 252.265 336.972 253.019L416.166 254.999C420.335 254.956 424.325 253.287 427.284 250.344C430.274 247.37 431.968 243.336 432 239.121V239C432 229.103 423.774 221.219 416.31 221.004Z" fill="black"/>
<path id="Vector (Stroke)_3" fill-rule="evenodd" clip-rule="evenodd" d="M447.882 256L448.05 256C460.755 256.04 472.928 261.104 481.912 270.088C490.896 279.072 495.96 291.245 496 303.95L480 304L496 304.05C495.96 316.755 490.896 328.928 481.912 337.912C472.928 346.896 460.755 351.96 448.05 352L448 336L447.714 351.997L335.484 349.993L335.254 349.983C310.975 348.85 288 332.228 288 304C288 275.548 311.185 259.54 334.989 258.032L335.351 258.009L447.882 256ZM448.089 319.999C452.292 319.95 456.31 318.259 459.285 315.285C462.28 312.289 463.974 308.235 464 304C463.974 299.765 462.28 295.711 459.285 292.715C456.31 289.741 452.292 288.05 448.089 288.001L336.682 289.99C324.728 290.858 320 297.293 320 304C320 310.91 324.966 317.393 336.539 318.007L448.089 319.999Z" fill="black"/>
<path id="Vector (Stroke)_4" fill-rule="evenodd" clip-rule="evenodd" d="M399.772 384L400.045 384C412.752 384.036 424.929 389.1 433.915 398.085C442.901 407.071 447.964 419.248 448 431.955L432 432L448 432.045C447.964 444.753 442.901 456.929 433.915 465.915C424.929 474.901 412.752 479.965 400.045 480L400 464L399.251 479.983L334.927 476.967L334.603 476.939C322.241 475.856 310.372 472.329 301.443 464.322C292.026 455.878 288 444.382 288 432C288 404.338 310.785 386.133 335.727 386.001L399.772 384ZM400.285 447.996C404.417 447.9 408.359 446.216 411.287 443.288C414.283 440.292 415.976 436.236 416 432C415.976 427.765 414.283 423.709 411.287 420.713C408.334 417.76 404.351 416.073 400.181 416.002L336.25 418H336C325.848 418 320 424.564 320 432C320 437.219 321.474 439.302 322.807 440.498C324.606 442.112 328.662 444.253 337.092 445.034L400.285 447.996Z" fill="black"/>
<path id="Vector (Stroke)_5" fill-rule="evenodd" clip-rule="evenodd" d="M431.856 320L432.045 320C444.752 320.036 456.929 325.099 465.915 334.085C474.901 343.071 479.964 355.248 480 367.955L464 368L480 368.045C479.964 380.752 474.901 392.929 465.915 401.915C456.929 410.901 444.752 415.964 432.045 416L431.856 416L335.48 413.993L335.293 413.984C322.778 413.431 310.934 409.272 302.019 401.039C292.925 392.64 288 380.998 288 368C288 354.966 292.952 343.391 302.065 335.039C310.952 326.895 322.701 322.782 335.025 322.03L335.346 322.01L431.856 320ZM448 368C447.976 363.764 446.283 359.708 443.287 356.712C440.318 353.743 436.307 352.054 432.112 352.001L336.683 353.989C330.175 354.439 326.014 356.497 323.685 358.631C321.548 360.589 320 363.434 320 368C320 372.602 321.575 375.54 323.731 377.531C326.046 379.669 330.15 381.693 336.538 382.008L432.112 383.999C436.307 383.946 440.318 382.257 443.287 379.287C446.283 376.292 447.976 372.236 448 368Z" fill="black"/>
</g>
</svg>
