<svg width="512" height="512" viewBox="0 0 512 512" fill="none" xmlns="http://www.w3.org/2000/svg">
<g id="thumbs-down-outline">
<path id="Vector (Stroke)" fill-rule="evenodd" clip-rule="evenodd" d="M192 53.84L186.514 38.8099C178.213 41.8397 173.94 51.0251 176.97 59.326C179.972 67.5507 189.017 71.8211 197.257 68.9517C197.283 68.9435 197.326 68.93 197.387 68.9118C197.635 68.8374 198.172 68.6833 199.033 68.4739C200.756 68.0546 203.762 67.4164 208.312 66.7522C217.42 65.4223 232.635 64 256 64C299.389 64 322.126 78.0576 342.589 92.9398C345.324 94.9287 348.619 96 352 96H416C428.73 96 440.939 101.057 449.941 110.059C458.943 119.061 464 131.27 464 144V192C464 204.73 458.943 216.939 449.941 225.941C440.939 234.943 428.73 240 416 240H386L385.912 240C377.699 240.046 369.632 242.183 362.474 246.21C355.316 250.238 349.303 256.023 345.001 263.019L358.63 271.4C344.09 264.722 344.091 264.72 344.092 264.719L344.035 264.84C343.982 264.954 343.892 265.144 343.765 265.412C343.509 265.948 343.102 266.794 342.525 267.965C341.37 270.306 339.538 273.946 336.891 279.001C331.596 289.112 323.046 304.874 310.144 327.22C297.493 349.13 278.837 376.834 262.031 401.483C260.033 404.412 258.061 407.3 256.13 410.128C250.012 419.085 244.31 427.435 239.541 434.57C236.578 439.004 233.808 443.213 231.453 446.951C226.513 445.587 223.568 443.094 221.928 440.712C219.411 437.057 217.915 430.68 221.102 421.576L221.103 421.573C223.557 414.556 226.219 407.745 228.979 400.768C229.281 400.005 229.584 399.239 229.888 398.47C232.335 392.291 234.855 385.927 237.21 379.474C242.547 364.845 247.282 349.109 249.356 331.022L249.359 330.996C250.108 324.369 248.047 317.851 245.158 313.098C242.589 308.871 236.472 301.588 226.279 301.215L97.2568 291.049C88.4475 290.355 80.7436 296.934 80.0495 305.743C79.3554 314.553 85.9341 322.257 94.7433 322.951L216.87 332.573C214.949 345.148 211.448 356.72 207.148 368.506C204.953 374.522 202.601 380.464 200.134 386.694C199.832 387.457 199.527 388.226 199.222 388.999C196.455 395.995 193.583 403.329 190.897 411.007C185.086 427.612 186.09 445.089 195.572 458.86C205.147 472.766 221.367 480 240 480C246.06 480 251.601 476.576 254.311 471.155C255.77 468.237 259.767 461.896 266.147 452.351C270.816 445.364 276.386 437.208 282.475 428.292C284.424 425.438 286.427 422.506 288.47 419.51C305.163 395.026 324.507 366.34 337.856 343.22C350.954 320.536 359.719 304.388 365.239 293.846C368 288.575 369.95 284.703 371.226 282.114C371.864 280.82 372.334 279.846 372.652 279.178C372.655 279.172 372.658 279.166 372.661 279.159C374.079 277.072 375.962 275.339 378.166 274.099C380.575 272.744 383.288 272.021 386.052 272H416C437.217 272 457.566 263.571 472.569 248.569C487.572 233.566 496 213.217 496 192V144C496 122.783 487.572 102.434 472.569 87.4315C457.566 72.4285 437.217 64 416 64H357.145C334.309 47.8709 305.48 32 256 32C231.365 32 214.58 33.4977 203.689 35.0878C198.238 35.8836 194.244 36.7054 191.467 37.3811C190.078 37.7192 188.991 38.0213 188.175 38.2663C187.768 38.3888 187.428 38.4971 187.153 38.5886C187.015 38.6343 186.893 38.6758 186.787 38.7128C186.734 38.7313 186.684 38.7487 186.639 38.7649L186.574 38.7883L186.543 38.7993L186.528 38.8047C186.521 38.8073 186.514 38.8099 192 53.84Z" fill="black"/>
<path id="Vector (Stroke)_2" fill-rule="evenodd" clip-rule="evenodd" d="M95.8342 257.001C91.6652 257.044 87.675 258.713 84.716 261.656C81.7262 264.63 80.0317 268.664 80 272.88V273C80 282.897 88.2264 290.781 95.6896 290.996L175.076 287.026C187.222 286.208 192 279.729 192 273C192 268.127 190.491 265.546 188.656 263.854C186.539 261.903 182.397 259.735 175.028 258.981L95.8342 257.001ZM96 241L96.0002 225C83.3139 225 71.1434 230.022 62.1489 238.969C53.1545 247.915 48.0676 260.059 48.0002 272.745L48 272.787V273C48 298.165 68.3435 323 96 323H96.3997L176.914 318.974L177.029 318.967C200.805 317.435 224 301.452 224 273C224 260.273 219.509 248.774 210.344 240.326C201.508 232.18 189.787 228.201 177.466 227.067L176.934 227.018L96.3999 225.005L96 241Z" fill="black"/>
<path id="Vector (Stroke)_3" fill-rule="evenodd" clip-rule="evenodd" d="M64.1179 160L176.516 162.007L176.746 162.017C201.025 163.15 224 179.771 224 208C224 236.452 200.815 252.46 177.011 253.968L176.649 253.991L64.1179 256L63.9502 256C51.2451 255.96 39.0718 250.896 30.0879 241.912C21.1041 232.928 16.0395 220.755 16 208.05L31.9999 208L16 207.95C16.0395 195.245 21.1041 183.072 30.0879 174.088C39.0718 165.104 51.2451 160.04 63.9502 160L64.1179 160ZM48.0001 208C48.0263 212.235 49.72 216.289 52.7154 219.285C55.6896 222.259 59.7084 223.95 63.9107 223.999L175.318 222.01C187.272 221.142 192 214.707 192 208C192 201.09 187.034 194.607 175.461 193.993L63.9106 192.001C59.7083 192.05 55.6896 193.741 52.7154 196.715C49.72 199.711 48.0263 203.765 48.0001 208Z" fill="black"/>
<path id="Vector (Stroke)_4" fill-rule="evenodd" clip-rule="evenodd" d="M111.715 64.0042C107.583 64.1003 103.641 65.7838 100.712 68.7125C97.7166 71.7083 96.0237 75.7644 96.0001 79.9999C96.0237 84.2354 97.7166 88.2915 100.712 91.2874C103.666 94.2406 107.649 95.9277 111.819 95.9978L175.75 93.9999H176C186.152 93.9999 192 87.4363 192 79.9999C192 74.7812 190.526 72.6977 189.193 71.5019C187.394 69.8884 183.338 67.747 174.908 66.9663L111.715 64.0042ZM112 47.9999L111.955 32C99.2476 32.0356 87.0707 37.0994 78.085 46.085C69.0994 55.0707 64.0356 67.2476 64 79.9551L79.9999 79.9999L64 80.0447C64.0356 92.7523 69.0994 104.929 78.085 113.915C87.0707 122.9 99.2476 127.964 111.955 128L112.227 128.001L176.273 125.999C201.215 125.867 224 107.663 224 79.9999C224 67.6186 219.973 56.1222 210.557 47.678C201.628 39.6708 189.759 36.1442 177.396 35.061L177.073 35.0327L112.749 32.0175L112 47.9999Z" fill="black"/>
<path id="Vector (Stroke)_5" fill-rule="evenodd" clip-rule="evenodd" d="M79.888 128.001C75.693 128.054 71.6819 129.743 68.7125 132.712C65.7166 135.708 64.0237 139.764 64.0001 144C64.0237 148.235 65.7166 152.292 68.7125 155.287C71.6819 158.257 75.693 159.946 79.888 159.999L175.316 158.011C181.825 157.561 185.986 155.503 188.315 153.369C190.452 151.411 192 148.566 192 144C192 139.398 190.425 136.46 188.269 134.469C185.954 132.331 181.85 130.307 175.462 129.992L79.888 128.001ZM79.9999 112L79.9551 96C67.2476 96.0356 55.0707 101.099 46.085 110.085C37.0994 119.071 32.0356 131.248 32 143.955L47.9999 144L32 144.045C32.0356 156.752 37.0994 168.929 46.085 177.915C55.0707 186.9 67.2476 191.964 79.9551 192L80.1442 192L176.654 189.99L176.975 189.97C189.299 189.218 201.048 185.105 209.935 176.961C219.048 168.609 224 157.034 224 144C224 131.001 219.075 119.36 209.98 110.961C201.066 102.728 189.222 98.5689 176.707 98.0156L176.52 98.0073L80.3332 96.0034L79.9999 112Z" fill="black"/>
</g>
</svg>
