<svg width="512" height="512" viewBox="0 0 512 512" fill="none" xmlns="http://www.w3.org/2000/svg">
<g id="time-outline">
<path id="Vector (Stroke)" fill-rule="evenodd" clip-rule="evenodd" d="M48 256C48 141.163 141.163 48 256 48C370.837 48 464 141.163 464 256C464 370.837 370.837 464 256 464C141.163 464 48 370.837 48 256ZM256 80C158.837 80 80 158.837 80 256C80 353.163 158.837 432 256 432C353.163 432 432 353.163 432 256C432 158.837 353.163 80 256 80Z" fill="black"/>
<path id="Vector (Stroke)_2" fill-rule="evenodd" clip-rule="evenodd" d="M256 112C264.837 112 272 119.163 272 128V256H352C360.837 256 368 263.163 368 272C368 280.837 360.837 288 352 288H256C247.163 288 240 280.837 240 272V128C240 119.163 247.163 112 256 112Z" fill="black"/>
</g>
</svg>
