<svg width="512" height="512" viewBox="0 0 512 512" fill="none" xmlns="http://www.w3.org/2000/svg">
<g id="trash-outline">
<path id="Vector (Stroke)" fill-rule="evenodd" clip-rule="evenodd" d="M111.002 96.0312C119.821 95.48 127.418 102.183 127.969 111.002L147.969 431.002C147.973 431.061 147.976 431.12 147.979 431.179C148.532 441.947 155.681 448 164 448H348C356.237 448 363.354 442.082 364.03 431.024L384.031 111.002C384.582 102.183 392.179 95.48 400.998 96.0312C409.817 96.5824 416.52 104.179 415.969 112.998L395.97 432.976C395.97 432.977 395.97 432.978 395.97 432.979C394.385 458.9 375.102 480 348 480H164C137.152 480 117.416 459.084 116.026 432.917L96.0312 112.998C95.48 104.179 102.183 96.5824 111.002 96.0312Z" fill="black"/>
<path id="Vector (Stroke)_2" fill-rule="evenodd" clip-rule="evenodd" d="M64 112C64 103.163 71.1634 96 80 96H432C440.837 96 448 103.163 448 112C448 120.837 440.837 128 432 128H80C71.1634 128 64 120.837 64 112Z" fill="black"/>
<path id="Vector (Stroke)_3" fill-rule="evenodd" clip-rule="evenodd" d="M215.953 64C214.908 63.997 213.872 64.2006 212.906 64.5992C211.94 64.9978 211.062 65.5835 210.323 66.3226C209.584 67.0618 208.998 67.9397 208.599 68.9061C208.201 69.8724 207.997 70.908 208 71.9532L208 72.0001V112C208 120.837 200.837 128 192 128C183.164 128 176 120.837 176 112V72.0205C175.988 66.7662 177.013 61.561 179.017 56.7035C181.024 51.8378 183.973 47.417 187.695 43.6952C191.417 39.9735 195.838 37.0242 200.703 35.0171C205.561 33.0134 210.766 31.9882 216.021 32.0001H295.98C301.234 31.9882 306.439 33.0134 311.297 35.0171C316.162 37.0242 320.583 39.9734 324.305 43.6952C328.027 47.417 330.976 51.8379 332.983 56.7035C334.987 61.562 336.012 66.7683 336 72.0238V112C336 120.837 328.837 128 320 128C311.164 128 304 120.837 304 112V72.0001L304 71.9532C304.003 70.908 303.8 69.8724 303.401 68.9061C303.002 67.9397 302.417 67.0617 301.678 66.3226C300.938 65.5835 300.06 64.9978 299.094 64.5992C298.128 64.2006 297.092 63.997 296.047 64L296 64.0001H216L215.953 64Z" fill="black"/>
<path id="Vector (Stroke)_4" fill-rule="evenodd" clip-rule="evenodd" d="M256 160C264.837 160 272 167.163 272 176V400C272 408.837 264.837 416 256 416C247.163 416 240 408.837 240 400V176C240 167.163 247.163 160 256 160Z" fill="black"/>
<path id="Vector (Stroke)_5" fill-rule="evenodd" clip-rule="evenodd" d="M183.429 160.01C192.26 159.695 199.675 166.598 199.99 175.429L207.99 399.429C208.305 408.26 201.402 415.675 192.571 415.99C183.74 416.305 176.326 409.402 176.01 400.571L168.01 176.571C167.695 167.74 174.598 160.326 183.429 160.01Z" fill="black"/>
<path id="Vector (Stroke)_6" fill-rule="evenodd" clip-rule="evenodd" d="M328.571 160.01C337.402 160.326 344.305 167.74 343.99 176.571L335.99 400.571C335.675 409.402 328.26 416.305 319.429 415.99C310.598 415.675 303.695 408.26 304.01 399.429L312.01 175.429C312.326 166.598 319.74 159.695 328.571 160.01Z" fill="black"/>
</g>
</svg>
