<svg width="512" height="512" viewBox="0 0 512 512" fill="none" xmlns="http://www.w3.org/2000/svg">
<g id="wine-outline">
<path id="Vector (Stroke)" fill-rule="evenodd" clip-rule="evenodd" d="M240 432V272H272V432H240Z" fill="black"/>
<path id="Vector (Stroke)_2" fill-rule="evenodd" clip-rule="evenodd" d="M144 432C144 423.163 151.163 416 160 416H352C360.837 416 368 423.163 368 432C368 440.837 360.837 448 352 448H160C151.163 448 144 440.837 144 432Z" fill="black"/>
<path id="Vector (Stroke)_3" fill-rule="evenodd" clip-rule="evenodd" d="M400 176H112V144H400V176Z" fill="black"/>
<g id="Rectangle 3">
<path d="M100.5 60.5C106 53.5 113.886 54 113.886 54H399C399 54 407 54.5 410.6 59.5C414.5 63.5 414.58 70 414.58 70V86H382.5H129.5H97.4299V70C97.4299 70 97.4299 64.5 100.5 60.5Z" fill="black"/>
<path d="M97.4299 86C97.4299 86 96.5 90.5 96 109C95.5396 125.405 97.5 139 99.4999 152C102.5 168 103.5 169.5 106.5 179.5C111.5 195 118.507 207 120 209.5C121.5 211 129.5 229 154 248C171.327 261.287 192.5 269 204.5 272C222 276.5 239.5 277.5 239.5 277.5H272.5C272.5 277.5 296 277 324.5 266.5C347 258 358.829 247.5 363 244C377.019 232.237 384.798 221.5 392 209.5C400.789 194.857 407.5 175 408.5 169.5C413.299 152.943 415.5 132 415.5 126C417 104.5 414.58 86 414.58 86H382.5C382.5 86 386.5 107.5 381.52 143C379.238 156.35 377.939 164.075 372.55 176.5C366.5 190 362.358 200 347.5 215C342 220.5 330.5 229.5 318 234.6C305 240.5 289.5 243.882 271 245.5C259.329 246.521 241 245.5 241 245.5C241 245.5 222.5 244.5 204 238.45C194 235 185.5 231 179 226.5C172.055 221.974 165.219 216.27 158.42 208.5C144.856 193 139.25 176 139.25 176C139.25 176 132.74 156.143 130.5 143C125.387 113 129.5 86 129.5 86H97.4299Z" fill="black"/>
</g>
</g>
</svg>
